%TF.GenerationSoftware,Altium Limited,Altium Designer,25.2.1 (25)*%
G04 Layer_Physical_Order=1*
G04 Layer_Color=255*
%FSLAX45Y45*%
%MOMM*%
%TF.SameCoordinates,590976A8-7F7F-4D3C-81A5-A8EF51F60ECE*%
%TF.FilePolarity,Positive*%
%TF.FileFunction,Copper,L1,Top,Signal*%
%TF.Part,Single*%
G01*
G75*
%TA.AperFunction,SMDPad,CuDef*%
G04:AMPARAMS|DCode=10|XSize=0.7874mm|YSize=1.1938mm|CornerRadius=0mm|HoleSize=0mm|Usage=FLASHONLY|Rotation=11.500|XOffset=0mm|YOffset=0mm|HoleType=Round|Shape=Rectangle|*
%AMROTATEDRECTD10*
4,1,4,-0.26679,-0.66341,-0.50480,0.50643,0.26679,0.66341,0.50480,-0.50643,-0.26679,-0.66341,0.0*
%
%ADD10ROTATEDRECTD10*%

G04:AMPARAMS|DCode=11|XSize=0.7874mm|YSize=1.1938mm|CornerRadius=0mm|HoleSize=0mm|Usage=FLASHONLY|Rotation=348.500|XOffset=0mm|YOffset=0mm|HoleType=Round|Shape=Rectangle|*
%AMROTATEDRECTD11*
4,1,4,-0.50480,-0.50643,-0.26679,0.66341,0.50480,0.50643,0.26679,-0.66341,-0.50480,-0.50643,0.0*
%
%ADD11ROTATEDRECTD11*%

%TA.AperFunction,Conductor*%
%ADD12C,0.78740*%
G04:AMPARAMS|DCode=13|XSize=1.52731mm|YSize=15.90341mm|CornerRadius=0mm|HoleSize=0mm|Usage=FLASHONLY|Rotation=348.500|XOffset=0mm|YOffset=0mm|HoleType=Round|Shape=Rectangle|*
%AMROTATEDRECTD13*
4,1,4,-2.33364,-7.63982,0.83699,7.94432,2.33364,7.63982,-0.83699,-7.94432,-2.33364,-7.63982,0.0*
%
%ADD13ROTATEDRECTD13*%

G04:AMPARAMS|DCode=14|XSize=1.50792mm|YSize=15.5177mm|CornerRadius=0mm|HoleSize=0mm|Usage=FLASHONLY|Rotation=11.500|XOffset=0mm|YOffset=0mm|HoleType=Round|Shape=Rectangle|*
%AMROTATEDRECTD14*
4,1,4,0.80804,-7.75340,-2.28569,7.45277,-0.80804,7.75340,2.28569,-7.45277,0.80804,-7.75340,0.0*
%
%ADD14ROTATEDRECTD14*%

G04:AMPARAMS|DCode=15|XSize=1.37487mm|YSize=16.37914mm|CornerRadius=0mm|HoleSize=0mm|Usage=FLASHONLY|Rotation=11.500|XOffset=0mm|YOffset=0mm|HoleType=Round|Shape=Rectangle|*
%AMROTATEDRECTD15*
4,1,4,0.95910,-8.16222,-2.30637,7.88811,-0.95910,8.16222,2.30637,-7.88811,0.95910,-8.16222,0.0*
%
%ADD15ROTATEDRECTD15*%

G04:AMPARAMS|DCode=16|XSize=1.41032mm|YSize=16.60218mm|CornerRadius=0mm|HoleSize=0mm|Usage=FLASHONLY|Rotation=348.500|XOffset=0mm|YOffset=0mm|HoleType=Round|Shape=Rectangle|*
%AMROTATEDRECTD16*
4,1,4,-2.34598,-7.99385,0.96397,8.27503,2.34598,7.99385,-0.96397,-8.27503,-2.34598,-7.99385,0.0*
%
%ADD16ROTATEDRECTD16*%

%TA.AperFunction,ComponentPad*%
%ADD17C,1.19380*%
%ADD18C,1.70180*%
%TA.AperFunction,WasherPad*%
%ADD19C,1.52400*%
%ADD20C,5.68960*%
%TA.AperFunction,ViaPad*%
%ADD21C,0.38100*%
G36*
X-8031Y1179291D02*
X-130528Y1205414D01*
X-129315Y1206628D01*
X130124Y1207399D01*
X-8031Y1179291D01*
D02*
G37*
G36*
X-274399Y1148349D02*
X-424086Y1178804D01*
X-417192Y1206500D01*
X-261620D01*
X-274399Y1148349D01*
D02*
G37*
G36*
X421640Y1179830D02*
X427990Y1148080D01*
X274320D01*
X261620Y1206628D01*
X416768D01*
X421640Y1179830D01*
D02*
G37*
G36*
X-171685Y1130346D02*
X-248920Y1145540D01*
X-234950Y1206500D01*
X-156210D01*
X-171685Y1130346D01*
D02*
G37*
G36*
X252730Y1127760D02*
X254059Y1121410D01*
X173990D01*
X156445Y1206628D01*
X236220D01*
X252730Y1127760D01*
D02*
G37*
G36*
X1011503Y-1016204D02*
X314581Y-1157995D01*
X169948Y-447099D01*
X454939Y-389117D01*
X488297Y-553266D01*
X467561Y-565440D01*
X430344Y-595796D01*
X400065Y-633077D01*
X377988Y-675729D01*
X365030Y-721976D01*
X361733Y-769890D01*
X368233Y-817476D01*
X384260Y-862750D01*
X409146Y-903828D01*
X441854Y-938996D01*
X481022Y-966791D01*
X525017Y-986053D01*
X572007Y-995982D01*
X620034Y-996162D01*
X667098Y-986587D01*
X711237Y-967655D01*
X750612Y-940156D01*
X783583Y-905234D01*
X808777Y-864345D01*
X825144Y-819192D01*
X832001Y-771657D01*
X829064Y-723719D01*
X816455Y-677377D01*
X794698Y-634560D01*
X764701Y-597052D01*
X727713Y-566417D01*
X685274Y-543930D01*
X639155Y-530529D01*
X615311Y-527425D01*
X615311Y-527425D01*
X582385Y-365780D01*
X867376Y-307797D01*
X1011503Y-1016204D01*
D02*
G37*
G36*
X-581879Y-363291D02*
X-615311Y-527425D01*
X-639155Y-530529D01*
X-685275Y-543930D01*
X-727713Y-566417D01*
X-764701Y-597052D01*
X-794698Y-634559D01*
X-816454Y-677376D01*
X-829064Y-723719D01*
X-832001Y-771656D01*
X-825143Y-819191D01*
X-808777Y-864344D01*
X-783583Y-905233D01*
X-750612Y-940154D01*
X-711236Y-967654D01*
X-667098Y-986585D01*
X-620035Y-996160D01*
X-572007Y-995980D01*
X-525018Y-986052D01*
X-481023Y-966789D01*
X-441855Y-938994D01*
X-409147Y-903826D01*
X-384261Y-862749D01*
X-368234Y-817475D01*
X-361734Y-769889D01*
X-365031Y-721975D01*
X-377989Y-675729D01*
X-400066Y-633077D01*
X-430344Y-595796D01*
X-467561Y-565440D01*
X-488297Y-553266D01*
X-488297Y-553266D01*
X-455446Y-391606D01*
X-170454Y-449588D01*
X-315178Y-1160930D01*
X-1012101Y-1019139D01*
X-866870Y-305309D01*
X-581879Y-363291D01*
D02*
G37*
D10*
X549046Y-526789D02*
D03*
D11*
X-549046D02*
D03*
D12*
X209321Y1143009D02*
X549046Y-526789D01*
X-549046D02*
X-210181Y1138786D01*
D13*
X-507295Y386339D02*
D03*
D14*
X502895Y403101D02*
D03*
D15*
X226034Y391177D02*
D03*
D16*
X-226925Y377911D02*
D03*
D17*
X596900Y-762000D02*
D03*
X-596900D02*
D03*
D18*
X896440Y-960261D02*
D03*
X398639Y-1061540D02*
D03*
X795161Y-462460D02*
D03*
X297360Y-563739D02*
D03*
X-398639Y-1061540D02*
D03*
X-896440Y-960261D02*
D03*
X-297360Y-563739D02*
D03*
X-795161Y-462460D02*
D03*
D19*
X1137920Y-1036320D02*
D03*
X-1137920D02*
D03*
X737Y-1036389D02*
D03*
X1047750Y62230D02*
D03*
X-1047750D02*
D03*
D20*
X917677Y697161D02*
D03*
X-916203D02*
D03*
D21*
X651812Y-496809D02*
D03*
X755089Y-545781D02*
D03*
X833098Y-636184D02*
D03*
X863859Y-749159D02*
D03*
X844334Y-869773D02*
D03*
X758995Y-972673D02*
D03*
X440752Y-542341D02*
D03*
X364314Y-625286D02*
D03*
X327829Y-738982D02*
D03*
X343656Y-854995D02*
D03*
X411246Y-957886D02*
D03*
X522540Y-1020780D02*
D03*
X650578Y-1025835D02*
D03*
X-442735Y-539346D02*
D03*
X-366803Y-624779D02*
D03*
X-330318Y-738476D02*
D03*
X-346145Y-854489D02*
D03*
X-411246Y-957886D02*
D03*
X-530007Y-1019261D02*
D03*
X-654807Y-498791D02*
D03*
X-757578Y-545275D02*
D03*
X-835587Y-635677D02*
D03*
X-866348Y-748653D02*
D03*
X-844334Y-869773D02*
D03*
X-766463Y-971154D02*
D03*
X-650578Y-1025835D02*
D03*
X419100Y-441960D02*
D03*
X629920Y-396240D02*
D03*
X-629920D02*
D03*
X-419100Y-439420D02*
D03*
X-396240Y-332740D02*
D03*
X-609600Y-289560D02*
D03*
X327951Y1101388D02*
D03*
X348207Y1001828D02*
D03*
X115141Y1058092D02*
D03*
X135396Y958531D02*
D03*
X469742Y404466D02*
D03*
X216420Y560290D02*
D03*
X256931Y361169D02*
D03*
X236675Y460729D02*
D03*
X429230Y603587D02*
D03*
X449486Y504026D02*
D03*
X510253Y205345D02*
D03*
X550764Y6224D02*
D03*
X591276Y-192896D02*
D03*
X398722Y-335753D02*
D03*
X611532Y-292457D02*
D03*
X378466Y-236193D02*
D03*
X337954Y-37072D02*
D03*
X571020Y-93336D02*
D03*
X358210Y-136633D02*
D03*
X317698Y62488D02*
D03*
X297443Y162048D02*
D03*
X155652Y858971D02*
D03*
X530509Y105785D02*
D03*
X277187Y261609D02*
D03*
X489997Y304905D02*
D03*
X196164Y659850D02*
D03*
X368463Y902267D02*
D03*
X175908Y759410D02*
D03*
X408974Y703147D02*
D03*
X388718Y802707D02*
D03*
X-349451Y1002081D02*
D03*
X-329195Y1101641D02*
D03*
X-197408Y660103D02*
D03*
X-278431Y261862D02*
D03*
X-298687Y162302D02*
D03*
X-318943Y62741D02*
D03*
X-339199Y-36819D02*
D03*
X-258176Y361422D02*
D03*
X-217664Y560543D02*
D03*
X-237920Y460983D02*
D03*
X-379710Y-235940D02*
D03*
X-359454Y-136379D02*
D03*
X-572265Y-93083D02*
D03*
X-592521Y-192643D02*
D03*
X-450730Y504279D02*
D03*
X-430474Y603840D02*
D03*
X-410219Y703400D02*
D03*
X-389963Y802960D02*
D03*
X-369707Y902521D02*
D03*
X-470986Y404719D02*
D03*
X-491242Y305159D02*
D03*
X-511497Y205598D02*
D03*
X-552009Y6478D02*
D03*
X-531753Y106038D02*
D03*
X-177153Y759664D02*
D03*
X-156897Y859224D02*
D03*
X-136641Y958784D02*
D03*
X-116385Y1058345D02*
D03*
%TF.MD5,eb705e3d667c6117934beb8699811084*%
M02*
