%TF.GenerationSoftware,Altium Limited,Altium Designer,25.2.1 (25)*%
G04 Layer_Color=8421504*
%FSLAX45Y45*%
%MOMM*%
%TF.SameCoordinates,590976A8-7F7F-4D3C-81A5-A8EF51F60ECE*%
%TF.FilePolarity,Positive*%
%TF.FileFunction,Paste,Top*%
%TF.Part,Single*%
G01*
G75*
%TA.AperFunction,NonConductor*%
G04:AMPARAMS|DCode=31|XSize=0.7112mm|YSize=1.0922mm|CornerRadius=0mm|HoleSize=0mm|Usage=FLASHONLY|Rotation=191.500|XOffset=0mm|YOffset=0mm|HoleType=Round|Shape=Rectangle|*
%AMROTATEDRECTD31*
4,1,4,0.23959,0.60603,0.45734,-0.46424,-0.23959,-0.60603,-0.45734,0.46424,0.23959,0.60603,0.0*
%
%ADD31ROTATEDRECTD31*%

G04:AMPARAMS|DCode=32|XSize=0.7112mm|YSize=1.0922mm|CornerRadius=0mm|HoleSize=0mm|Usage=FLASHONLY|Rotation=168.500|XOffset=0mm|YOffset=0mm|HoleType=Round|Shape=Rectangle|*
%AMROTATEDRECTD32*
4,1,4,0.45734,0.46424,0.23959,-0.60603,-0.45734,-0.46424,-0.23959,0.60603,0.45734,0.46424,0.0*
%
%ADD32ROTATEDRECTD32*%

G36*
X-849897Y-1049854D02*
X-840861Y-1008148D01*
X-832904Y-996988D01*
X-823563Y-971334D01*
X-823864Y-944034D01*
X-833769Y-918592D01*
X-852006Y-898275D01*
X-876234Y-885690D01*
X-903343Y-882454D01*
X-929853Y-888980D01*
X-941805Y-895690D01*
Y-895690D01*
X-986358Y-886239D01*
X-987602Y-885986D01*
X-907592Y-492722D01*
X-861454Y-501979D01*
X-854659Y-510984D01*
X-837481Y-525515D01*
X-816808Y-534395D01*
X-794442Y-536852D01*
X-772335Y-532669D01*
X-752412Y-522213D01*
X-736412Y-506395D01*
X-725728Y-486593D01*
X-721293Y-464535D01*
X-723494Y-442143D01*
X-732137Y-421370D01*
X-746470Y-404027D01*
X-765244Y-391625D01*
X-786820Y-385247D01*
X-809319Y-385447D01*
X-830779Y-392210D01*
X-840526Y-397889D01*
Y-397888D01*
X-885079Y-388437D01*
X-868135Y-305378D01*
X-867969Y-304116D01*
X-582977Y-362099D01*
X-616410Y-526233D01*
X-616142Y-525888D01*
X-640135Y-529084D01*
X-686523Y-542713D01*
X-729177Y-565475D01*
X-766322Y-596424D01*
X-796409Y-634269D01*
X-818187Y-677435D01*
X-830747Y-724123D01*
X-833567Y-772389D01*
X-826529Y-820222D01*
X-809926Y-865629D01*
X-784450Y-906721D01*
X-751162Y-941784D01*
X-711449Y-969359D01*
X-666964Y-988297D01*
X-619561Y-997809D01*
X-571214Y-997498D01*
X-523936Y-987379D01*
X-479699Y-967871D01*
X-440342Y-939789D01*
X-407507Y-904301D01*
X-382561Y-862886D01*
X-366543Y-817268D01*
X-360119Y-769349D01*
X-363559Y-721124D01*
X-376717Y-674600D01*
X-399047Y-631718D01*
X-429618Y-594262D01*
X-467157Y-563793D01*
X-488061Y-551588D01*
Y-551588D01*
X-456544Y-390414D01*
X-171553Y-448396D01*
X-188410Y-531472D01*
X-233114Y-522764D01*
X-239867Y-513728D01*
X-256978Y-499118D01*
X-277610Y-490143D01*
X-299964Y-487583D01*
X-322091Y-491663D01*
X-342061Y-502028D01*
X-358134Y-517772D01*
X-368909Y-537524D01*
X-373445Y-559562D01*
X-371348Y-581964D01*
X-362800Y-602777D01*
X-348547Y-620186D01*
X-329831Y-632674D01*
X-308284Y-639152D01*
X-285784Y-639054D01*
X-264294Y-632391D01*
X-254521Y-626757D01*
X-254521D01*
X-208434Y-636264D01*
X-288444Y-1029527D01*
X-289689Y-1029274D01*
X-334393Y-1020566D01*
X-342773Y-1009719D01*
X-364625Y-993353D01*
X-390844Y-985740D01*
X-418063Y-987858D01*
X-442789Y-999434D01*
X-461847Y-1018983D01*
X-472791Y-1043995D01*
X-474216Y-1071260D01*
X-471253Y-1084642D01*
X-471252Y-1084642D01*
X-479231Y-1126563D01*
X-479259Y-1126557D01*
X-849897Y-1049854D01*
D02*
G37*
G36*
X476489Y-1125825D02*
X468510Y-1083904D01*
X471474Y-1070522D01*
X470049Y-1043257D01*
X459105Y-1018245D01*
X440047Y-998696D01*
X415321Y-987120D01*
X388101Y-985002D01*
X361883Y-992615D01*
X340030Y-1008981D01*
X331651Y-1019828D01*
Y-1019828D01*
X286946Y-1028536D01*
X285702Y-1028789D01*
X205691Y-635526D01*
X251779Y-626019D01*
X261552Y-631653D01*
X283042Y-638316D01*
X305541Y-638414D01*
X327088Y-631936D01*
X345804Y-619448D01*
X360058Y-602039D01*
X368606Y-581226D01*
X370703Y-558824D01*
X366166Y-536786D01*
X355392Y-517034D01*
X339319Y-501290D01*
X319348Y-490925D01*
X297222Y-486845D01*
X274868Y-489404D01*
X254236Y-498380D01*
X237125Y-512990D01*
X230372Y-522026D01*
Y-522026D01*
X185667Y-530734D01*
X168811Y-447657D01*
X168470Y-446431D01*
X453462Y-388449D01*
X486820Y-552598D01*
X486932Y-552176D01*
X466094Y-564493D01*
X428719Y-595163D01*
X398350Y-632783D01*
X376251Y-675785D01*
X363342Y-722378D01*
X360162Y-770621D01*
X366843Y-818505D01*
X383106Y-864036D01*
X408274Y-905316D01*
X441300Y-940627D01*
X480806Y-968498D01*
X525148Y-987767D01*
X572479Y-997633D01*
X620827Y-997684D01*
X668178Y-987917D01*
X712561Y-968741D01*
X752125Y-940953D01*
X785225Y-905711D01*
X810480Y-864484D01*
X826838Y-818987D01*
X833619Y-771117D01*
X830540Y-722867D01*
X817729Y-676247D01*
X795720Y-633199D01*
X765430Y-595516D01*
X728119Y-564767D01*
X685343Y-542234D01*
X638883Y-528855D01*
X614873Y-525788D01*
Y-525788D01*
X580908Y-365112D01*
X865899Y-307129D01*
X882843Y-390188D01*
X838290Y-399640D01*
X828543Y-393961D01*
X807083Y-387198D01*
X784584Y-386997D01*
X763008Y-393376D01*
X744234Y-405777D01*
X729901Y-423121D01*
X721258Y-443894D01*
X719057Y-466286D01*
X723492Y-488344D01*
X734176Y-508146D01*
X750176Y-523964D01*
X770099Y-534420D01*
X792206Y-538602D01*
X814572Y-536146D01*
X835245Y-527265D01*
X852423Y-512735D01*
X859218Y-503730D01*
X859218Y-503729D01*
X905356Y-494473D01*
X985366Y-887736D01*
X984122Y-887990D01*
X939569Y-897441D01*
X927617Y-890732D01*
X901107Y-884205D01*
X873998Y-887441D01*
X849770Y-900026D01*
X831533Y-920343D01*
X821628Y-945785D01*
X821327Y-973085D01*
X830668Y-998739D01*
X838625Y-1009899D01*
Y-1009899D01*
X847661Y-1051605D01*
X847633Y-1051611D01*
X476489Y-1125825D01*
D02*
G37*
D31*
X549051Y-526790D02*
D03*
D32*
X-549044Y-526791D02*
D03*
%TF.MD5,ab0f9e784b1abc8470f7ececca733de4*%
M02*
