%TF.GenerationSoftware,Altium Limited,Altium Designer,25.2.1 (25)*%
G04 Layer_Color=65535*
%FSLAX45Y45*%
%MOMM*%
%TF.SameCoordinates,590976A8-7F7F-4D3C-81A5-A8EF51F60ECE*%
%TF.FilePolarity,Positive*%
%TF.FileFunction,Legend,Top*%
%TF.Part,Single*%
G01*
G75*
%TA.AperFunction,NonConductor*%
%ADD22C,0.15240*%
%ADD23C,0.12700*%
D22*
X386589Y-485968D02*
X477117Y-467550D01*
X260636Y-676262D02*
X320868Y-972311D01*
X592110Y-444154D02*
X682638Y-425736D01*
X872932Y-551689D02*
X933164Y-847738D01*
X511162Y-1098264D02*
X807211Y-1038032D01*
X-682638Y-425736D02*
X-592110Y-444154D01*
X-933164Y-847738D02*
X-872932Y-551689D01*
X-477117Y-467550D02*
X-386589Y-485968D01*
X-320868Y-972311D02*
X-260636Y-676262D01*
X-807211Y-1038032D02*
X-511162Y-1098264D01*
D23*
X1206475Y-419083D02*
Y-393692D01*
Y-406388D01*
X1142996D01*
X1130300Y-393692D01*
Y-380996D01*
X1142996Y-368300D01*
X1130300Y-444475D02*
X1181083D01*
X1206475Y-469867D01*
X1181083Y-495259D01*
X1130300D01*
X1168388D01*
Y-444475D01*
X1206475Y-520651D02*
X1130300D01*
X1155692Y-546043D01*
X1130300Y-571434D01*
X1206475D01*
X1193779Y-647610D02*
X1206475Y-634914D01*
Y-609522D01*
X1193779Y-596826D01*
X1181083D01*
X1168388Y-609522D01*
Y-634914D01*
X1155692Y-647610D01*
X1142996D01*
X1130300Y-634914D01*
Y-609522D01*
X1142996Y-596826D01*
X1130300Y-749177D02*
X1206475D01*
Y-787265D01*
X1193779Y-799960D01*
X1168388D01*
X1155692Y-787265D01*
Y-749177D01*
Y-774569D02*
X1130300Y-799960D01*
X1206475Y-876136D02*
Y-825352D01*
X1168388D01*
Y-850744D01*
Y-825352D01*
X1130300D01*
X-1213222Y-775170D02*
X-1225918Y-787865D01*
Y-813257D01*
X-1213222Y-825953D01*
X-1162438D01*
X-1149742Y-813257D01*
Y-787865D01*
X-1162438Y-775170D01*
X-1213222Y-698994D02*
X-1225918Y-711690D01*
Y-737082D01*
X-1213222Y-749778D01*
X-1162438D01*
X-1149742Y-737082D01*
Y-711690D01*
X-1162438Y-698994D01*
X-1175134Y-673602D02*
Y-622819D01*
X-1200526Y-673602D02*
Y-622819D01*
X-1213222Y-597427D02*
X-1225918Y-584731D01*
Y-559339D01*
X-1213222Y-546644D01*
X-1200526D01*
X-1187830Y-559339D01*
Y-572035D01*
Y-559339D01*
X-1175134Y-546644D01*
X-1162438D01*
X-1149742Y-559339D01*
Y-584731D01*
X-1162438Y-597427D01*
X-1149742Y-521252D02*
Y-495860D01*
Y-508556D01*
X-1225918D01*
X-1213222Y-521252D01*
X-1149742Y-457772D02*
X-1200526D01*
Y-445076D01*
X-1187830Y-432380D01*
X-1149742D01*
X-1187830D01*
X-1200526Y-419684D01*
X-1187830Y-406989D01*
X-1149742D01*
Y-381597D02*
Y-356205D01*
Y-368901D01*
X-1200526D01*
Y-381597D01*
X-1149742Y-318117D02*
Y-292726D01*
Y-305422D01*
X-1225918D01*
Y-318117D01*
X-1081134Y-784059D02*
X-1093830Y-796755D01*
Y-822147D01*
X-1081134Y-834843D01*
X-1030350D01*
X-1017654Y-822147D01*
Y-796755D01*
X-1030350Y-784059D01*
X-1055742D01*
Y-809451D01*
X-1068438Y-745972D02*
Y-720580D01*
X-1055742Y-707884D01*
X-1017654D01*
Y-745972D01*
X-1030350Y-758668D01*
X-1043046Y-745972D01*
Y-707884D01*
X-992262Y-682492D02*
X-1068438D01*
Y-644404D01*
X-1055742Y-631709D01*
X-1030350D01*
X-1017654Y-644404D01*
Y-682492D01*
X-1043046Y-606317D02*
Y-555533D01*
X-1068438Y-606317D02*
Y-555533D01*
X-1017654Y-530141D02*
Y-504750D01*
Y-517445D01*
X-1093830D01*
X-1081134Y-530141D01*
Y-466662D02*
X-1093830Y-453966D01*
Y-428574D01*
X-1081134Y-415879D01*
X-1030350D01*
X-1017654Y-428574D01*
Y-453966D01*
X-1030350Y-466662D01*
X-1081134D01*
X-1017654Y-390487D02*
X-1068438D01*
Y-377791D01*
X-1055742Y-365095D01*
X-1017654D01*
X-1055742D01*
X-1068438Y-352399D01*
X-1055742Y-339703D01*
X-1017654D01*
Y-314311D02*
Y-288919D01*
Y-301615D01*
X-1068438D01*
Y-314311D01*
X-1017654Y-250832D02*
Y-225440D01*
Y-238136D01*
X-1093830D01*
Y-250832D01*
X1003300Y-469900D02*
X1079475D01*
Y-507988D01*
X1066779Y-520683D01*
X1041388D01*
X1028692Y-507988D01*
Y-469900D01*
Y-495292D02*
X1003300Y-520683D01*
X1079475Y-596859D02*
X1066779Y-571467D01*
X1041388Y-546075D01*
X1015996D01*
X1003300Y-558771D01*
Y-584163D01*
X1015996Y-596859D01*
X1028692D01*
X1041388Y-584163D01*
Y-546075D01*
X1003300Y-622251D02*
X1015996D01*
Y-634947D01*
X1003300D01*
Y-622251D01*
X1066779Y-685730D02*
X1079475Y-698426D01*
Y-723818D01*
X1066779Y-736514D01*
X1015996D01*
X1003300Y-723818D01*
Y-698426D01*
X1015996Y-685730D01*
X1066779D01*
X1003300Y-761906D02*
X1054083D01*
X1079475Y-787297D01*
X1054083Y-812689D01*
X1003300D01*
X1041388D01*
Y-761906D01*
%TF.MD5,d239957e9563c76c8f7d7120197cbffa*%
M02*
