%TF.GenerationSoftware,Altium Limited,Altium Designer,25.2.1 (25)*%
G04 Layer_Physical_Order=2*
G04 Layer_Color=13010237*
%FSLAX45Y45*%
%MOMM*%
%TF.SameCoordinates,590976A8-7F7F-4D3C-81A5-A8EF51F60ECE*%
%TF.FilePolarity,Positive*%
%TF.FileFunction,Copper,L2,Bot,Signal*%
%TF.Part,Single*%
G01*
G75*
%TA.AperFunction,ComponentPad*%
%ADD17C,1.19380*%
%ADD18C,1.70180*%
%TA.AperFunction,WasherPad*%
%ADD19C,1.52400*%
%ADD20C,5.68960*%
%TA.AperFunction,ViaPad*%
%ADD21C,0.38100*%
G36*
X1244600Y-1172210D02*
X-1244600D01*
Y1193800D01*
X1244600D01*
Y-1172210D01*
D02*
G37*
%LPC*%
G36*
X940066Y981641D02*
X895288D01*
X851061Y974636D01*
X808474Y960799D01*
X768577Y940470D01*
X732350Y914150D01*
X700687Y882487D01*
X674367Y846261D01*
X654039Y806363D01*
X640201Y763777D01*
X633197Y719550D01*
Y674772D01*
X640201Y630545D01*
X654039Y587958D01*
X674367Y548061D01*
X700687Y511835D01*
X732350Y480172D01*
X768577Y453852D01*
X808474Y433523D01*
X851061Y419686D01*
X895288Y412681D01*
X940066D01*
X984292Y419686D01*
X1026879Y433523D01*
X1066777Y453852D01*
X1103003Y480172D01*
X1134666Y511835D01*
X1160986Y548061D01*
X1181314Y587958D01*
X1195152Y630545D01*
X1202157Y674772D01*
Y719550D01*
X1195152Y763777D01*
X1181314Y806363D01*
X1160986Y846261D01*
X1134666Y882487D01*
X1103003Y914150D01*
X1066777Y940470D01*
X1026879Y960799D01*
X984292Y974636D01*
X940066Y981641D01*
D02*
G37*
G36*
X-893814D02*
X-938592D01*
X-982819Y974636D01*
X-1025406Y960799D01*
X-1065303Y940470D01*
X-1101530Y914150D01*
X-1133193Y882487D01*
X-1159513Y846261D01*
X-1179841Y806363D01*
X-1193679Y763777D01*
X-1200683Y719550D01*
Y674772D01*
X-1193679Y630545D01*
X-1179841Y587958D01*
X-1159513Y548061D01*
X-1133193Y511835D01*
X-1101530Y480172D01*
X-1065303Y453852D01*
X-1025406Y433523D01*
X-982819Y419686D01*
X-938592Y412681D01*
X-893814D01*
X-849588Y419686D01*
X-807001Y433523D01*
X-767103Y453852D01*
X-730877Y480172D01*
X-699214Y511835D01*
X-672894Y548061D01*
X-652566Y587958D01*
X-638728Y630545D01*
X-631723Y674772D01*
Y719550D01*
X-638728Y763777D01*
X-652566Y806363D01*
X-672894Y846261D01*
X-699214Y882487D01*
X-730877Y914150D01*
X-767103Y940470D01*
X-807001Y960799D01*
X-849588Y974636D01*
X-893814Y981641D01*
D02*
G37*
G36*
X1059454Y151130D02*
X1036046D01*
X1013436Y145072D01*
X993164Y133368D01*
X976612Y116816D01*
X964908Y96544D01*
X958850Y73934D01*
Y50526D01*
X964908Y27916D01*
X976612Y7644D01*
X993164Y-8908D01*
X1013436Y-20612D01*
X1036046Y-26670D01*
X1059454D01*
X1082064Y-20612D01*
X1102336Y-8908D01*
X1118888Y7644D01*
X1130592Y27916D01*
X1136650Y50526D01*
Y73934D01*
X1130592Y96544D01*
X1118888Y116816D01*
X1102336Y133368D01*
X1082064Y145072D01*
X1059454Y151130D01*
D02*
G37*
G36*
X-1036046D02*
X-1059454D01*
X-1082064Y145072D01*
X-1102336Y133368D01*
X-1118888Y116816D01*
X-1130592Y96544D01*
X-1136650Y73934D01*
Y50526D01*
X-1130592Y27916D01*
X-1118888Y7644D01*
X-1102336Y-8908D01*
X-1082064Y-20612D01*
X-1059454Y-26670D01*
X-1036046D01*
X-1013436Y-20612D01*
X-993164Y-8908D01*
X-976612Y7644D01*
X-964908Y27916D01*
X-958850Y50526D01*
Y73934D01*
X-964908Y96544D01*
X-976612Y116816D01*
X-993164Y133368D01*
X-1013436Y145072D01*
X-1036046Y151130D01*
D02*
G37*
G36*
X-606644Y-395836D02*
X-634235Y-529684D01*
X-657393Y-533406D01*
X-701327Y-549845D01*
X-741151Y-574633D01*
X-775299Y-606795D01*
X-802426Y-645065D01*
X-821465Y-687937D01*
X-831666Y-733723D01*
X-832629Y-780622D01*
X-824314Y-826788D01*
X-807050Y-870405D01*
X-781516Y-909755D01*
X-748717Y-943291D01*
X-709943Y-969692D01*
X-666720Y-987920D01*
X-620750Y-997257D01*
X-573841Y-997336D01*
X-527840Y-988153D01*
X-484556Y-970071D01*
X-445694Y-943800D01*
X-412782Y-910375D01*
X-387116Y-871111D01*
X-369705Y-827552D01*
X-361236Y-781414D01*
X-362040Y-734512D01*
X-372088Y-688692D01*
X-390982Y-645757D01*
X-417981Y-607396D01*
X-452020Y-575120D01*
X-471890Y-562659D01*
X-471951Y-561914D01*
X-444859Y-428752D01*
X-606644Y-395836D01*
D02*
G37*
G36*
X606644D02*
X444859Y-428752D01*
X471760Y-562740D01*
X451897Y-575214D01*
X417879Y-607513D01*
X390906Y-645892D01*
X372040Y-688839D01*
X362022Y-734666D01*
X361248Y-781569D01*
X369748Y-827701D01*
X387187Y-871248D01*
X412879Y-910496D01*
X445813Y-943899D01*
X484692Y-970145D01*
X527988Y-988199D01*
X573995Y-997351D01*
X620904Y-997241D01*
X666868Y-987874D01*
X710079Y-969618D01*
X748835Y-943191D01*
X781613Y-909634D01*
X807121Y-870267D01*
X824356Y-826639D01*
X832640Y-780467D01*
X831647Y-733569D01*
X821416Y-687789D01*
X802349Y-644930D01*
X775197Y-606678D01*
X741028Y-574539D01*
X701187Y-549777D01*
X657243Y-533366D01*
X634083Y-529660D01*
X634083Y-529660D01*
D01*
X631504Y-518028D01*
X606644Y-395836D01*
D02*
G37*
G36*
X1149624Y-947420D02*
X1126216D01*
X1103606Y-953478D01*
X1083334Y-965182D01*
X1066782Y-981734D01*
X1055078Y-1002006D01*
X1049020Y-1024616D01*
Y-1048024D01*
X1055078Y-1070634D01*
X1066782Y-1090906D01*
X1083334Y-1107458D01*
X1103606Y-1119162D01*
X1126216Y-1125220D01*
X1149624D01*
X1172234Y-1119162D01*
X1192506Y-1107458D01*
X1209058Y-1090906D01*
X1220762Y-1070634D01*
X1226820Y-1048024D01*
Y-1024616D01*
X1220762Y-1002006D01*
X1209058Y-981734D01*
X1192506Y-965182D01*
X1172234Y-953478D01*
X1149624Y-947420D01*
D02*
G37*
G36*
X-1126216D02*
X-1149624D01*
X-1172234Y-953478D01*
X-1192506Y-965182D01*
X-1209058Y-981734D01*
X-1220762Y-1002006D01*
X-1226820Y-1024616D01*
Y-1048024D01*
X-1220762Y-1070634D01*
X-1209058Y-1090906D01*
X-1192506Y-1107458D01*
X-1172234Y-1119162D01*
X-1149624Y-1125220D01*
X-1126216D01*
X-1103606Y-1119162D01*
X-1083334Y-1107458D01*
X-1066782Y-1090906D01*
X-1055078Y-1070634D01*
X-1049020Y-1048024D01*
Y-1024616D01*
X-1055078Y-1002006D01*
X-1066782Y-981734D01*
X-1083334Y-965182D01*
X-1103606Y-953478D01*
X-1126216Y-947420D01*
D02*
G37*
G36*
X16620Y-915739D02*
X-15147D01*
X-45833Y-923961D01*
X-73344Y-939845D01*
X-95808Y-962308D01*
X-111691Y-989820D01*
X-119913Y-1020505D01*
Y-1052273D01*
X-111691Y-1082958D01*
X-95808Y-1110470D01*
X-73344Y-1132933D01*
X-45833Y-1148817D01*
X-15147Y-1157039D01*
X16620D01*
X47306Y-1148817D01*
X74817Y-1132933D01*
X97281Y-1110470D01*
X113165Y-1082958D01*
X121387Y-1052273D01*
Y-1020505D01*
X113165Y-989820D01*
X97281Y-962308D01*
X74817Y-939845D01*
X47306Y-923961D01*
X16620Y-915739D01*
D02*
G37*
%LPD*%
D17*
X596900Y-762000D02*
D03*
X-596900D02*
D03*
D18*
X896440Y-960261D02*
D03*
X398639Y-1061540D02*
D03*
X795161Y-462460D02*
D03*
X297360Y-563739D02*
D03*
X-398639Y-1061540D02*
D03*
X-896440Y-960261D02*
D03*
X-297360Y-563739D02*
D03*
X-795161Y-462460D02*
D03*
D19*
X1137920Y-1036320D02*
D03*
X-1137920D02*
D03*
X737Y-1036389D02*
D03*
X1047750Y62230D02*
D03*
X-1047750D02*
D03*
D20*
X917677Y697161D02*
D03*
X-916203D02*
D03*
D21*
X651812Y-496809D02*
D03*
X755089Y-545781D02*
D03*
X833098Y-636184D02*
D03*
X863859Y-749159D02*
D03*
X844334Y-869773D02*
D03*
X758995Y-972673D02*
D03*
X440752Y-542341D02*
D03*
X364314Y-625286D02*
D03*
X327829Y-738982D02*
D03*
X343656Y-854995D02*
D03*
X411246Y-957886D02*
D03*
X522540Y-1020780D02*
D03*
X650578Y-1025835D02*
D03*
X-442735Y-539346D02*
D03*
X-366803Y-624779D02*
D03*
X-330318Y-738476D02*
D03*
X-346145Y-854489D02*
D03*
X-411246Y-957886D02*
D03*
X-530007Y-1019261D02*
D03*
X-654807Y-498791D02*
D03*
X-757578Y-545275D02*
D03*
X-835587Y-635677D02*
D03*
X-866348Y-748653D02*
D03*
X-844334Y-869773D02*
D03*
X-766463Y-971154D02*
D03*
X-650578Y-1025835D02*
D03*
X419100Y-441960D02*
D03*
X629920Y-396240D02*
D03*
X-629920D02*
D03*
X-419100Y-439420D02*
D03*
X-396240Y-332740D02*
D03*
X-609600Y-289560D02*
D03*
X327951Y1101388D02*
D03*
X348207Y1001828D02*
D03*
X115141Y1058092D02*
D03*
X135396Y958531D02*
D03*
X469742Y404466D02*
D03*
X216420Y560290D02*
D03*
X256931Y361169D02*
D03*
X236675Y460729D02*
D03*
X429230Y603587D02*
D03*
X449486Y504026D02*
D03*
X510253Y205345D02*
D03*
X550764Y6224D02*
D03*
X591276Y-192896D02*
D03*
X398722Y-335753D02*
D03*
X611532Y-292457D02*
D03*
X378466Y-236193D02*
D03*
X337954Y-37072D02*
D03*
X571020Y-93336D02*
D03*
X358210Y-136633D02*
D03*
X317698Y62488D02*
D03*
X297443Y162048D02*
D03*
X155652Y858971D02*
D03*
X530509Y105785D02*
D03*
X277187Y261609D02*
D03*
X489997Y304905D02*
D03*
X196164Y659850D02*
D03*
X368463Y902267D02*
D03*
X175908Y759410D02*
D03*
X408974Y703147D02*
D03*
X388718Y802707D02*
D03*
X-349451Y1002081D02*
D03*
X-329195Y1101641D02*
D03*
X-197408Y660103D02*
D03*
X-278431Y261862D02*
D03*
X-298687Y162302D02*
D03*
X-318943Y62741D02*
D03*
X-339199Y-36819D02*
D03*
X-258176Y361422D02*
D03*
X-217664Y560543D02*
D03*
X-237920Y460983D02*
D03*
X-379710Y-235940D02*
D03*
X-359454Y-136379D02*
D03*
X-572265Y-93083D02*
D03*
X-592521Y-192643D02*
D03*
X-450730Y504279D02*
D03*
X-430474Y603840D02*
D03*
X-410219Y703400D02*
D03*
X-389963Y802960D02*
D03*
X-369707Y902521D02*
D03*
X-470986Y404719D02*
D03*
X-491242Y305159D02*
D03*
X-511497Y205598D02*
D03*
X-552009Y6478D02*
D03*
X-531753Y106038D02*
D03*
X-177153Y759664D02*
D03*
X-156897Y859224D02*
D03*
X-136641Y958784D02*
D03*
X-116385Y1058345D02*
D03*
%TF.MD5,fb51b0f197a02557c2d56c9323d63827*%
M02*
