%TF.GenerationSoftware,Altium Limited,Altium Designer,25.2.1 (25)*%
G04 Layer_Color=16711935*
%FSLAX45Y45*%
%MOMM*%
%TF.SameCoordinates,92CBB395-8F7F-4B08-965E-B008E8AD18C6*%
%TF.FilePolarity,Positive*%
%TF.FileFunction,Other,Mechanical_1*%
%TF.Part,Single*%
G01*
G75*
%TA.AperFunction,NonConductor*%
%ADD33C,0.25400*%
D33*
X2297397Y2182591D02*
X2195830D01*
X2297397Y2284158D01*
Y2309549D01*
X2272005Y2334941D01*
X2221222D01*
X2195830Y2309549D01*
X2500531Y2334941D02*
Y2182591D01*
X2602099D01*
X2678274Y2284158D02*
X2729058D01*
X2754449Y2258766D01*
Y2182591D01*
X2678274D01*
X2652882Y2207982D01*
X2678274Y2233374D01*
X2754449D01*
X2805233Y2284158D02*
Y2207982D01*
X2830625Y2182591D01*
X2906800D01*
Y2157199D01*
X2881408Y2131807D01*
X2856016D01*
X2906800Y2182591D02*
Y2284158D01*
X3033759Y2182591D02*
X2982975D01*
X2957584Y2207982D01*
Y2258766D01*
X2982975Y2284158D01*
X3033759D01*
X3059151Y2258766D01*
Y2233374D01*
X2957584D01*
X3109934Y2284158D02*
Y2182591D01*
Y2233374D01*
X3135326Y2258766D01*
X3160718Y2284158D01*
X3186110D01*
X3262285Y2182591D02*
X3338460D01*
X3363852Y2207982D01*
X3338460Y2233374D01*
X3287677D01*
X3262285Y2258766D01*
X3287677Y2284158D01*
X3363852D01*
X2195830Y1888026D02*
Y2040377D01*
X2272005D01*
X2297397Y2014985D01*
Y1964202D01*
X2272005Y1938810D01*
X2195830D01*
X2246613D02*
X2297397Y1888026D01*
X2424356Y2040377D02*
X2373573D01*
X2348181Y2014985D01*
Y1913418D01*
X2373573Y1888026D01*
X2424356D01*
X2449748Y1913418D01*
Y2014985D01*
X2424356Y2040377D01*
X2576707Y1888026D02*
Y2040377D01*
X2500531Y1964202D01*
X2602099D01*
X2652882Y2014985D02*
X2678274Y2040377D01*
X2729058D01*
X2754449Y2014985D01*
Y1989593D01*
X2729058Y1964202D01*
X2703666D01*
X2729058D01*
X2754449Y1938810D01*
Y1913418D01*
X2729058Y1888026D01*
X2678274D01*
X2652882Y1913418D01*
X2906800Y2040377D02*
X2805233D01*
Y1964202D01*
X2856016Y1989593D01*
X2881408D01*
X2906800Y1964202D01*
Y1913418D01*
X2881408Y1888026D01*
X2830625D01*
X2805233Y1913418D01*
X2957584Y2014985D02*
X2982975Y2040377D01*
X3033759D01*
X3059151Y2014985D01*
Y1913418D01*
X3033759Y1888026D01*
X2982975D01*
X2957584Y1913418D01*
Y2014985D01*
X3109934Y2040377D02*
Y1888026D01*
X3186110D01*
X3211502Y1913418D01*
Y1938810D01*
Y1964202D01*
X3186110Y1989593D01*
X3109934D01*
X3516203Y1888026D02*
X3414636D01*
X3516203Y1989593D01*
Y2014985D01*
X3490811Y2040377D01*
X3440028D01*
X3414636Y2014985D01*
X3566987D02*
X3592378Y2040377D01*
X3643162D01*
X3668554Y2014985D01*
Y1913418D01*
X3643162Y1888026D01*
X3592378D01*
X3566987Y1913418D01*
Y2014985D01*
X3871688Y1888026D02*
Y1989593D01*
X3897080D01*
X3922471Y1964202D01*
Y1888026D01*
Y1964202D01*
X3947863Y1989593D01*
X3973255Y1964202D01*
Y1888026D01*
X4024039D02*
X4074822D01*
X4049431D01*
Y1989593D01*
X4024039D01*
X4150998Y1888026D02*
X4201781D01*
X4176389D01*
Y2040377D01*
X4150998D01*
X4430307Y1888026D02*
X4506482D01*
X4531874Y1913418D01*
X4506482Y1938810D01*
X4455699D01*
X4430307Y1964202D01*
X4455699Y1989593D01*
X4531874D01*
X4608050Y2014985D02*
Y1989593D01*
X4582658D01*
X4633441D01*
X4608050D01*
Y1913418D01*
X4633441Y1888026D01*
X4735009Y1989593D02*
X4785792D01*
X4811184Y1964202D01*
Y1888026D01*
X4735009D01*
X4709617Y1913418D01*
X4735009Y1938810D01*
X4811184D01*
X4963535Y1989593D02*
X4887359D01*
X4861967Y1964202D01*
Y1913418D01*
X4887359Y1888026D01*
X4963535D01*
X5014318D02*
Y2040377D01*
Y1938810D02*
X5090494Y1989593D01*
X5014318Y1938810D02*
X5090494Y1888026D01*
X5319020Y1989593D02*
Y1913418D01*
X5344411Y1888026D01*
X5420587D01*
Y1989593D01*
X5471370Y1837243D02*
Y1989593D01*
X5547546D01*
X5572938Y1964202D01*
Y1913418D01*
X5547546Y1888026D01*
X5471370D01*
X2297397Y1745813D02*
X2195830D01*
Y1669637D01*
X2246613D01*
X2195830D01*
Y1593462D01*
X2348181D02*
X2398964D01*
X2373573D01*
Y1695029D01*
X2348181D01*
X2475140Y1593462D02*
Y1695029D01*
X2551315D01*
X2576707Y1669637D01*
Y1593462D01*
X2627490D02*
X2678274D01*
X2652882D01*
Y1695029D01*
X2627490D01*
X2754449Y1593462D02*
X2830625D01*
X2856016Y1618854D01*
X2830625Y1644245D01*
X2779841D01*
X2754449Y1669637D01*
X2779841Y1695029D01*
X2856016D01*
X2906800Y1745813D02*
Y1593462D01*
Y1669637D01*
X2932192Y1695029D01*
X2982975D01*
X3008367Y1669637D01*
Y1593462D01*
X3135326D02*
X3084542D01*
X3059151Y1618854D01*
Y1669637D01*
X3084542Y1695029D01*
X3135326D01*
X3160718Y1669637D01*
Y1644245D01*
X3059151D01*
X3313069Y1745813D02*
Y1593462D01*
X3236893D01*
X3211501Y1618854D01*
Y1669637D01*
X3236893Y1695029D01*
X3313069D01*
X3541595Y1720421D02*
Y1695029D01*
X3516203D01*
X3566986D01*
X3541595D01*
Y1618854D01*
X3566986Y1593462D01*
X3643162Y1745813D02*
Y1593462D01*
Y1669637D01*
X3668553Y1695029D01*
X3719337D01*
X3744729Y1669637D01*
Y1593462D01*
X3795512D02*
X3846296D01*
X3820904D01*
Y1695029D01*
X3795512D01*
X4024038D02*
X3947863D01*
X3922471Y1669637D01*
Y1618854D01*
X3947863Y1593462D01*
X4024038D01*
X4074822D02*
Y1745813D01*
Y1644245D02*
X4150997Y1695029D01*
X4074822Y1644245D02*
X4150997Y1593462D01*
X4227173D02*
Y1695029D01*
X4303348D01*
X4328740Y1669637D01*
Y1593462D01*
X4455699D02*
X4404915D01*
X4379523Y1618854D01*
Y1669637D01*
X4404915Y1695029D01*
X4455699D01*
X4481091Y1669637D01*
Y1644245D01*
X4379523D01*
X4531874Y1593462D02*
X4608049D01*
X4633441Y1618854D01*
X4608049Y1644245D01*
X4557266D01*
X4531874Y1669637D01*
X4557266Y1695029D01*
X4633441D01*
X4684225Y1593462D02*
X4760400D01*
X4785792Y1618854D01*
X4760400Y1644245D01*
X4709617D01*
X4684225Y1669637D01*
X4709617Y1695029D01*
X4785792D01*
X5141277Y1720421D02*
X5166669Y1745813D01*
X5217452D01*
X5242844Y1720421D01*
Y1618854D01*
X5217452Y1593462D01*
X5166669D01*
X5141277Y1618854D01*
Y1720421D01*
X5293628Y1593462D02*
Y1618854D01*
X5319020D01*
Y1593462D01*
X5293628D01*
X5522154Y1745813D02*
X5420587D01*
Y1669637D01*
X5471370Y1695029D01*
X5496762D01*
X5522154Y1669637D01*
Y1618854D01*
X5496762Y1593462D01*
X5445978D01*
X5420587Y1618854D01*
X5572937Y1720421D02*
X5598329Y1745813D01*
X5649113D01*
X5674505Y1720421D01*
Y1618854D01*
X5649113Y1593462D01*
X5598329D01*
X5572937Y1618854D01*
Y1720421D01*
X5725288D02*
X5750680Y1745813D01*
X5801463D01*
X5826855Y1720421D01*
Y1695029D01*
X5801463Y1669637D01*
X5826855Y1644245D01*
Y1618854D01*
X5801463Y1593462D01*
X5750680D01*
X5725288Y1618854D01*
Y1644245D01*
X5750680Y1669637D01*
X5725288Y1695029D01*
Y1720421D01*
X5750680Y1669637D02*
X5801463D01*
X6029989Y1593462D02*
Y1695029D01*
X6055381D01*
X6080773Y1669637D01*
Y1593462D01*
Y1669637D01*
X6106165Y1695029D01*
X6131557Y1669637D01*
Y1593462D01*
X6182340D02*
Y1695029D01*
X6207732D01*
X6233124Y1669637D01*
Y1593462D01*
Y1669637D01*
X6258516Y1695029D01*
X6283907Y1669637D01*
Y1593462D01*
X2195830Y1349681D02*
X2246613D01*
X2221222D01*
Y1502032D01*
X2195830Y1476640D01*
X2348181Y1349681D02*
X2398964D01*
X2424356Y1375073D01*
Y1425856D01*
X2398964Y1451248D01*
X2348181D01*
X2322789Y1425856D01*
Y1375073D01*
X2348181Y1349681D01*
X2475140Y1451248D02*
X2576707D01*
X2475140Y1349681D01*
X2576707D01*
X2881408Y1451248D02*
X2805233D01*
X2779841Y1425856D01*
Y1375073D01*
X2805233Y1349681D01*
X2881408D01*
X2957584D02*
X3008367D01*
X3033759Y1375073D01*
Y1425856D01*
X3008367Y1451248D01*
X2957584D01*
X2932192Y1425856D01*
Y1375073D01*
X2957584Y1349681D01*
X3084542Y1298898D02*
Y1451248D01*
X3160718D01*
X3186110Y1425856D01*
Y1375073D01*
X3160718Y1349681D01*
X3084542D01*
X3236893Y1298898D02*
Y1451248D01*
X3313069D01*
X3338460Y1425856D01*
Y1375073D01*
X3313069Y1349681D01*
X3236893D01*
X3465419D02*
X3414636D01*
X3389244Y1375073D01*
Y1425856D01*
X3414636Y1451248D01*
X3465419D01*
X3490811Y1425856D01*
Y1400465D01*
X3389244D01*
X3541595Y1451248D02*
Y1349681D01*
Y1400465D01*
X3566987Y1425856D01*
X3592378Y1451248D01*
X3617770D01*
X3871688Y1349681D02*
X3922471D01*
X3947863Y1375073D01*
Y1425856D01*
X3922471Y1451248D01*
X3871688D01*
X3846296Y1425856D01*
Y1375073D01*
X3871688Y1349681D01*
X3998647Y1451248D02*
Y1375073D01*
X4024039Y1349681D01*
X4100214D01*
Y1451248D01*
X4176389Y1476640D02*
Y1451248D01*
X4150998D01*
X4201781D01*
X4176389D01*
Y1375073D01*
X4201781Y1349681D01*
X4354132D02*
X4303348D01*
X4277956Y1375073D01*
Y1425856D01*
X4303348Y1451248D01*
X4354132D01*
X4379524Y1425856D01*
Y1400465D01*
X4277956D01*
X4430307Y1451248D02*
Y1349681D01*
Y1400465D01*
X4455699Y1425856D01*
X4481091Y1451248D01*
X4506482D01*
X4735009Y1349681D02*
X4785792D01*
X4760400D01*
Y1502032D01*
X4735009D01*
X4887359Y1451248D02*
X4938143D01*
X4963535Y1425856D01*
Y1349681D01*
X4887359D01*
X4861967Y1375073D01*
X4887359Y1400465D01*
X4963535D01*
X5014318Y1451248D02*
Y1375073D01*
X5039710Y1349681D01*
X5115885D01*
Y1324289D01*
X5090494Y1298898D01*
X5065102D01*
X5115885Y1349681D02*
Y1451248D01*
X5242844Y1349681D02*
X5192061D01*
X5166669Y1375073D01*
Y1425856D01*
X5192061Y1451248D01*
X5242844D01*
X5268236Y1425856D01*
Y1400465D01*
X5166669D01*
X5319020Y1451248D02*
Y1349681D01*
Y1400465D01*
X5344411Y1425856D01*
X5369803Y1451248D01*
X5395195D01*
X2297397Y1182076D02*
X2272005Y1207467D01*
X2221222D01*
X2195830Y1182076D01*
Y1156684D01*
X2221222Y1131292D01*
X2272005D01*
X2297397Y1105900D01*
Y1080509D01*
X2272005Y1055117D01*
X2221222D01*
X2195830Y1080509D01*
X2373573Y1055117D02*
X2424356D01*
X2449748Y1080509D01*
Y1131292D01*
X2424356Y1156684D01*
X2373573D01*
X2348181Y1131292D01*
Y1080509D01*
X2373573Y1055117D01*
X2500531D02*
X2551315D01*
X2525923D01*
Y1207467D01*
X2500531D01*
X2729058D02*
Y1055117D01*
X2652882D01*
X2627490Y1080509D01*
Y1131292D01*
X2652882Y1156684D01*
X2729058D01*
X2856016Y1055117D02*
X2805233D01*
X2779841Y1080509D01*
Y1131292D01*
X2805233Y1156684D01*
X2856016D01*
X2881408Y1131292D01*
Y1105900D01*
X2779841D01*
X2932192Y1156684D02*
Y1055117D01*
Y1105900D01*
X2957584Y1131292D01*
X2982975Y1156684D01*
X3008367D01*
X3084542Y1055117D02*
Y1156684D01*
X3109934D01*
X3135326Y1131292D01*
Y1055117D01*
Y1131292D01*
X3160718Y1156684D01*
X3186110Y1131292D01*
Y1055117D01*
X3262285Y1156684D02*
X3313069D01*
X3338460Y1131292D01*
Y1055117D01*
X3262285D01*
X3236893Y1080509D01*
X3262285Y1105900D01*
X3338460D01*
X3389244Y1055117D02*
X3465419D01*
X3490811Y1080509D01*
X3465419Y1105900D01*
X3414636D01*
X3389244Y1131292D01*
X3414636Y1156684D01*
X3490811D01*
X3541595Y1055117D02*
Y1207467D01*
Y1105900D02*
X3617770Y1156684D01*
X3541595Y1105900D02*
X3617770Y1055117D01*
X3871688Y1182076D02*
Y1156684D01*
X3846296D01*
X3897080D01*
X3871688D01*
Y1080509D01*
X3897080Y1055117D01*
X3998647D02*
X4049430D01*
X4074822Y1080509D01*
Y1131292D01*
X4049430Y1156684D01*
X3998647D01*
X3973255Y1131292D01*
Y1080509D01*
X3998647Y1055117D01*
X4125606Y1004333D02*
Y1156684D01*
X4201781D01*
X4227173Y1131292D01*
Y1080509D01*
X4201781Y1055117D01*
X4125606D01*
X4277956Y1156684D02*
X4303348D01*
Y1131292D01*
X4277956D01*
Y1156684D01*
Y1080509D02*
X4303348D01*
Y1055117D01*
X4277956D01*
Y1080509D01*
X4608049Y1004333D02*
X4633441D01*
X4658833Y1029725D01*
Y1156684D01*
X4582658D01*
X4557266Y1131292D01*
Y1080509D01*
X4582658Y1055117D01*
X4658833D01*
X4709617Y1156684D02*
Y1055117D01*
Y1105900D01*
X4735009Y1131292D01*
X4760400Y1156684D01*
X4785792D01*
X4938143Y1055117D02*
X4887359D01*
X4861967Y1080509D01*
Y1131292D01*
X4887359Y1156684D01*
X4938143D01*
X4963535Y1131292D01*
Y1105900D01*
X4861967D01*
X5090494Y1055117D02*
X5039710D01*
X5014318Y1080509D01*
Y1131292D01*
X5039710Y1156684D01*
X5090494D01*
X5115885Y1131292D01*
Y1105900D01*
X5014318D01*
X5166669Y1055117D02*
Y1156684D01*
X5242844D01*
X5268236Y1131292D01*
Y1055117D01*
X2297397Y887511D02*
X2272005Y912903D01*
X2221222D01*
X2195830Y887511D01*
Y862120D01*
X2221222Y836728D01*
X2272005D01*
X2297397Y811336D01*
Y785944D01*
X2272005Y760552D01*
X2221222D01*
X2195830Y785944D01*
X2373573Y760552D02*
X2424356D01*
X2449748Y785944D01*
Y836728D01*
X2424356Y862120D01*
X2373573D01*
X2348181Y836728D01*
Y785944D01*
X2373573Y760552D01*
X2500531D02*
X2551315D01*
X2525923D01*
Y912903D01*
X2500531D01*
X2729058D02*
Y760552D01*
X2652882D01*
X2627490Y785944D01*
Y836728D01*
X2652882Y862120D01*
X2729058D01*
X2856016Y760552D02*
X2805233D01*
X2779841Y785944D01*
Y836728D01*
X2805233Y862120D01*
X2856016D01*
X2881408Y836728D01*
Y811336D01*
X2779841D01*
X2932192Y862120D02*
Y760552D01*
Y811336D01*
X2957584Y836728D01*
X2982975Y862120D01*
X3008367D01*
X3084542Y760552D02*
Y862120D01*
X3109934D01*
X3135326Y836728D01*
Y760552D01*
Y836728D01*
X3160718Y862120D01*
X3186110Y836728D01*
Y760552D01*
X3262285Y862120D02*
X3313069D01*
X3338460Y836728D01*
Y760552D01*
X3262285D01*
X3236893Y785944D01*
X3262285Y811336D01*
X3338460D01*
X3389244Y760552D02*
X3465419D01*
X3490811Y785944D01*
X3465419Y811336D01*
X3414636D01*
X3389244Y836728D01*
X3414636Y862120D01*
X3490811D01*
X3541595Y760552D02*
Y912903D01*
Y811336D02*
X3617770Y862120D01*
X3541595Y811336D02*
X3617770Y760552D01*
X3846296Y912903D02*
Y760552D01*
X3922471D01*
X3947863Y785944D01*
Y811336D01*
Y836728D01*
X3922471Y862120D01*
X3846296D01*
X4024039Y760552D02*
X4074822D01*
X4100214Y785944D01*
Y836728D01*
X4074822Y862120D01*
X4024039D01*
X3998647Y836728D01*
Y785944D01*
X4024039Y760552D01*
X4176389Y887511D02*
Y862120D01*
X4150998D01*
X4201781D01*
X4176389D01*
Y785944D01*
X4201781Y760552D01*
X4303348Y887511D02*
Y862120D01*
X4277956D01*
X4328740D01*
X4303348D01*
Y785944D01*
X4328740Y760552D01*
X4430307D02*
X4481091D01*
X4506482Y785944D01*
Y836728D01*
X4481091Y862120D01*
X4430307D01*
X4404915Y836728D01*
Y785944D01*
X4430307Y760552D01*
X4557266D02*
Y862120D01*
X4582658D01*
X4608049Y836728D01*
Y760552D01*
Y836728D01*
X4633441Y862120D01*
X4658833Y836728D01*
Y760552D01*
X4709617Y862120D02*
X4735009D01*
Y836728D01*
X4709617D01*
Y862120D01*
Y785944D02*
X4735009D01*
Y760552D01*
X4709617D01*
Y785944D01*
X4988926Y760552D02*
Y862120D01*
X5065102D01*
X5090494Y836728D01*
Y760552D01*
X5166669D02*
X5217452D01*
X5242844Y785944D01*
Y836728D01*
X5217452Y862120D01*
X5166669D01*
X5141277Y836728D01*
Y785944D01*
X5166669Y760552D01*
X5293628D02*
Y862120D01*
X5369803D01*
X5395195Y836728D01*
Y760552D01*
X5522154D02*
X5471370D01*
X5445978Y785944D01*
Y836728D01*
X5471370Y862120D01*
X5522154D01*
X5547546Y836728D01*
Y811336D01*
X5445978D01*
X2297397Y643730D02*
X2272005Y669122D01*
X2221222D01*
X2195830Y643730D01*
Y618339D01*
X2221222Y592947D01*
X2272005D01*
X2297397Y567555D01*
Y542164D01*
X2272005Y516772D01*
X2221222D01*
X2195830Y542164D01*
X2348181Y516772D02*
X2398964D01*
X2373573D01*
Y618339D01*
X2348181D01*
X2475140Y516772D02*
X2525923D01*
X2500531D01*
Y669122D01*
X2475140D01*
X2602098Y516772D02*
Y669122D01*
Y567555D02*
X2678274Y618339D01*
X2602098Y567555D02*
X2678274Y516772D01*
X2754449D02*
X2830625D01*
X2856016Y542164D01*
X2830625Y567555D01*
X2779841D01*
X2754449Y592947D01*
X2779841Y618339D01*
X2856016D01*
X3008367D02*
X2932192D01*
X2906800Y592947D01*
Y542164D01*
X2932192Y516772D01*
X3008367D01*
X3059151Y618339D02*
Y516772D01*
Y567555D01*
X3084542Y592947D01*
X3109934Y618339D01*
X3135326D01*
X3287677Y516772D02*
X3236893D01*
X3211501Y542164D01*
Y592947D01*
X3236893Y618339D01*
X3287677D01*
X3313069Y592947D01*
Y567555D01*
X3211501D01*
X3440027Y516772D02*
X3389244D01*
X3363852Y542164D01*
Y592947D01*
X3389244Y618339D01*
X3440027D01*
X3465419Y592947D01*
Y567555D01*
X3363852D01*
X3516203Y516772D02*
Y618339D01*
X3592378D01*
X3617770Y592947D01*
Y516772D01*
X3668553Y618339D02*
X3693945D01*
Y592947D01*
X3668553D01*
Y618339D01*
Y542164D02*
X3693945D01*
Y516772D01*
X3668553D01*
Y542164D01*
X3947863Y618339D02*
Y542164D01*
X3973255Y516772D01*
X3998647Y542164D01*
X4024038Y516772D01*
X4049430Y542164D01*
Y618339D01*
X4100214Y669122D02*
Y516772D01*
Y592947D01*
X4125606Y618339D01*
X4176389D01*
X4201781Y592947D01*
Y516772D01*
X4252565D02*
X4303348D01*
X4277956D01*
Y618339D01*
X4252565D01*
X4404915Y643730D02*
Y618339D01*
X4379523D01*
X4430307D01*
X4404915D01*
Y542164D01*
X4430307Y516772D01*
X4582658D02*
X4531874D01*
X4506482Y542164D01*
Y592947D01*
X4531874Y618339D01*
X4582658D01*
X4608049Y592947D01*
Y567555D01*
X4506482D01*
X2297397Y425342D02*
X2195830D01*
Y349166D01*
X2246613D01*
X2195830D01*
Y272991D01*
X2348181D02*
X2398964D01*
X2373573D01*
Y374558D01*
X2348181D01*
X2475140Y272991D02*
Y374558D01*
X2551315D01*
X2576707Y349166D01*
Y272991D01*
X2627490D02*
X2678274D01*
X2652882D01*
Y374558D01*
X2627490D01*
X2754449Y272991D02*
X2830625D01*
X2856016Y298383D01*
X2830625Y323774D01*
X2779841D01*
X2754449Y349166D01*
X2779841Y374558D01*
X2856016D01*
X2906800Y425342D02*
Y272991D01*
Y349166D01*
X2932192Y374558D01*
X2982975D01*
X3008367Y349166D01*
Y272991D01*
X3059151Y374558D02*
X3084542D01*
Y349166D01*
X3059151D01*
Y374558D01*
Y298383D02*
X3084542D01*
Y272991D01*
X3059151D01*
Y298383D01*
X3338460Y425342D02*
X3389244D01*
X3363852D01*
Y272991D01*
X3338460D01*
X3389244D01*
X3465419D02*
Y374558D01*
X3490811D01*
X3516203Y349166D01*
Y272991D01*
Y349166D01*
X3541594Y374558D01*
X3566986Y349166D01*
Y272991D01*
X3617770D02*
Y374558D01*
X3643162D01*
X3668553Y349166D01*
Y272991D01*
Y349166D01*
X3693945Y374558D01*
X3719337Y349166D01*
Y272991D01*
X3846296D02*
X3795512D01*
X3770120Y298383D01*
Y349166D01*
X3795512Y374558D01*
X3846296D01*
X3871688Y349166D01*
Y323774D01*
X3770120D01*
X3922471Y374558D02*
Y272991D01*
Y323774D01*
X3947863Y349166D01*
X3973255Y374558D01*
X3998647D01*
X4074822Y272991D02*
X4150997D01*
X4176389Y298383D01*
X4150997Y323774D01*
X4100214D01*
X4074822Y349166D01*
X4100214Y374558D01*
X4176389D01*
X4227173Y272991D02*
X4277956D01*
X4252565D01*
Y374558D01*
X4227173D01*
X4379523Y272991D02*
X4430307D01*
X4455699Y298383D01*
Y349166D01*
X4430307Y374558D01*
X4379523D01*
X4354131Y349166D01*
Y298383D01*
X4379523Y272991D01*
X4506482D02*
Y374558D01*
X4582658D01*
X4608049Y349166D01*
Y272991D01*
X4811184D02*
Y374558D01*
X4861967Y425342D01*
X4912751Y374558D01*
Y272991D01*
Y349166D01*
X4811184D01*
X4963534Y374558D02*
Y298383D01*
X4988926Y272991D01*
X5065102D01*
Y374558D01*
X2394552Y-604120D02*
X2369160Y-578728D01*
X2318377D01*
X2292985Y-604120D01*
Y-705687D01*
X2318377Y-731079D01*
X2369160D01*
X2394552Y-705687D01*
X2470728Y-731079D02*
X2521511D01*
X2546903Y-705687D01*
Y-654904D01*
X2521511Y-629512D01*
X2470728D01*
X2445336Y-654904D01*
Y-705687D01*
X2470728Y-731079D01*
X2597686D02*
Y-629512D01*
X2673862D01*
X2699254Y-654904D01*
Y-731079D01*
X2775429Y-604120D02*
Y-629512D01*
X2750037D01*
X2800821D01*
X2775429D01*
Y-705687D01*
X2800821Y-731079D01*
X2902388Y-629512D02*
X2953171D01*
X2978563Y-654904D01*
Y-731079D01*
X2902388D01*
X2876996Y-705687D01*
X2902388Y-680296D01*
X2978563D01*
X3130914Y-629512D02*
X3054739D01*
X3029347Y-654904D01*
Y-705687D01*
X3054739Y-731079D01*
X3130914D01*
X3207089Y-604120D02*
Y-629512D01*
X3181697D01*
X3232481D01*
X3207089D01*
Y-705687D01*
X3232481Y-731079D01*
X3461007Y-578728D02*
X3511791D01*
X3486399D01*
Y-731079D01*
X3461007D01*
X3511791D01*
X3587966D02*
Y-629512D01*
X3664141D01*
X3689533Y-654904D01*
Y-731079D01*
X3765708D02*
Y-604120D01*
Y-654904D01*
X3740317D01*
X3791100D01*
X3765708D01*
Y-604120D01*
X3791100Y-578728D01*
X3892667Y-731079D02*
X3943451D01*
X3968843Y-705687D01*
Y-654904D01*
X3943451Y-629512D01*
X3892667D01*
X3867275Y-654904D01*
Y-705687D01*
X3892667Y-731079D01*
X4019626Y-629512D02*
X4045018D01*
Y-654904D01*
X4019626D01*
Y-629512D01*
Y-705687D02*
X4045018D01*
Y-731079D01*
X4019626D01*
Y-705687D01*
X2292985Y-974860D02*
Y-873293D01*
X2343768Y-822509D01*
X2394552Y-873293D01*
Y-974860D01*
Y-898685D01*
X2292985D01*
X2445336Y-974860D02*
Y-873293D01*
X2521511D01*
X2546903Y-898685D01*
Y-974860D01*
X2597686D02*
Y-873293D01*
X2673862D01*
X2699254Y-898685D01*
Y-974860D01*
X2775429Y-873293D02*
X2826213D01*
X2851604Y-898685D01*
Y-974860D01*
X2775429D01*
X2750037Y-949468D01*
X2775429Y-924076D01*
X2851604D01*
X3156306Y-822509D02*
X3054739D01*
Y-898685D01*
X3105522D01*
X3054739D01*
Y-974860D01*
X3232481D02*
X3283265D01*
X3308657Y-949468D01*
Y-898685D01*
X3283265Y-873293D01*
X3232481D01*
X3207089Y-898685D01*
Y-949468D01*
X3232481Y-974860D01*
X3359440Y-873293D02*
X3461007Y-974860D01*
X3410224Y-924076D01*
X3461007Y-873293D01*
X3359440Y-974860D01*
X2292985Y-1091682D02*
X2318377Y-1066290D01*
X2369160D01*
X2394552Y-1091682D01*
Y-1117073D01*
X2369160Y-1142465D01*
X2343768D01*
X2369160D01*
X2394552Y-1167857D01*
Y-1193249D01*
X2369160Y-1218641D01*
X2318377D01*
X2292985Y-1193249D01*
X2445336Y-1091682D02*
X2470728Y-1066290D01*
X2521511D01*
X2546903Y-1091682D01*
Y-1193249D01*
X2521511Y-1218641D01*
X2470728D01*
X2445336Y-1193249D01*
Y-1091682D01*
X2597686D02*
X2623078Y-1066290D01*
X2673862D01*
X2699254Y-1091682D01*
Y-1117073D01*
X2673862Y-1142465D01*
X2648470D01*
X2673862D01*
X2699254Y-1167857D01*
Y-1193249D01*
X2673862Y-1218641D01*
X2623078D01*
X2597686Y-1193249D01*
X2750037Y-1142465D02*
X2851604D01*
X2978563Y-1218641D02*
Y-1066290D01*
X2902388Y-1142465D01*
X3003955D01*
X3054739Y-1193249D02*
X3080130Y-1218641D01*
X3130914D01*
X3156306Y-1193249D01*
Y-1091682D01*
X3130914Y-1066290D01*
X3080130D01*
X3054739Y-1091682D01*
Y-1117073D01*
X3080130Y-1142465D01*
X3156306D01*
X3207089Y-1066290D02*
X3308657D01*
Y-1091682D01*
X3207089Y-1193249D01*
Y-1218641D01*
X3359440Y-1142465D02*
X3461007D01*
X3613358Y-1066290D02*
X3511791D01*
Y-1142465D01*
X3562574Y-1117073D01*
X3587966D01*
X3613358Y-1142465D01*
Y-1193249D01*
X3587966Y-1218641D01*
X3537183D01*
X3511791Y-1193249D01*
X3664142D02*
X3689533Y-1218641D01*
X3740317D01*
X3765709Y-1193249D01*
Y-1091682D01*
X3740317Y-1066290D01*
X3689533D01*
X3664142Y-1091682D01*
Y-1117073D01*
X3689533Y-1142465D01*
X3765709D01*
X3816492Y-1091682D02*
X3841884Y-1066290D01*
X3892668D01*
X3918059Y-1091682D01*
Y-1117073D01*
X3892668Y-1142465D01*
X3918059Y-1167857D01*
Y-1193249D01*
X3892668Y-1218641D01*
X3841884D01*
X3816492Y-1193249D01*
Y-1167857D01*
X3841884Y-1142465D01*
X3816492Y-1117073D01*
Y-1091682D01*
X3841884Y-1142465D02*
X3892668D01*
X4045018Y-1218641D02*
Y-1066290D01*
X3968843Y-1142465D01*
X4070410D01*
X2318377Y-1462422D02*
Y-1335463D01*
Y-1386246D01*
X2292985D01*
X2343768D01*
X2318377D01*
Y-1335463D01*
X2343768Y-1310071D01*
X2445336Y-1462422D02*
X2496119D01*
X2521511Y-1437030D01*
Y-1386246D01*
X2496119Y-1360854D01*
X2445336D01*
X2419944Y-1386246D01*
Y-1437030D01*
X2445336Y-1462422D01*
X2572295Y-1360854D02*
X2673862Y-1462422D01*
X2623078Y-1411638D01*
X2673862Y-1360854D01*
X2572295Y-1462422D01*
X2750037Y-1360854D02*
X2800821D01*
X2826213Y-1386246D01*
Y-1462422D01*
X2750037D01*
X2724645Y-1437030D01*
X2750037Y-1411638D01*
X2826213D01*
X2953171D02*
Y-1386246D01*
X2927780D01*
Y-1411638D01*
X2953171D01*
X2978563Y-1386246D01*
Y-1335463D01*
X2953171Y-1310071D01*
X2902388D01*
X2876996Y-1335463D01*
Y-1437030D01*
X2902388Y-1462422D01*
X2978563D01*
X3029347D02*
Y-1360854D01*
X3105522D01*
X3130914Y-1386246D01*
Y-1462422D01*
X3181697D02*
X3232481D01*
X3207089D01*
Y-1360854D01*
X3181697D01*
X3308656Y-1462422D02*
X3384832D01*
X3410224Y-1437030D01*
X3384832Y-1411638D01*
X3334048D01*
X3308656Y-1386246D01*
X3334048Y-1360854D01*
X3410224D01*
X3486399Y-1335463D02*
Y-1360854D01*
X3461007D01*
X3511791D01*
X3486399D01*
Y-1437030D01*
X3511791Y-1462422D01*
X3587966D02*
Y-1437030D01*
X3613358D01*
Y-1462422D01*
X3587966D01*
X3765708Y-1513205D02*
X3791100D01*
X3816492Y-1487813D01*
Y-1360854D01*
X3740317D01*
X3714925Y-1386246D01*
Y-1437030D01*
X3740317Y-1462422D01*
X3816492D01*
X3892667D02*
X3943451D01*
X3968843Y-1437030D01*
Y-1386246D01*
X3943451Y-1360854D01*
X3892667D01*
X3867275Y-1386246D01*
Y-1437030D01*
X3892667Y-1462422D01*
X4019626Y-1360854D02*
X4070410Y-1462422D01*
X4121193Y-1360854D01*
%TF.MD5,2d4f6840c96c20ed19e9be9133530617*%
M02*
