G04*
G04 #@! TF.GenerationSoftware,Altium Limited,Altium Designer,24.0.1 (36)*
G04*
G04 Layer_Color=16711935*
%FSLAX44Y44*%
%MOMM*%
G71*
G04*
G04 #@! TF.SameCoordinates,8E3682EF-1996-423B-9767-EFD2347B91C7*
G04*
G04*
G04 #@! TF.FilePolarity,Negative*
G04*
G01*
G75*
%ADD25C,3.8100*%
%ADD26C,1.5732*%
%ADD27R,1.5732X1.5732*%
%ADD28R,1.5732X1.5732*%
%ADD29C,1.7272*%
%ADD30C,0.9652*%
%ADD31C,0.8382*%
%ADD42R,8.0000X8.0000*%
%ADD43R,8.0000X8.0000*%
D25*
X30000Y630000D02*
D03*
X410000D02*
D03*
X30000Y30000D02*
D03*
D26*
X400000Y181200D02*
D03*
Y206600D02*
D03*
Y232000D02*
D03*
X44450Y400050D02*
D03*
Y425450D02*
D03*
Y450850D02*
D03*
X184200Y616000D02*
D03*
X209600D02*
D03*
X235000D02*
D03*
X258400Y43000D02*
D03*
X233000D02*
D03*
X207600D02*
D03*
D27*
X400000Y257400D02*
D03*
X44450Y476250D02*
D03*
D28*
X260400Y616000D02*
D03*
X182200Y43000D02*
D03*
D29*
X220000Y220000D02*
D03*
Y440000D02*
D03*
D30*
X227500Y565000D02*
D03*
X360404Y316404D02*
D03*
X82252Y346502D02*
D03*
X343000Y300224D02*
D03*
X295000Y345000D02*
D03*
X267950Y95000D02*
D03*
X253726D02*
D03*
X269224Y125000D02*
D03*
X255000D02*
D03*
X228888D02*
D03*
X243112D02*
D03*
X228888Y95000D02*
D03*
X243112D02*
D03*
X217500Y125000D02*
D03*
X205000D02*
D03*
X217500Y95000D02*
D03*
X180000Y125000D02*
D03*
X167500D02*
D03*
X97000Y519750D02*
D03*
X97280Y232716D02*
D03*
X97250Y203500D02*
D03*
X97500Y444250D02*
D03*
X349833Y130742D02*
D03*
X316929Y147611D02*
D03*
X342500Y135000D02*
D03*
X361500Y124000D02*
D03*
X328341Y111027D02*
D03*
X340000Y102500D02*
D03*
X320000Y122500D02*
D03*
X350000Y97500D02*
D03*
X317500Y135000D02*
D03*
X364000Y562750D02*
D03*
Y537750D02*
D03*
X378750Y532750D02*
D03*
Y567750D02*
D03*
X180000Y430000D02*
D03*
Y450000D02*
D03*
Y470000D02*
D03*
Y490000D02*
D03*
Y510000D02*
D03*
X280000Y410000D02*
D03*
Y430000D02*
D03*
Y450000D02*
D03*
Y510000D02*
D03*
Y490000D02*
D03*
Y470000D02*
D03*
X200000D02*
D03*
Y490000D02*
D03*
Y510000D02*
D03*
X220000D02*
D03*
Y490000D02*
D03*
Y470000D02*
D03*
X240000D02*
D03*
Y490000D02*
D03*
Y510000D02*
D03*
X260000D02*
D03*
Y490000D02*
D03*
Y470000D02*
D03*
Y450000D02*
D03*
Y430000D02*
D03*
Y410000D02*
D03*
X240000D02*
D03*
Y390000D02*
D03*
Y370000D02*
D03*
X140000D02*
D03*
Y390000D02*
D03*
X160000D02*
D03*
Y370000D02*
D03*
X180000D02*
D03*
Y390000D02*
D03*
Y410000D02*
D03*
X200000D02*
D03*
Y390000D02*
D03*
Y370000D02*
D03*
X220000D02*
D03*
Y390000D02*
D03*
Y410000D02*
D03*
X287500Y255000D02*
D03*
Y232500D02*
D03*
X265000Y255000D02*
D03*
Y232500D02*
D03*
X245000Y255000D02*
D03*
Y232500D02*
D03*
X287500Y210000D02*
D03*
X245000D02*
D03*
X265000D02*
D03*
X287500Y162500D02*
D03*
Y187500D02*
D03*
X265000D02*
D03*
Y162500D02*
D03*
X245000Y187500D02*
D03*
Y162500D02*
D03*
X222500Y187500D02*
D03*
X200000D02*
D03*
X222500Y162500D02*
D03*
X200000D02*
D03*
X180000D02*
D03*
Y187500D02*
D03*
Y210000D02*
D03*
Y232500D02*
D03*
Y255000D02*
D03*
X200000D02*
D03*
X220000D02*
D03*
X314750Y356500D02*
D03*
X311750Y315000D02*
D03*
X317250Y300000D02*
D03*
X295000Y315000D02*
D03*
X68250Y313000D02*
D03*
X146622Y316936D02*
D03*
X123500Y295836D02*
D03*
X97500Y370000D02*
D03*
X157507Y315321D02*
D03*
X122500Y357500D02*
D03*
X97292Y384684D02*
D03*
X132500Y345000D02*
D03*
X68000Y347250D02*
D03*
X83000Y312750D02*
D03*
X373443Y313127D02*
D03*
X358000Y348000D02*
D03*
X342500Y271776D02*
D03*
X317500Y271526D02*
D03*
Y285750D02*
D03*
X342750Y286000D02*
D03*
X97500Y249166D02*
D03*
X123000D02*
D03*
X123500Y263390D02*
D03*
X97500D02*
D03*
X123619Y280138D02*
D03*
X97500D02*
D03*
Y295836D02*
D03*
X92500Y65500D02*
D03*
X127500D02*
D03*
X156000Y564750D02*
D03*
X82146Y534554D02*
D03*
X97250Y428000D02*
D03*
X122000Y428062D02*
D03*
X97500Y469500D02*
D03*
Y456750D02*
D03*
X156000Y535000D02*
D03*
X138000D02*
D03*
X93280Y125971D02*
D03*
X94280Y141971D02*
D03*
Y154971D02*
D03*
X94000Y168000D02*
D03*
Y180000D02*
D03*
X97280Y218112D02*
D03*
X124250Y215000D02*
D03*
X95922Y79078D02*
D03*
X123000Y231000D02*
D03*
X347568Y68627D02*
D03*
X312568Y67627D02*
D03*
X374443Y348127D02*
D03*
X345568Y356627D02*
D03*
X347500Y592500D02*
D03*
X312500D02*
D03*
X72500Y125000D02*
D03*
Y95000D02*
D03*
X125000Y80000D02*
D03*
X128742Y94811D02*
D03*
X97500Y307250D02*
D03*
X122500Y205000D02*
D03*
Y192500D02*
D03*
Y180000D02*
D03*
Y167500D02*
D03*
Y155000D02*
D03*
Y142500D02*
D03*
X142500Y125000D02*
D03*
X129792Y587184D02*
D03*
X122500Y575000D02*
D03*
X92292Y587184D02*
D03*
X95189Y574882D02*
D03*
X87292Y564684D02*
D03*
X74792D02*
D03*
X72292Y534684D02*
D03*
X97500Y482000D02*
D03*
X97292Y507184D02*
D03*
Y494684D02*
D03*
X122292Y534684D02*
D03*
X122500Y520000D02*
D03*
X122292Y507184D02*
D03*
X122500Y495000D02*
D03*
Y482500D02*
D03*
Y470000D02*
D03*
X122292Y457184D02*
D03*
X123654Y445683D02*
D03*
X97292Y409684D02*
D03*
Y397184D02*
D03*
X122292Y409684D02*
D03*
Y397184D02*
D03*
Y384684D02*
D03*
X122500Y370000D02*
D03*
X312500Y575000D02*
D03*
X345000Y577500D02*
D03*
X355000Y567500D02*
D03*
X340000Y562500D02*
D03*
X330000Y550000D02*
D03*
X317500Y537500D02*
D03*
X302500Y535000D02*
D03*
Y565000D02*
D03*
X290000Y535000D02*
D03*
Y565000D02*
D03*
X277500Y535000D02*
D03*
Y565000D02*
D03*
X215000D02*
D03*
X240000D02*
D03*
X252500D02*
D03*
X265000D02*
D03*
Y535000D02*
D03*
X252500D02*
D03*
X240000D02*
D03*
X227500D02*
D03*
X215000D02*
D03*
X177500Y565000D02*
D03*
X190000D02*
D03*
X202500D02*
D03*
Y535000D02*
D03*
X190000D02*
D03*
X177500D02*
D03*
X345000Y370000D02*
D03*
X315000D02*
D03*
X345000Y382500D02*
D03*
X315000D02*
D03*
X345000Y395000D02*
D03*
X315000D02*
D03*
X345000Y407500D02*
D03*
X315000D02*
D03*
Y520000D02*
D03*
Y507500D02*
D03*
Y495000D02*
D03*
Y482500D02*
D03*
Y470000D02*
D03*
Y457500D02*
D03*
Y445000D02*
D03*
Y432500D02*
D03*
Y420000D02*
D03*
X345000D02*
D03*
Y432500D02*
D03*
Y445000D02*
D03*
Y457500D02*
D03*
Y470000D02*
D03*
Y482500D02*
D03*
Y495000D02*
D03*
Y507500D02*
D03*
Y520000D02*
D03*
X317500Y260000D02*
D03*
Y247500D02*
D03*
Y235000D02*
D03*
Y222500D02*
D03*
Y210000D02*
D03*
Y197500D02*
D03*
Y185000D02*
D03*
Y172500D02*
D03*
Y160000D02*
D03*
X342500D02*
D03*
Y172500D02*
D03*
Y185000D02*
D03*
Y197500D02*
D03*
Y210000D02*
D03*
Y222500D02*
D03*
Y235000D02*
D03*
Y247500D02*
D03*
Y260000D02*
D03*
X232500Y345000D02*
D03*
X282884Y315201D02*
D03*
X270000Y315000D02*
D03*
X257500D02*
D03*
X282507Y345321D02*
D03*
X195000Y315000D02*
D03*
X207500D02*
D03*
X220000D02*
D03*
X232500D02*
D03*
X245000D02*
D03*
X270007Y345321D02*
D03*
X257507D02*
D03*
X245007D02*
D03*
X220007D02*
D03*
X207507D02*
D03*
X195007D02*
D03*
X182507D02*
D03*
X170007D02*
D03*
X157507D02*
D03*
X145007D02*
D03*
X170007Y315321D02*
D03*
X182500Y315000D02*
D03*
X342500Y147500D02*
D03*
X374750Y127500D02*
D03*
Y92500D02*
D03*
X345000Y82500D02*
D03*
X315000D02*
D03*
X307500Y95000D02*
D03*
X292500D02*
D03*
X280000D02*
D03*
X205000D02*
D03*
X192500D02*
D03*
X180000D02*
D03*
X167500D02*
D03*
X155000D02*
D03*
X142500D02*
D03*
X155000Y125000D02*
D03*
X192500D02*
D03*
X280000D02*
D03*
X292500D02*
D03*
X307500D02*
D03*
X360000Y97500D02*
D03*
D31*
X144000Y304000D02*
D03*
X136000Y297000D02*
D03*
X300000Y363537D02*
D03*
X293000Y356000D02*
D03*
X63000Y504000D02*
D03*
X71000Y498000D02*
D03*
X79188Y66812D02*
D03*
X145000Y140000D02*
D03*
X152500Y152500D02*
D03*
X58000Y69000D02*
D03*
D42*
X220000Y440000D02*
D03*
D43*
Y220000D02*
D03*
M02*
