G04*
G04 #@! TF.GenerationSoftware,Altium Limited,Altium Designer,24.0.1 (36)*
G04*
G04 Layer_Physical_Order=4*
G04 Layer_Color=16711680*
%FSLAX44Y44*%
%MOMM*%
G71*
G04*
G04 #@! TF.SameCoordinates,8E3682EF-1996-423B-9767-EFD2347B91C7*
G04*
G04*
G04 #@! TF.FilePolarity,Positive*
G04*
G01*
G75*
%ADD13C,0.1524*%
%ADD34C,1.2700*%
%ADD35C,1.3700*%
%ADD36R,1.3700X1.3700*%
%ADD37R,1.3700X1.3700*%
%ADD38C,0.7000*%
%ADD39C,1.5240*%
%ADD40C,0.7620*%
%ADD41C,0.6350*%
G36*
X135000Y579296D02*
X132030Y576327D01*
X86173Y530470D01*
X85000Y530956D01*
Y529296D01*
X80704Y525000D01*
X5000D01*
Y575000D01*
X85000D01*
Y655000D01*
X135000D01*
Y579296D01*
D02*
G37*
G36*
X355000Y577500D02*
X355000D01*
Y575000D01*
X435000D01*
Y525000D01*
X355000D01*
Y355000D01*
X435000D01*
Y305000D01*
X358296D01*
X355000Y308296D01*
Y309956D01*
X353827Y309470D01*
X309969Y353327D01*
Y355899D01*
X309791Y356791D01*
X309286Y357547D01*
X304562Y362271D01*
X304699Y362602D01*
Y364472D01*
X303984Y366199D01*
X302662Y367521D01*
X300935Y368236D01*
X299065D01*
X297338Y367521D01*
X296016Y366199D01*
X295301Y364472D01*
Y362602D01*
X295848Y361281D01*
X294957Y360276D01*
X293935Y360699D01*
X292065D01*
X290338Y359984D01*
X289016Y358662D01*
X288301Y356935D01*
Y355065D01*
X289016Y353338D01*
X290338Y352016D01*
X292065Y351301D01*
X293935D01*
X295662Y352016D01*
X296854Y353208D01*
X297496D01*
X355000Y295704D01*
Y135000D01*
X435000D01*
Y85000D01*
X355000D01*
Y5000D01*
X305000D01*
Y85000D01*
X260731D01*
Y88651D01*
X262486Y90406D01*
X262991Y91162D01*
X263168Y92054D01*
Y96980D01*
X263760Y97572D01*
X264265Y98328D01*
X264443Y99220D01*
Y135888D01*
X264265Y136780D01*
X263760Y137536D01*
X247148Y154148D01*
X246392Y154653D01*
X245500Y154831D01*
X156621D01*
X156484Y155162D01*
X155162Y156484D01*
X153435Y157199D01*
X151565D01*
X149838Y156484D01*
X148516Y155162D01*
X147801Y153435D01*
Y151565D01*
X148516Y149838D01*
X149838Y148516D01*
X151565Y147801D01*
X153435D01*
X155162Y148516D01*
X156484Y149838D01*
X156621Y150169D01*
X244535D01*
X259781Y134923D01*
Y100186D01*
X259189Y99594D01*
X258684Y98838D01*
X258507Y97946D01*
Y93020D01*
X256752Y91265D01*
X256247Y90508D01*
X256069Y89616D01*
Y85000D01*
X235331D01*
Y88089D01*
X237648Y90406D01*
X238153Y91162D01*
X238331Y92054D01*
Y135000D01*
X238153Y135892D01*
X237648Y136648D01*
X232648Y141648D01*
X231892Y142153D01*
X231000Y142331D01*
X149121D01*
X148984Y142662D01*
X147662Y143984D01*
X145935Y144699D01*
X144065D01*
X142338Y143984D01*
X141016Y142662D01*
X140301Y140935D01*
Y139065D01*
X141016Y137338D01*
X142338Y136016D01*
X144065Y135301D01*
X145935D01*
X147662Y136016D01*
X148984Y137338D01*
X149121Y137669D01*
X230035D01*
X233669Y134035D01*
Y93020D01*
X231352Y90702D01*
X230847Y89946D01*
X230669Y89054D01*
Y85000D01*
X135000D01*
Y22296D01*
X133035Y20331D01*
X86966D01*
X85000Y22296D01*
Y85000D01*
X5000D01*
Y135000D01*
X85000D01*
Y305000D01*
X5000D01*
Y355000D01*
X85000D01*
Y354544D01*
X86173Y355030D01*
X133669Y307535D01*
Y301121D01*
X133338Y300984D01*
X132016Y299662D01*
X131301Y297935D01*
Y296065D01*
X132016Y294338D01*
X133338Y293016D01*
X135065Y292301D01*
X136935D01*
X138662Y293016D01*
X139984Y294338D01*
X140699Y296065D01*
Y297935D01*
X139984Y299662D01*
X140943Y300412D01*
X141338Y300016D01*
X143065Y299301D01*
X144935D01*
X146662Y300016D01*
X147984Y301338D01*
X148699Y303065D01*
Y304935D01*
X147984Y306662D01*
X146662Y307984D01*
X144935Y308699D01*
X143065D01*
X142783Y308582D01*
X85000Y366366D01*
Y516704D01*
X145796Y577500D01*
X305000D01*
Y655000D01*
X355000D01*
Y577500D01*
D02*
G37*
G36*
X135000Y5000D02*
X85000D01*
Y11669D01*
X135000D01*
Y5000D01*
D02*
G37*
D13*
X190600Y635000D02*
X209600Y616000D01*
X177800Y635000D02*
X190600D01*
X165100Y622300D02*
X177800Y635000D01*
X165100Y606100D02*
Y622300D01*
X374650Y206550D02*
X400000Y181200D01*
Y206600D02*
X421369Y227969D01*
X69850Y378219D02*
X144000Y304069D01*
Y304000D02*
Y304069D01*
X136000Y297000D02*
Y308500D01*
X63500Y381000D02*
X136000Y308500D01*
X69850Y378219D02*
Y425450D01*
X44450Y450850D02*
X69850Y425450D01*
X19050Y450850D02*
X44450Y476250D01*
X19050Y387350D02*
Y450850D01*
Y387350D02*
X25400Y381000D01*
X63500D01*
X388476Y299524D02*
X421369Y266631D01*
Y227969D02*
Y266631D01*
X360476Y299524D02*
X388476D01*
X307638Y352362D02*
X360476Y299524D01*
X374650Y206550D02*
Y279350D01*
X307638Y352362D02*
Y355899D01*
X300000Y363537D02*
X307638Y355899D01*
X298461Y355539D02*
X374650Y279350D01*
X293461Y355539D02*
X298461D01*
X293000Y356000D02*
X293461Y355539D01*
X134000Y18000D02*
X177000Y61000D01*
X86000Y18000D02*
X134000D01*
X177000Y61000D02*
X198000D01*
X79188Y24812D02*
X86000Y18000D01*
X79188Y24812D02*
Y66812D01*
X70000Y14000D02*
X153200D01*
X58000Y26000D02*
X70000Y14000D01*
X153200D02*
X182200Y43000D01*
X206864Y43736D02*
Y52136D01*
X198000Y61000D02*
X206864Y52136D01*
Y43736D02*
X207600Y43000D01*
X58000Y26000D02*
Y69000D01*
X258400Y89616D02*
X260838Y92054D01*
Y97946D02*
X262112Y99220D01*
Y135888D01*
X260838Y92054D02*
Y97946D01*
X258400Y43000D02*
Y89616D01*
X245500Y152500D02*
X262112Y135888D01*
X152500Y152500D02*
X245500D01*
X145000Y140000D02*
X231000D01*
X236000Y135000D01*
Y92054D02*
Y135000D01*
X233000Y89054D02*
X236000Y92054D01*
X233000Y43000D02*
Y89054D01*
X71000Y506000D02*
X182550Y617550D01*
X71000Y498000D02*
Y506000D01*
X63000Y504000D02*
X165100Y606100D01*
D34*
X30000Y630000D02*
D03*
X410000D02*
D03*
X30000Y30000D02*
D03*
D35*
X400000Y181200D02*
D03*
Y206600D02*
D03*
Y232000D02*
D03*
X44450Y400050D02*
D03*
Y425450D02*
D03*
Y450850D02*
D03*
X184200Y616000D02*
D03*
X209600D02*
D03*
X235000D02*
D03*
X258400Y43000D02*
D03*
X233000D02*
D03*
X207600D02*
D03*
D36*
X400000Y257400D02*
D03*
X44450Y476250D02*
D03*
D37*
X260400Y616000D02*
D03*
X182200Y43000D02*
D03*
D38*
X405000Y347000D02*
D03*
X413000Y313000D02*
D03*
Y347000D02*
D03*
X405500Y330000D02*
D03*
X405000Y313000D02*
D03*
X389000D02*
D03*
Y347000D02*
D03*
X35000Y313000D02*
D03*
X27000Y347000D02*
D03*
Y313000D02*
D03*
X34500Y330000D02*
D03*
X35000Y347000D02*
D03*
X51000D02*
D03*
Y313000D02*
D03*
X35000Y533000D02*
D03*
X27000Y567000D02*
D03*
Y533000D02*
D03*
X34500Y550000D02*
D03*
X35000Y567000D02*
D03*
X51000D02*
D03*
Y533000D02*
D03*
X93000Y625000D02*
D03*
X127000Y633000D02*
D03*
X93000D02*
D03*
X110000Y625500D02*
D03*
X127000Y625000D02*
D03*
Y609000D02*
D03*
X93000D02*
D03*
X313000Y625000D02*
D03*
X347000Y633000D02*
D03*
X313000D02*
D03*
X330000Y625500D02*
D03*
X347000Y625000D02*
D03*
Y609000D02*
D03*
X313000D02*
D03*
X405000Y567000D02*
D03*
X413000Y533000D02*
D03*
Y567000D02*
D03*
X405500Y550000D02*
D03*
X405000Y533000D02*
D03*
X389000D02*
D03*
Y567000D02*
D03*
X405000Y127000D02*
D03*
X413000Y93000D02*
D03*
Y127000D02*
D03*
X405500Y110000D02*
D03*
X405000Y93000D02*
D03*
X389000D02*
D03*
Y127000D02*
D03*
X347000Y35000D02*
D03*
X313000Y27000D02*
D03*
X347000D02*
D03*
X330000Y34500D02*
D03*
X313000Y35000D02*
D03*
Y51000D02*
D03*
X347000D02*
D03*
X127000Y35000D02*
D03*
X93000Y27000D02*
D03*
X127000D02*
D03*
X110000Y34500D02*
D03*
X93000Y35000D02*
D03*
Y51000D02*
D03*
X127000D02*
D03*
X35000Y93000D02*
D03*
X27000Y127000D02*
D03*
Y93000D02*
D03*
X34500Y110000D02*
D03*
X35000Y127000D02*
D03*
X51000D02*
D03*
Y93000D02*
D03*
D39*
X220000Y220000D02*
D03*
Y440000D02*
D03*
D40*
X227500Y565000D02*
D03*
X360404Y316404D02*
D03*
X82252Y346502D02*
D03*
X343000Y300224D02*
D03*
X295000Y345000D02*
D03*
X267950Y95000D02*
D03*
X253726D02*
D03*
X269224Y125000D02*
D03*
X255000D02*
D03*
X228888D02*
D03*
X243112D02*
D03*
X228888Y95000D02*
D03*
X243112D02*
D03*
X217500Y125000D02*
D03*
X205000D02*
D03*
X217500Y95000D02*
D03*
X180000Y125000D02*
D03*
X167500D02*
D03*
X97000Y519750D02*
D03*
X97280Y232716D02*
D03*
X97250Y203500D02*
D03*
X97500Y444250D02*
D03*
X349833Y130742D02*
D03*
X316929Y147611D02*
D03*
X342500Y135000D02*
D03*
X361500Y124000D02*
D03*
X328341Y111027D02*
D03*
X340000Y102500D02*
D03*
X320000Y122500D02*
D03*
X350000Y97500D02*
D03*
X317500Y135000D02*
D03*
X364000Y562750D02*
D03*
Y537750D02*
D03*
X378750Y532750D02*
D03*
Y567750D02*
D03*
X180000Y430000D02*
D03*
Y450000D02*
D03*
Y470000D02*
D03*
Y490000D02*
D03*
Y510000D02*
D03*
X280000Y410000D02*
D03*
Y430000D02*
D03*
Y450000D02*
D03*
Y510000D02*
D03*
Y490000D02*
D03*
Y470000D02*
D03*
X200000D02*
D03*
Y490000D02*
D03*
Y510000D02*
D03*
X220000D02*
D03*
Y490000D02*
D03*
Y470000D02*
D03*
X240000D02*
D03*
Y490000D02*
D03*
Y510000D02*
D03*
X260000D02*
D03*
Y490000D02*
D03*
Y470000D02*
D03*
Y450000D02*
D03*
Y430000D02*
D03*
Y410000D02*
D03*
X240000D02*
D03*
Y390000D02*
D03*
Y370000D02*
D03*
X140000D02*
D03*
Y390000D02*
D03*
X160000D02*
D03*
Y370000D02*
D03*
X180000D02*
D03*
Y390000D02*
D03*
Y410000D02*
D03*
X200000D02*
D03*
Y390000D02*
D03*
Y370000D02*
D03*
X220000D02*
D03*
Y390000D02*
D03*
Y410000D02*
D03*
X287500Y255000D02*
D03*
Y232500D02*
D03*
X265000Y255000D02*
D03*
Y232500D02*
D03*
X245000Y255000D02*
D03*
Y232500D02*
D03*
X287500Y210000D02*
D03*
X245000D02*
D03*
X265000D02*
D03*
X287500Y162500D02*
D03*
Y187500D02*
D03*
X265000D02*
D03*
Y162500D02*
D03*
X245000Y187500D02*
D03*
Y162500D02*
D03*
X222500Y187500D02*
D03*
X200000D02*
D03*
X222500Y162500D02*
D03*
X200000D02*
D03*
X180000D02*
D03*
Y187500D02*
D03*
Y210000D02*
D03*
Y232500D02*
D03*
Y255000D02*
D03*
X200000D02*
D03*
X220000D02*
D03*
X314750Y356500D02*
D03*
X311750Y315000D02*
D03*
X317250Y300000D02*
D03*
X295000Y315000D02*
D03*
X68250Y313000D02*
D03*
X146622Y316936D02*
D03*
X123500Y295836D02*
D03*
X97500Y370000D02*
D03*
X157507Y315321D02*
D03*
X122500Y357500D02*
D03*
X97292Y384684D02*
D03*
X132500Y345000D02*
D03*
X68000Y347250D02*
D03*
X83000Y312750D02*
D03*
X373443Y313127D02*
D03*
X358000Y348000D02*
D03*
X342500Y271776D02*
D03*
X317500Y271526D02*
D03*
Y285750D02*
D03*
X342750Y286000D02*
D03*
X97500Y249166D02*
D03*
X123000D02*
D03*
X123500Y263390D02*
D03*
X97500D02*
D03*
X123619Y280138D02*
D03*
X97500D02*
D03*
Y295836D02*
D03*
X92500Y65500D02*
D03*
X127500D02*
D03*
X156000Y564750D02*
D03*
X82146Y534554D02*
D03*
X97250Y428000D02*
D03*
X122000Y428062D02*
D03*
X97500Y469500D02*
D03*
Y456750D02*
D03*
X156000Y535000D02*
D03*
X138000D02*
D03*
X93280Y125971D02*
D03*
X94280Y141971D02*
D03*
Y154971D02*
D03*
X94000Y168000D02*
D03*
Y180000D02*
D03*
X97280Y218112D02*
D03*
X124250Y215000D02*
D03*
X95922Y79078D02*
D03*
X123000Y231000D02*
D03*
X347568Y68627D02*
D03*
X312568Y67627D02*
D03*
X374443Y348127D02*
D03*
X345568Y356627D02*
D03*
X347500Y592500D02*
D03*
X312500D02*
D03*
X72500Y125000D02*
D03*
Y95000D02*
D03*
X125000Y80000D02*
D03*
X128742Y94811D02*
D03*
X97500Y307250D02*
D03*
X122500Y205000D02*
D03*
Y192500D02*
D03*
Y180000D02*
D03*
Y167500D02*
D03*
Y155000D02*
D03*
Y142500D02*
D03*
X142500Y125000D02*
D03*
X129792Y587184D02*
D03*
X122500Y575000D02*
D03*
X92292Y587184D02*
D03*
X95189Y574882D02*
D03*
X87292Y564684D02*
D03*
X74792D02*
D03*
X72292Y534684D02*
D03*
X97500Y482000D02*
D03*
X97292Y507184D02*
D03*
Y494684D02*
D03*
X122292Y534684D02*
D03*
X122500Y520000D02*
D03*
X122292Y507184D02*
D03*
X122500Y495000D02*
D03*
Y482500D02*
D03*
Y470000D02*
D03*
X122292Y457184D02*
D03*
X123654Y445683D02*
D03*
X97292Y409684D02*
D03*
Y397184D02*
D03*
X122292Y409684D02*
D03*
Y397184D02*
D03*
Y384684D02*
D03*
X122500Y370000D02*
D03*
X312500Y575000D02*
D03*
X345000Y577500D02*
D03*
X355000Y567500D02*
D03*
X340000Y562500D02*
D03*
X330000Y550000D02*
D03*
X317500Y537500D02*
D03*
X302500Y535000D02*
D03*
Y565000D02*
D03*
X290000Y535000D02*
D03*
Y565000D02*
D03*
X277500Y535000D02*
D03*
Y565000D02*
D03*
X215000D02*
D03*
X240000D02*
D03*
X252500D02*
D03*
X265000D02*
D03*
Y535000D02*
D03*
X252500D02*
D03*
X240000D02*
D03*
X227500D02*
D03*
X215000D02*
D03*
X177500Y565000D02*
D03*
X190000D02*
D03*
X202500D02*
D03*
Y535000D02*
D03*
X190000D02*
D03*
X177500D02*
D03*
X345000Y370000D02*
D03*
X315000D02*
D03*
X345000Y382500D02*
D03*
X315000D02*
D03*
X345000Y395000D02*
D03*
X315000D02*
D03*
X345000Y407500D02*
D03*
X315000D02*
D03*
Y520000D02*
D03*
Y507500D02*
D03*
Y495000D02*
D03*
Y482500D02*
D03*
Y470000D02*
D03*
Y457500D02*
D03*
Y445000D02*
D03*
Y432500D02*
D03*
Y420000D02*
D03*
X345000D02*
D03*
Y432500D02*
D03*
Y445000D02*
D03*
Y457500D02*
D03*
Y470000D02*
D03*
Y482500D02*
D03*
Y495000D02*
D03*
Y507500D02*
D03*
Y520000D02*
D03*
X317500Y260000D02*
D03*
Y247500D02*
D03*
Y235000D02*
D03*
Y222500D02*
D03*
Y210000D02*
D03*
Y197500D02*
D03*
Y185000D02*
D03*
Y172500D02*
D03*
Y160000D02*
D03*
X342500D02*
D03*
Y172500D02*
D03*
Y185000D02*
D03*
Y197500D02*
D03*
Y210000D02*
D03*
Y222500D02*
D03*
Y235000D02*
D03*
Y247500D02*
D03*
Y260000D02*
D03*
X232500Y345000D02*
D03*
X282884Y315201D02*
D03*
X270000Y315000D02*
D03*
X257500D02*
D03*
X282507Y345321D02*
D03*
X195000Y315000D02*
D03*
X207500D02*
D03*
X220000D02*
D03*
X232500D02*
D03*
X245000D02*
D03*
X270007Y345321D02*
D03*
X257507D02*
D03*
X245007D02*
D03*
X220007D02*
D03*
X207507D02*
D03*
X195007D02*
D03*
X182507D02*
D03*
X170007D02*
D03*
X157507D02*
D03*
X145007D02*
D03*
X170007Y315321D02*
D03*
X182500Y315000D02*
D03*
X342500Y147500D02*
D03*
X374750Y127500D02*
D03*
Y92500D02*
D03*
X345000Y82500D02*
D03*
X315000D02*
D03*
X307500Y95000D02*
D03*
X292500D02*
D03*
X280000D02*
D03*
X205000D02*
D03*
X192500D02*
D03*
X180000D02*
D03*
X167500D02*
D03*
X155000D02*
D03*
X142500D02*
D03*
X155000Y125000D02*
D03*
X192500D02*
D03*
X280000D02*
D03*
X292500D02*
D03*
X307500D02*
D03*
X360000Y97500D02*
D03*
D41*
X144000Y304000D02*
D03*
X136000Y297000D02*
D03*
X300000Y363537D02*
D03*
X293000Y356000D02*
D03*
X63000Y504000D02*
D03*
X71000Y498000D02*
D03*
X79188Y66812D02*
D03*
X145000Y140000D02*
D03*
X152500Y152500D02*
D03*
X58000Y69000D02*
D03*
M02*
