G04*
G04 #@! TF.GenerationSoftware,Altium Limited,Altium Designer,24.0.1 (36)*
G04*
G04 Layer_Color=8421504*
%FSLAX44Y44*%
%MOMM*%
G71*
G04*
G04 #@! TF.SameCoordinates,8E3682EF-1996-423B-9767-EFD2347B91C7*
G04*
G04*
G04 #@! TF.FilePolarity,Positive*
G04*
G01*
G75*
%ADD14R,0.2500X0.3000*%
%ADD15R,0.3000X0.2500*%
%ADD16C,0.1500*%
%ADD17R,1.1500X0.4000*%
%ADD18R,0.4000X1.1500*%
G36*
X350750Y644000D02*
X342500D01*
Y630000D01*
X317500D01*
Y644000D01*
X309250D01*
Y650000D01*
X350750D01*
Y644000D01*
D02*
G37*
G36*
X130750D02*
X122500D01*
Y630000D01*
X97500D01*
Y644000D01*
X89250D01*
Y650000D01*
X130750D01*
Y644000D01*
D02*
G37*
G36*
X350750Y614000D02*
X340750D01*
Y617000D01*
X319250D01*
Y614000D01*
X309250D01*
Y621000D01*
X350750D01*
Y614000D01*
D02*
G37*
G36*
X130750D02*
X120750D01*
Y617000D01*
X99250D01*
Y614000D01*
X89250D01*
Y621000D01*
X130750D01*
Y614000D01*
D02*
G37*
G36*
X430000Y529250D02*
X424000D01*
Y537500D01*
X410000D01*
Y562500D01*
X424000D01*
Y570750D01*
X430000D01*
Y529250D01*
D02*
G37*
G36*
X401000D02*
X394000D01*
Y539250D01*
X397000D01*
Y560750D01*
X394000D01*
Y570750D01*
X401000D01*
Y529250D01*
D02*
G37*
G36*
X46000Y560750D02*
X43000D01*
Y539250D01*
X46000D01*
Y529250D01*
X39000D01*
Y570750D01*
X46000D01*
Y560750D01*
D02*
G37*
G36*
X16000Y562500D02*
X30000D01*
Y537500D01*
X16000D01*
Y529250D01*
X10000D01*
Y570750D01*
X16000D01*
Y562500D01*
D02*
G37*
G36*
X430000Y309250D02*
X424000D01*
Y317500D01*
X410000D01*
Y342500D01*
X424000D01*
Y350750D01*
X430000D01*
Y309250D01*
D02*
G37*
G36*
X401000D02*
X394000D01*
Y319250D01*
X397000D01*
Y340750D01*
X394000D01*
Y350750D01*
X401000D01*
Y309250D01*
D02*
G37*
G36*
X46000Y340750D02*
X43000D01*
Y319250D01*
X46000D01*
Y309250D01*
X39000D01*
Y350750D01*
X46000D01*
Y340750D01*
D02*
G37*
G36*
X16000Y342500D02*
X30000D01*
Y317500D01*
X16000D01*
Y309250D01*
X10000D01*
Y350750D01*
X16000D01*
Y342500D01*
D02*
G37*
G36*
X430000Y89250D02*
X424000D01*
Y97500D01*
X410000D01*
Y122500D01*
X424000D01*
Y130750D01*
X430000D01*
Y89250D01*
D02*
G37*
G36*
X401000D02*
X394000D01*
Y99250D01*
X397000D01*
Y120750D01*
X394000D01*
Y130750D01*
X401000D01*
Y89250D01*
D02*
G37*
G36*
X46000Y120750D02*
X43000D01*
Y99250D01*
X46000D01*
Y89250D01*
X39000D01*
Y130750D01*
X46000D01*
Y120750D01*
D02*
G37*
G36*
X16000Y122500D02*
X30000D01*
Y97500D01*
X16000D01*
Y89250D01*
X10000D01*
Y130750D01*
X16000D01*
Y122500D01*
D02*
G37*
G36*
X350750Y39000D02*
X309250D01*
Y46000D01*
X319250D01*
Y43000D01*
X340750D01*
Y46000D01*
X350750D01*
Y39000D01*
D02*
G37*
G36*
X130750D02*
X89250D01*
Y46000D01*
X99250D01*
Y43000D01*
X120750D01*
Y46000D01*
X130750D01*
Y39000D01*
D02*
G37*
G36*
X342500Y16000D02*
X350750D01*
Y10000D01*
X309250D01*
Y16000D01*
X317500D01*
Y30000D01*
X342500D01*
Y16000D01*
D02*
G37*
G36*
X122500D02*
X130750D01*
Y10000D01*
X89250D01*
Y16000D01*
X97500D01*
Y30000D01*
X122500D01*
Y16000D01*
D02*
G37*
D14*
X103922Y576990D02*
D03*
X109922D02*
D03*
X329732Y577118D02*
D03*
X323732D02*
D03*
X116207Y440000D02*
D03*
X110207D02*
D03*
X110300Y220000D02*
D03*
X116300D02*
D03*
X330250Y82750D02*
D03*
X336250D02*
D03*
X116300Y83000D02*
D03*
X110300D02*
D03*
D15*
X83179Y543900D02*
D03*
Y549900D02*
D03*
X220000Y336200D02*
D03*
Y330200D02*
D03*
X357990Y556123D02*
D03*
Y550123D02*
D03*
X357000Y330250D02*
D03*
Y336250D02*
D03*
X358000Y110000D02*
D03*
Y116000D02*
D03*
X83000Y103750D02*
D03*
Y109750D02*
D03*
D16*
X110000Y538884D02*
D03*
Y341116D02*
D03*
X101826Y336986D02*
D03*
X110000Y318884D02*
D03*
Y330000D02*
D03*
X109965Y334137D02*
D03*
X112015Y337616D02*
D03*
X114045Y341116D02*
D03*
X105955D02*
D03*
X105651Y334349D02*
D03*
X105863Y330035D02*
D03*
X98884Y334045D02*
D03*
X98884Y330000D02*
D03*
X102385Y327985D02*
D03*
X98884Y325955D02*
D03*
X107985Y322384D02*
D03*
X110035Y325863D02*
D03*
X114045Y318884D02*
D03*
X105955D02*
D03*
X116986Y321826D02*
D03*
X114349Y325651D02*
D03*
X121116Y325955D02*
D03*
X114137Y329965D02*
D03*
X117616Y332015D02*
D03*
X121116Y334045D02*
D03*
X121116Y330000D02*
D03*
X102385Y332015D02*
D03*
X112015Y322384D02*
D03*
X117616Y327985D02*
D03*
X107985Y337616D02*
D03*
X102385Y547985D02*
D03*
X112015Y557616D02*
D03*
X117616Y552015D02*
D03*
X107985Y542384D02*
D03*
X110000Y561116D02*
D03*
X105955Y561116D02*
D03*
X107985Y557616D02*
D03*
X110035Y554137D02*
D03*
X114045Y561116D02*
D03*
X114349Y554349D02*
D03*
X118174Y556986D02*
D03*
X121116Y545955D02*
D03*
Y554045D02*
D03*
X114137Y550035D02*
D03*
X117616Y547985D02*
D03*
X114045Y538884D02*
D03*
X112015Y542384D02*
D03*
X105955Y538884D02*
D03*
X109965Y545863D02*
D03*
X105651Y545651D02*
D03*
X98884Y545955D02*
D03*
X98884Y550000D02*
D03*
X98884Y554045D02*
D03*
X102385Y552015D02*
D03*
X105863Y549965D02*
D03*
X110000Y550000D02*
D03*
X121116D02*
D03*
X103014Y541826D02*
D03*
X321826Y336986D02*
D03*
X330000Y318884D02*
D03*
Y330000D02*
D03*
X329965Y334137D02*
D03*
X332015Y337616D02*
D03*
X334045Y341116D02*
D03*
X330000Y341116D02*
D03*
X325955Y341116D02*
D03*
X325651Y334349D02*
D03*
X325863Y330035D02*
D03*
X318884Y334045D02*
D03*
X318884Y330000D02*
D03*
X322384Y327985D02*
D03*
X318884Y325955D02*
D03*
X327985Y322384D02*
D03*
X330035Y325863D02*
D03*
X334045Y318884D02*
D03*
X325955D02*
D03*
X336986Y321826D02*
D03*
X334349Y325651D02*
D03*
X341116Y325955D02*
D03*
X334137Y329965D02*
D03*
X337616Y332015D02*
D03*
X341116Y334045D02*
D03*
X341116Y330000D02*
D03*
X322384Y332015D02*
D03*
X332015Y322384D02*
D03*
X337616Y327985D02*
D03*
X327985Y337616D02*
D03*
X116986Y118174D02*
D03*
X98884Y110000D02*
D03*
X110000D02*
D03*
X114137Y110035D02*
D03*
X117615Y107985D02*
D03*
X121116Y105955D02*
D03*
X121116Y110000D02*
D03*
X121116Y114045D02*
D03*
X114349Y114349D02*
D03*
X110035Y114137D02*
D03*
X114045Y121116D02*
D03*
X110000Y121116D02*
D03*
X107985Y117616D02*
D03*
X105955Y121116D02*
D03*
X102384Y112015D02*
D03*
X105863Y109965D02*
D03*
X98884Y105955D02*
D03*
Y114045D02*
D03*
X101826Y103014D02*
D03*
X105651Y105651D02*
D03*
X105955Y98884D02*
D03*
X109965Y105863D02*
D03*
X112015Y102385D02*
D03*
X114045Y98884D02*
D03*
X110000Y98884D02*
D03*
X112015Y117616D02*
D03*
X102384Y107985D02*
D03*
X107985Y102385D02*
D03*
X117615Y112015D02*
D03*
D17*
X383000Y330000D02*
D03*
X57000D02*
D03*
Y550000D02*
D03*
X383000D02*
D03*
Y110000D02*
D03*
X57000D02*
D03*
D18*
X110000Y603000D02*
D03*
X330000D02*
D03*
Y57000D02*
D03*
X110000D02*
D03*
M02*
