G04*
G04 #@! TF.GenerationSoftware,Altium Limited,Altium Designer,24.0.1 (36)*
G04*
G04 Layer_Color=32896*
%FSLAX44Y44*%
%MOMM*%
G71*
G04*
G04 #@! TF.SameCoordinates,8E3682EF-1996-423B-9767-EFD2347B91C7*
G04*
G04*
G04 #@! TF.FilePolarity,Positive*
G04*
G01*
G75*
%ADD11C,0.2540*%
%ADD13C,0.1524*%
D11*
X32460Y504039D02*
X29961Y501540D01*
X24962D01*
X22463Y504039D01*
Y514036D01*
X24962Y516535D01*
X29961D01*
X32460Y514036D01*
Y511537D01*
X29961Y509038D01*
X22463D01*
X76460Y632036D02*
X73961Y634535D01*
X68962D01*
X66463Y632036D01*
Y629537D01*
X68962Y627038D01*
X66463Y624538D01*
Y622039D01*
X68962Y619540D01*
X73961D01*
X76460Y622039D01*
Y624538D01*
X73961Y627038D01*
X76460Y629537D01*
Y632036D01*
X73961Y627038D02*
X68962D01*
X296460Y634535D02*
X286463D01*
Y632036D01*
X296460Y622039D01*
Y619540D01*
X405463Y599535D02*
X410462Y597036D01*
X415460Y592038D01*
Y587039D01*
X412961Y584540D01*
X407962D01*
X405463Y587039D01*
Y589538D01*
X407962Y592038D01*
X415460D01*
X405463Y378535D02*
X415460D01*
Y371038D01*
X410462Y373537D01*
X407962D01*
X405463Y371038D01*
Y366039D01*
X407962Y363540D01*
X412961D01*
X415460Y366039D01*
X407962Y144540D02*
Y159535D01*
X415460Y152038D01*
X405463D01*
X372460Y37036D02*
X369961Y39535D01*
X364962D01*
X362463Y37036D01*
Y34537D01*
X364962Y32038D01*
X367462D01*
X364962D01*
X362463Y29538D01*
Y27039D01*
X364962Y24540D01*
X369961D01*
X372460Y27039D01*
X144463Y24540D02*
X154460D01*
X144463Y34537D01*
Y37036D01*
X146962Y39535D01*
X151961D01*
X154460Y37036D01*
X29460Y60540D02*
X24462D01*
X26961D01*
Y75535D01*
X29460Y73036D01*
D13*
X368627Y279476D02*
X377090D01*
X378783Y277783D01*
Y274398D01*
X377090Y272705D01*
X368627D01*
X378783Y262548D02*
Y269319D01*
X372012Y262548D01*
X370319D01*
X368627Y264241D01*
Y267626D01*
X370319Y269319D01*
X380476Y259163D02*
Y252391D01*
X378783Y249006D02*
Y245620D01*
Y247313D01*
X368627D01*
X370319Y249006D01*
X421398Y254524D02*
Y264681D01*
X426476Y259602D01*
X419705D01*
Y238681D02*
X426476D01*
Y233602D01*
X423090Y235295D01*
X421398D01*
X419705Y233602D01*
Y230217D01*
X421398Y228524D01*
X424783D01*
X426476Y230217D01*
X419705Y213681D02*
X423090Y211988D01*
X426476Y208602D01*
Y205217D01*
X424783Y203524D01*
X421398D01*
X419705Y205217D01*
Y206910D01*
X421398Y208602D01*
X426476D01*
X368627Y186476D02*
X377090D01*
X378783Y184783D01*
Y181398D01*
X377090Y179705D01*
X368627D01*
X378783Y169548D02*
Y176319D01*
X372012Y169548D01*
X370319D01*
X368627Y171241D01*
Y174627D01*
X370319Y176319D01*
X380476Y166162D02*
Y159391D01*
X378783Y150927D02*
X368627D01*
X373705Y156006D01*
Y149235D01*
X420012Y181705D02*
X418319Y183398D01*
Y186783D01*
X420012Y188476D01*
X426783D01*
X428476Y186783D01*
Y183398D01*
X426783Y181705D01*
X418319Y173241D02*
Y176626D01*
X420012Y178319D01*
X426783D01*
X428476Y176626D01*
Y173241D01*
X426783Y171548D01*
X420012D01*
X418319Y173241D01*
X428476Y168163D02*
X418319D01*
X421705Y164777D01*
X418319Y161391D01*
X428476D01*
X276476Y24374D02*
Y15910D01*
X274783Y14217D01*
X271398D01*
X269705Y15910D01*
Y24374D01*
X266319Y14217D02*
X262934D01*
X264627D01*
Y24374D01*
X266319Y22681D01*
X257855Y12524D02*
X251084D01*
X242620Y14217D02*
Y24374D01*
X247699Y19295D01*
X240928D01*
X194476Y25373D02*
Y16910D01*
X192783Y15217D01*
X189398D01*
X187705Y16910D01*
Y25373D01*
X184319Y15217D02*
X180934D01*
X182626D01*
Y25373D01*
X184319Y23681D01*
X175855Y13524D02*
X169084D01*
X165699Y15217D02*
X162313D01*
X164006D01*
Y25373D01*
X165699Y23681D01*
X268705Y69988D02*
X270398Y71681D01*
X273783D01*
X275476Y69988D01*
Y63217D01*
X273783Y61524D01*
X270398D01*
X268705Y63217D01*
X260241Y71681D02*
X263626D01*
X265319Y69988D01*
Y63217D01*
X263626Y61524D01*
X260241D01*
X258548Y63217D01*
Y69988D01*
X260241Y71681D01*
X255163Y61524D02*
Y71681D01*
X251777Y68295D01*
X248391Y71681D01*
Y61524D01*
X184476D02*
X181090D01*
X182783D01*
Y71681D01*
X184476Y69988D01*
X204705Y61524D02*
X211476D01*
X204705Y68295D01*
Y69988D01*
X206398Y71681D01*
X209783D01*
X211476Y69988D01*
X236476D02*
X234783Y71681D01*
X231398D01*
X229705Y69988D01*
Y68295D01*
X231398Y66602D01*
X233090D01*
X231398D01*
X229705Y64910D01*
Y63217D01*
X231398Y61524D01*
X234783D01*
X236476Y63217D01*
X11626Y425476D02*
X20090D01*
X21783Y423783D01*
Y420398D01*
X20090Y418705D01*
X11626D01*
X21783Y410241D02*
X11626D01*
X16705Y415319D01*
Y408548D01*
X23476Y405163D02*
Y398391D01*
X21783Y389927D02*
X11626D01*
X16705Y395006D01*
Y388235D01*
X11626Y493476D02*
X20090D01*
X21783Y491783D01*
Y488398D01*
X20090Y486705D01*
X11626D01*
X21783Y478241D02*
X11626D01*
X16705Y483319D01*
Y476548D01*
X23476Y473162D02*
Y466391D01*
X21783Y463006D02*
Y459620D01*
Y461313D01*
X11626D01*
X13319Y463006D01*
X65012Y404705D02*
X63319Y406398D01*
Y409783D01*
X65012Y411476D01*
X71783D01*
X73476Y409783D01*
Y406398D01*
X71783Y404705D01*
X63319Y396241D02*
Y399627D01*
X65012Y401319D01*
X71783D01*
X73476Y399627D01*
Y396241D01*
X71783Y394548D01*
X65012D01*
X63319Y396241D01*
X73476Y391163D02*
X63319D01*
X66705Y387777D01*
X63319Y384391D01*
X73476D01*
X79476Y431681D02*
Y423217D01*
X77783Y421524D01*
X74398D01*
X72705Y423217D01*
Y431681D01*
X69319Y429988D02*
X67627Y431681D01*
X64241D01*
X62548Y429988D01*
Y428295D01*
X64241Y426602D01*
X65934D01*
X64241D01*
X62548Y424910D01*
Y423217D01*
X64241Y421524D01*
X67627D01*
X69319Y423217D01*
X80476Y456681D02*
Y448217D01*
X78783Y446524D01*
X75398D01*
X73705Y448217D01*
Y456681D01*
X63548Y446524D02*
X70319D01*
X63548Y453295D01*
Y454988D01*
X65241Y456681D01*
X68626D01*
X70319Y454988D01*
X76476Y481681D02*
Y473217D01*
X74783Y471524D01*
X71398D01*
X69705Y473217D01*
Y481681D01*
X66319Y471524D02*
X62934D01*
X64626D01*
Y481681D01*
X66319Y479988D01*
X287476Y598373D02*
Y589910D01*
X285783Y588217D01*
X282398D01*
X280705Y589910D01*
Y598373D01*
X277319Y596681D02*
X275627Y598373D01*
X272241D01*
X270548Y596681D01*
Y594988D01*
X272241Y593295D01*
X273934D01*
X272241D01*
X270548Y591602D01*
Y589910D01*
X272241Y588217D01*
X275627D01*
X277319Y589910D01*
X267163Y586524D02*
X260391D01*
X257006Y588217D02*
X253620D01*
X255313D01*
Y598373D01*
X257006Y596681D01*
X195476Y597374D02*
Y588910D01*
X193783Y587217D01*
X190398D01*
X188705Y588910D01*
Y597374D01*
X185319Y595681D02*
X183626Y597374D01*
X180241D01*
X178548Y595681D01*
Y593988D01*
X180241Y592295D01*
X181934D01*
X180241D01*
X178548Y590602D01*
Y588910D01*
X180241Y587217D01*
X183626D01*
X185319Y588910D01*
X175163Y585524D02*
X168391D01*
X159928Y587217D02*
Y597374D01*
X165006Y592295D01*
X158235D01*
X265240Y643561D02*
X258469D01*
Y641868D01*
X265240Y635097D01*
Y633404D01*
X238476Y641988D02*
X236783Y643681D01*
X233398D01*
X231705Y641988D01*
Y640295D01*
X233398Y638602D01*
X231705Y636910D01*
Y635217D01*
X233398Y633524D01*
X236783D01*
X238476Y635217D01*
Y636910D01*
X236783Y638602D01*
X238476Y640295D01*
Y641988D01*
X236783Y638602D02*
X233398D01*
X212476Y635217D02*
X210783Y633524D01*
X207398D01*
X205705Y635217D01*
Y641988D01*
X207398Y643681D01*
X210783D01*
X212476Y641988D01*
Y640295D01*
X210783Y638602D01*
X205705D01*
X186705Y641988D02*
X188398Y643681D01*
X191783D01*
X193476Y641988D01*
Y635217D01*
X191783Y633524D01*
X188398D01*
X186705Y635217D01*
X178241Y643681D02*
X181626D01*
X183319Y641988D01*
Y635217D01*
X181626Y633524D01*
X178241D01*
X176548Y635217D01*
Y641988D01*
X178241Y643681D01*
X173162Y633524D02*
Y643681D01*
X169777Y640295D01*
X166391Y643681D01*
Y633524D01*
M02*
