G04*
G04 #@! TF.GenerationSoftware,Altium Limited,Altium Designer,24.0.1 (36)*
G04*
G04 Layer_Color=65535*
%FSLAX44Y44*%
%MOMM*%
G71*
G04*
G04 #@! TF.SameCoordinates,8E3682EF-1996-423B-9767-EFD2347B91C7*
G04*
G04*
G04 #@! TF.FilePolarity,Positive*
G04*
G01*
G75*
%ADD10C,0.2000*%
%ADD11C,0.2540*%
%ADD12C,0.1270*%
%ADD13C,0.1524*%
G36*
X94939Y114172D02*
Y106252D01*
X94585Y105899D01*
X90767Y109717D01*
X90767Y110000D01*
X94939Y114172D01*
D02*
G37*
G36*
X46802Y192596D02*
X24007D01*
Y197979D01*
X46802D01*
Y192596D01*
D02*
G37*
G36*
X47203Y197964D02*
X47591Y197919D01*
X47963Y197850D01*
X48343Y197759D01*
X48708Y197637D01*
X49058Y197485D01*
X49408Y197318D01*
X49734Y197120D01*
X50054Y196900D01*
X50350Y196657D01*
X50639Y196398D01*
X50897Y196110D01*
X51140Y195813D01*
X51361Y195494D01*
X51558Y195167D01*
X51726Y194817D01*
X51878Y194468D01*
X52000Y194103D01*
X52091Y193723D01*
X52159Y193350D01*
X52197Y192963D01*
Y192166D01*
X51908Y191232D01*
X51285Y190038D01*
X50120Y188629D01*
X29417Y167919D01*
X29413Y167909D01*
Y167681D01*
X29417Y167671D01*
X29427Y167667D01*
X52212D01*
Y162307D01*
X29039D01*
X28659Y162337D01*
X28279Y162405D01*
X27907Y162504D01*
X27542Y162626D01*
X27185Y162770D01*
X26842Y162945D01*
X26508Y163143D01*
X26196Y163363D01*
X25892Y163599D01*
X25611Y163865D01*
X25345Y164146D01*
X25109Y164450D01*
X24889Y164762D01*
X24692Y165096D01*
X24516Y165438D01*
X24372Y165795D01*
X24250Y166161D01*
X24152Y166533D01*
X24083Y166913D01*
X24045Y167293D01*
X24030Y167681D01*
X24045Y168158D01*
X24577Y169755D01*
X25185Y170591D01*
X26099Y171657D01*
X46825Y192383D01*
X46829Y192392D01*
Y197979D01*
X47203Y197964D01*
D02*
G37*
G36*
X29413Y266079D02*
Y254838D01*
X29417Y254828D01*
X29427Y254825D01*
X52212D01*
Y249457D01*
X29427D01*
X29417Y249453D01*
X29413Y249443D01*
Y219725D01*
X29413Y219725D01*
X29413Y219725D01*
X29421Y219519D01*
X29421Y219519D01*
X29421Y219518D01*
X29444Y219305D01*
X29444Y219304D01*
X29444Y219304D01*
X29482Y219098D01*
X29482Y219098D01*
X29482Y219097D01*
X29528Y218899D01*
X29528Y218899D01*
X29528Y218898D01*
X29597Y218700D01*
X29597Y218699D01*
Y218699D01*
X29673Y218501D01*
X29674Y218501D01*
X29674Y218500D01*
X29803Y218248D01*
X29804Y218248D01*
X29804Y218248D01*
X29872Y218133D01*
X29873Y218133D01*
X29873Y218133D01*
X29987Y217958D01*
X29987Y217957D01*
X29988Y217956D01*
X30117Y217796D01*
X30117Y217796D01*
X30117Y217796D01*
X30255Y217636D01*
X30255Y217636D01*
X30256Y217635D01*
X30408Y217490D01*
X30408Y217490D01*
X30409Y217490D01*
X30569Y217360D01*
X30569Y217360D01*
X30569Y217360D01*
X30737Y217238D01*
X30738Y217238D01*
X30738Y217237D01*
X30951Y217108D01*
X30951Y217108D01*
X30952Y217107D01*
X31096Y217024D01*
X31097Y217024D01*
X31098Y217023D01*
X31288Y216939D01*
X31289Y216939D01*
X31289Y216939D01*
X31533Y216855D01*
X31534Y216855D01*
X31534Y216855D01*
X31694Y216809D01*
X31694Y216809D01*
X31695Y216809D01*
X31893Y216763D01*
X31893Y216763D01*
X31894Y216763D01*
X32122Y216732D01*
X32123Y216733D01*
X32124Y216732D01*
X32314Y216725D01*
X32315Y216725D01*
X32315Y216725D01*
X32520D01*
X32521Y216725D01*
X32521Y216725D01*
X32735Y216740D01*
X32735Y216740D01*
X32735Y216740D01*
X32941Y216763D01*
X32942Y216763D01*
X32943Y216763D01*
X33141Y216809D01*
X33141Y216809D01*
X33141Y216809D01*
X33301Y216855D01*
X33302Y216855D01*
X33302Y216855D01*
X33546Y216939D01*
X33546Y216939D01*
X33547Y216939D01*
X33737Y217023D01*
X33738Y217024D01*
X33739Y217024D01*
X33884Y217107D01*
X33884Y217108D01*
X33884Y217108D01*
X34097Y217237D01*
X34098Y217238D01*
X34098Y217238D01*
X34266Y217360D01*
X34266Y217360D01*
X34267Y217360D01*
X34465Y217528D01*
X34465Y217528D01*
X34465Y217528D01*
X34580Y217635D01*
X34580Y217636D01*
X34581Y217636D01*
X34718Y217796D01*
X34718Y217796D01*
X34718Y217796D01*
X34848Y217956D01*
X34848Y217957D01*
X34848Y217958D01*
X34963Y218133D01*
X34963Y218133D01*
X34963Y218133D01*
X35031Y218248D01*
X35031Y218248D01*
X35032Y218248D01*
X35070Y218316D01*
X35070Y218317D01*
X35070Y218317D01*
X35161Y218500D01*
X35161Y218501D01*
X35162Y218501D01*
X35238Y218699D01*
Y218699D01*
X35238Y218700D01*
X35307Y218898D01*
X35307Y218899D01*
X35307Y218899D01*
X35353Y219097D01*
X35353Y219098D01*
X35353Y219098D01*
X35391Y219304D01*
X35391Y219304D01*
X35391Y219305D01*
X35414Y219518D01*
X35414Y219519D01*
X35414Y219519D01*
X35422Y219725D01*
X35422Y219725D01*
X35422Y219725D01*
Y237670D01*
X35483Y238248D01*
X35589Y238826D01*
X35726Y239396D01*
X35909Y239952D01*
X36129Y240499D01*
X36388Y241024D01*
X36677Y241534D01*
X37012Y242021D01*
X37369Y242485D01*
X37765Y242919D01*
X38184Y243330D01*
X38633Y243702D01*
X39112Y244052D01*
X39606Y244357D01*
X40124Y244638D01*
X40664Y244874D01*
X40892Y244958D01*
D01*
X41082Y245026D01*
D01*
X41280Y245095D01*
X41523Y245163D01*
X41523D01*
X41972Y245277D01*
X42140Y245315D01*
X42687Y245406D01*
X43091Y245452D01*
X43517Y245483D01*
X44102D01*
X44734Y245437D01*
X45121Y245384D01*
X45479Y245315D01*
X45479Y245315D01*
X45959Y245201D01*
X46225Y245125D01*
X46225D01*
X46225Y245125D01*
X46446Y245064D01*
X46788Y244935D01*
X46788D01*
X46788Y244935D01*
X46956Y244874D01*
X47495Y244638D01*
X48013Y244357D01*
X48507Y244052D01*
X48987Y243702D01*
X49435Y243330D01*
X49854Y242919D01*
X50250Y242485D01*
X50607Y242021D01*
X50942Y241534D01*
X51231Y241024D01*
X51490Y240499D01*
X51710Y239952D01*
X51893Y239396D01*
X52030Y238826D01*
X52136Y238248D01*
X52197Y237670D01*
X52212Y237083D01*
Y207379D01*
X52210D01*
X52206Y207377D01*
X52201Y207376D01*
X52201Y207375D01*
X52201Y207375D01*
X52199Y207371D01*
X52197Y207366D01*
X52182Y206978D01*
X52144Y206590D01*
X52075Y206218D01*
X51977Y205838D01*
X51855Y205473D01*
X51711Y205123D01*
X51536Y204774D01*
X51338Y204447D01*
X51118Y204127D01*
X50882Y203831D01*
X50616Y203542D01*
X50335Y203284D01*
X50031Y203041D01*
X49719Y202820D01*
X49385Y202623D01*
X49043Y202455D01*
X48685Y202303D01*
X48320Y202182D01*
X47948Y202090D01*
X47568Y202022D01*
X47188Y201977D01*
X24007D01*
Y207352D01*
X46800D01*
X46810Y207356D01*
X46814Y207365D01*
Y237083D01*
X46814Y237084D01*
X46814Y237084D01*
X46806Y237290D01*
X46806Y237290D01*
X46806Y237291D01*
X46783Y237496D01*
X46783Y237497D01*
X46783Y237498D01*
X46745Y237703D01*
X46745Y237703D01*
X46745Y237704D01*
X46699Y237909D01*
X46699Y237910D01*
X46699Y237911D01*
X46630Y238109D01*
X46630Y238109D01*
Y238110D01*
X46554Y238300D01*
X46554Y238300D01*
X46554Y238301D01*
X46462Y238491D01*
X46462Y238492D01*
X46462Y238492D01*
X46424Y238561D01*
X46423Y238561D01*
X46423Y238561D01*
X46354Y238668D01*
X46354Y238668D01*
Y238668D01*
X46240Y238843D01*
X46240Y238844D01*
X46240Y238844D01*
X46110Y239012D01*
X46109Y239012D01*
X46109Y239013D01*
X45972Y239165D01*
X45972Y239165D01*
X45972Y239166D01*
X45857Y239280D01*
X45857Y239280D01*
X45856Y239281D01*
X45819Y239311D01*
D01*
X45658Y239448D01*
X45658Y239449D01*
X45658Y239449D01*
X45490Y239571D01*
X45490Y239571D01*
X45489Y239572D01*
X45314Y239678D01*
X45314D01*
X45314Y239678D01*
X45276Y239701D01*
X45275Y239701D01*
X45275Y239702D01*
X45130Y239778D01*
X45130Y239778D01*
X45129Y239778D01*
X44939Y239862D01*
X44939D01*
X44938Y239862D01*
X44740Y239938D01*
X44739Y239938D01*
X44738Y239939D01*
X44692Y239947D01*
X44533Y239992D01*
X44533Y239992D01*
X44533Y239992D01*
X44335Y240038D01*
X44334Y240038D01*
X44333Y240038D01*
X44128Y240069D01*
X44127Y240069D01*
X44127Y240069D01*
X43913Y240084D01*
X43913Y240084D01*
X43912Y240084D01*
X43707D01*
X43706Y240084D01*
X43706Y240084D01*
X43515Y240069D01*
X43515Y240069D01*
X43514Y240069D01*
X43286Y240038D01*
X43285Y240038D01*
X43285Y240038D01*
X43086Y239992D01*
X43086Y239992D01*
X43086Y239992D01*
X42926Y239946D01*
X42925Y239946D01*
X42925Y239946D01*
X42681Y239862D01*
X42681Y239862D01*
X42680Y239862D01*
X42490Y239778D01*
X42489Y239778D01*
X42489Y239778D01*
X42344Y239702D01*
X42344Y239701D01*
X42343Y239701D01*
X42130Y239572D01*
X42130Y239571D01*
X42129Y239571D01*
X41961Y239449D01*
X41961Y239449D01*
X41960Y239448D01*
X41800Y239311D01*
X41800Y239311D01*
X41800Y239311D01*
X41648Y239166D01*
X41647Y239165D01*
X41647Y239165D01*
X41510Y239013D01*
X41509Y239012D01*
X41509Y239012D01*
X41379Y238844D01*
X41379Y238844D01*
X41379Y238843D01*
X41265Y238668D01*
Y238668D01*
X41265Y238668D01*
X41196Y238561D01*
X41196Y238561D01*
X41195Y238560D01*
X41066Y238301D01*
X41066Y238301D01*
X41065Y238300D01*
X40989Y238110D01*
Y238109D01*
X40989Y238109D01*
X40920Y237911D01*
X40920Y237910D01*
X40920Y237909D01*
X40874Y237704D01*
X40874Y237703D01*
X40874Y237703D01*
X40836Y237498D01*
X40836Y237497D01*
X40836Y237496D01*
X40813Y237291D01*
X40813Y237290D01*
X40813Y237290D01*
X40805Y237084D01*
X40805Y237084D01*
X40805Y237083D01*
Y219139D01*
X40744Y218554D01*
X40638Y217975D01*
X40501Y217405D01*
X40318Y216850D01*
X40098Y216309D01*
X39839Y215777D01*
X39550Y215267D01*
X39215Y214788D01*
X38858Y214324D01*
X38462Y213882D01*
X38044Y213479D01*
X37595Y213099D01*
X37115Y212756D01*
X36621Y212445D01*
X36104Y212171D01*
X35564Y211927D01*
X35336Y211851D01*
X35335Y211851D01*
X35335D01*
X35221Y211805D01*
X35054Y211745D01*
X34948Y211714D01*
X34947Y211714D01*
X34947Y211714D01*
X34833Y211676D01*
X34833Y211676D01*
X34704Y211638D01*
X34567Y211600D01*
X34567Y211600D01*
X34415Y211562D01*
D01*
X34255Y211524D01*
X34088Y211494D01*
X34088Y211493D01*
X34087Y211494D01*
X33875Y211448D01*
X33730Y211425D01*
X33730D01*
X33730D01*
X33540Y211395D01*
D01*
X33296Y211364D01*
X33137Y211357D01*
X33137Y211357D01*
X33137Y211357D01*
X32939Y211341D01*
X32939D01*
X32710Y211326D01*
X32125D01*
X31897Y211341D01*
X31897D01*
X31699Y211357D01*
D01*
X31699Y211357D01*
X31493Y211372D01*
X31493D01*
X31295Y211395D01*
X31295D01*
X31105Y211425D01*
X31105Y211425D01*
X30923Y211456D01*
X30748Y211494D01*
X30748Y211493D01*
X30747Y211494D01*
X30580Y211524D01*
X30421Y211562D01*
D01*
X30269Y211600D01*
X30269Y211600D01*
X30131Y211638D01*
X30002Y211676D01*
D01*
X29690Y211775D01*
X29546Y211828D01*
D01*
X29432Y211874D01*
X29431D01*
X29431Y211874D01*
X29272Y211927D01*
X28732Y212171D01*
X28214Y212445D01*
X27720Y212756D01*
X27241Y213099D01*
X26792Y213479D01*
X26373Y213882D01*
X25977Y214324D01*
X25620Y214788D01*
X25285Y215267D01*
X24996Y215777D01*
X24738Y216309D01*
X24517Y216850D01*
X24334Y217405D01*
X24197Y217975D01*
X24091Y218554D01*
X24030Y219139D01*
X24007Y219726D01*
Y266079D01*
X29413D01*
D02*
G37*
G36*
X105828Y314939D02*
X113748D01*
X114101Y314585D01*
X110283Y310767D01*
X110000Y310767D01*
X105828Y314939D01*
D02*
G37*
G36*
X325828D02*
X333748D01*
X334101Y314585D01*
X330283Y310767D01*
X330000Y310767D01*
X325828Y314939D01*
D02*
G37*
G36*
X125061Y545828D02*
Y553748D01*
X125415Y554101D01*
X129233Y550283D01*
X129233Y550000D01*
X125061Y545828D01*
D02*
G37*
D10*
X401000Y276600D02*
G03*
X401000Y276600I-1000J0D01*
G01*
X45450Y495450D02*
G03*
X45450Y495450I-1000J0D01*
G01*
X280600Y616000D02*
G03*
X280600Y616000I-1000J0D01*
G01*
X164000Y43000D02*
G03*
X164000Y43000I-1000J0D01*
G01*
X387300Y168500D02*
Y270100D01*
X412700Y168500D02*
Y270100D01*
X387300Y168500D02*
X412700D01*
X387300Y270100D02*
X412700D01*
X31750Y387350D02*
Y488950D01*
X57150Y387350D02*
Y488950D01*
X31750Y387350D02*
X57150D01*
X31750Y488950D02*
X57150D01*
X171500Y628700D02*
X273100D01*
X171500Y603300D02*
X273100D01*
X171500D02*
Y628700D01*
X273100Y603300D02*
Y628700D01*
X169500Y30300D02*
X271100D01*
X169500Y55700D02*
X271100D01*
Y30300D02*
Y55700D01*
X169500Y30300D02*
Y55700D01*
D11*
X115950Y308221D02*
G03*
X115950Y308221I-1000J0D01*
G01*
X132779Y554950D02*
G03*
X132779Y554950I-1000J0D01*
G01*
X335950Y308221D02*
G03*
X335950Y308221I-1000J0D01*
G01*
X89221Y105050D02*
G03*
X89221Y105050I-1000J0D01*
G01*
X414038Y144540D02*
Y159535D01*
X406540Y152038D01*
X416537D01*
X24540Y60540D02*
X29538D01*
X27039D01*
Y75535D01*
X24540Y73036D01*
X154537Y23540D02*
X144540D01*
X154537Y33537D01*
Y36036D01*
X152038Y38535D01*
X147039D01*
X144540Y36036D01*
X362540Y37036D02*
X365039Y39535D01*
X370038D01*
X372537Y37036D01*
Y34537D01*
X370038Y32038D01*
X367538D01*
X370038D01*
X372537Y29538D01*
Y27039D01*
X370038Y24540D01*
X365039D01*
X362540Y27039D01*
X415537Y378535D02*
X405540D01*
Y371038D01*
X410538Y373537D01*
X413038D01*
X415537Y371038D01*
Y366039D01*
X413038Y363540D01*
X408039D01*
X405540Y366039D01*
X415537Y599535D02*
X410538Y597036D01*
X405540Y592038D01*
Y587039D01*
X408039Y584540D01*
X413038D01*
X415537Y587039D01*
Y589538D01*
X413038Y592038D01*
X405540D01*
X286540Y634535D02*
X296537D01*
Y632036D01*
X286540Y622039D01*
Y619540D01*
X65540Y633036D02*
X68039Y635535D01*
X73038D01*
X75537Y633036D01*
Y630537D01*
X73038Y628038D01*
X75537Y625538D01*
Y623039D01*
X73038Y620540D01*
X68039D01*
X65540Y623039D01*
Y625538D01*
X68039Y628038D01*
X65540Y630537D01*
Y633036D01*
X68039Y628038D02*
X73038D01*
X22540Y504039D02*
X25039Y501540D01*
X30038D01*
X32537Y504039D01*
Y514036D01*
X30038Y516535D01*
X25039D01*
X22540Y514036D01*
Y511537D01*
X25039Y509038D01*
X32537D01*
X6540Y296236D02*
X10772D01*
X8656D01*
Y283540D01*
X6540D01*
X10772D01*
X17120D02*
Y296236D01*
X25584Y283540D01*
Y296236D01*
X29816Y283540D02*
X38280Y292004D01*
X48860Y296236D02*
X44628D01*
X42512Y294120D01*
Y285656D01*
X44628Y283540D01*
X48860D01*
X50976Y285656D01*
Y294120D01*
X48860Y296236D01*
X55208D02*
Y285656D01*
X57323Y283540D01*
X61556D01*
X63671Y285656D01*
Y296236D01*
X67903D02*
X76367D01*
X72135D01*
Y283540D01*
X59536Y374078D02*
Y365614D01*
X61229Y363922D01*
X64614D01*
X66307Y365614D01*
Y374078D01*
X74771Y363922D02*
Y374078D01*
X69693Y369000D01*
X76464D01*
X141536Y592078D02*
Y583614D01*
X143229Y581922D01*
X146614D01*
X148307Y583614D01*
Y592078D01*
X151693Y590386D02*
X153386Y592078D01*
X156771D01*
X158464Y590386D01*
Y588693D01*
X156771Y587000D01*
X155078D01*
X156771D01*
X158464Y585307D01*
Y583614D01*
X156771Y581922D01*
X153386D01*
X151693Y583614D01*
X363536Y297078D02*
Y288614D01*
X365229Y286922D01*
X368614D01*
X370307Y288614D01*
Y297078D01*
X380464Y286922D02*
X373693D01*
X380464Y293693D01*
Y295386D01*
X378771Y297078D01*
X375386D01*
X373693Y295386D01*
X147229Y79078D02*
Y70614D01*
X148922Y68922D01*
X152307D01*
X154000Y70614D01*
Y79078D01*
X157386Y68922D02*
X160771D01*
X159078D01*
Y79078D01*
X157386Y77386D01*
D12*
X110000Y349233D02*
X129233Y330000D01*
X110000Y310767D02*
X129233Y330000D01*
X90767D02*
X110000Y310767D01*
X90767Y330000D02*
X110000Y349233D01*
X90767Y550000D02*
X110000Y530767D01*
X129233Y550000D01*
X110000Y569233D02*
X129233Y550000D01*
X90767D02*
X110000Y569233D01*
X330000Y349233D02*
X349233Y330000D01*
X330000Y310767D02*
X349233Y330000D01*
X310767D02*
X330000Y310767D01*
X310767Y330000D02*
X330000Y349233D01*
X110000Y90767D02*
X129233Y110000D01*
X90767D02*
X110000Y90767D01*
X90767Y110000D02*
X110000Y129233D01*
X129233Y110000D01*
X412945Y426270D02*
X406089D01*
X408374Y428555D01*
X406089Y430840D01*
X412945D01*
X408374Y434268D02*
Y436554D01*
X409517Y437696D01*
X412945D01*
Y434268D01*
X411802Y433126D01*
X410659Y434268D01*
Y437696D01*
X408374Y439982D02*
X411802D01*
X412945Y441124D01*
Y444552D01*
X414087D01*
X415230Y443410D01*
Y442267D01*
X412945Y444552D02*
X408374D01*
X412945Y458264D02*
Y453693D01*
X408374Y458264D01*
X407232D01*
X406089Y457121D01*
Y454836D01*
X407232Y453693D01*
Y460549D02*
X406089Y461692D01*
Y463977D01*
X407232Y465120D01*
X411802D01*
X412945Y463977D01*
Y461692D01*
X411802Y460549D01*
X407232D01*
X412945Y471975D02*
Y467405D01*
X408374Y471975D01*
X407232D01*
X406089Y470833D01*
Y468547D01*
X407232Y467405D01*
X412945Y477688D02*
X406089D01*
X409517Y474260D01*
Y478831D01*
X378159Y426020D02*
X382730D01*
X380445D01*
X379302Y427163D01*
X378159Y428305D01*
Y429448D01*
X382730Y436304D02*
Y434018D01*
X381587Y432876D01*
X379302D01*
X378159Y434018D01*
Y436304D01*
X379302Y437446D01*
X380445D01*
Y432876D01*
X378159Y439732D02*
X382730Y442017D01*
X378159Y444302D01*
X377017Y453443D02*
X375874Y454586D01*
Y456871D01*
X377017Y458014D01*
X381587D01*
X382730Y456871D01*
Y454586D01*
X381587Y453443D01*
X377017D01*
X390589Y426020D02*
X397445D01*
Y430591D01*
X392874Y434018D02*
Y436304D01*
X394017Y437446D01*
X397445D01*
Y434018D01*
X396302Y432876D01*
X395159Y434018D01*
Y437446D01*
X397445Y440874D02*
X391732D01*
X394017D01*
Y439732D01*
Y442017D01*
Y440874D01*
X391732D01*
X390589Y442017D01*
X397445Y448873D02*
Y446587D01*
X396302Y445445D01*
X394017D01*
X392874Y446587D01*
Y448873D01*
X394017Y450015D01*
X395159D01*
Y445445D01*
X391732Y463727D02*
X390589Y462584D01*
Y460299D01*
X391732Y459156D01*
X392874D01*
X394017Y460299D01*
Y462584D01*
X395159Y463727D01*
X396302D01*
X397445Y462584D01*
Y460299D01*
X396302Y459156D01*
X399730Y466012D02*
X392874D01*
Y469440D01*
X394017Y470583D01*
X396302D01*
X397445Y469440D01*
Y466012D01*
Y472868D02*
Y475153D01*
Y474011D01*
X392874D01*
Y472868D01*
X397445Y482009D02*
Y479724D01*
X396302Y478581D01*
X394017D01*
X392874Y479724D01*
Y482009D01*
X394017Y483152D01*
X395159D01*
Y478581D01*
X391732Y486579D02*
X392874D01*
Y485437D01*
Y487722D01*
Y486579D01*
X396302D01*
X397445Y487722D01*
X392874Y491150D02*
Y495720D01*
X397445Y491150D01*
Y495720D01*
X369445Y359270D02*
X364874D01*
Y360413D01*
X366017Y361555D01*
X369445D01*
X366017D01*
X364874Y362698D01*
X366017Y363840D01*
X369445D01*
Y369554D02*
Y367268D01*
X368302Y366126D01*
X366017D01*
X364874Y367268D01*
Y369554D01*
X366017Y370696D01*
X367159D01*
Y366126D01*
X369445Y372982D02*
X364874D01*
Y374124D01*
X366017Y375267D01*
X369445D01*
X366017D01*
X364874Y376409D01*
X366017Y377552D01*
X369445D01*
Y379837D02*
Y383265D01*
X368302Y384408D01*
X367159Y383265D01*
Y380980D01*
X366017Y379837D01*
X364874Y380980D01*
Y384408D01*
X366017Y386693D02*
Y391264D01*
X369445Y393549D02*
Y396977D01*
X368302Y398119D01*
X367159Y396977D01*
Y394692D01*
X366017Y393549D01*
X364874Y394692D01*
Y398119D01*
Y400405D02*
X368302D01*
X369445Y401547D01*
X368302Y402690D01*
X369445Y403833D01*
X368302Y404975D01*
X364874D01*
X369445Y407261D02*
Y409546D01*
Y408403D01*
X364874D01*
Y407261D01*
X363732Y414116D02*
X364874D01*
Y412974D01*
Y415259D01*
Y414116D01*
X368302D01*
X369445Y415259D01*
X364874Y423257D02*
Y419829D01*
X366017Y418687D01*
X368302D01*
X369445Y419829D01*
Y423257D01*
X362589Y425543D02*
X369445D01*
X366017D01*
X364874Y426685D01*
Y428970D01*
X366017Y430113D01*
X369445D01*
Y435826D02*
Y433541D01*
X368302Y432398D01*
X366017D01*
X364874Y433541D01*
Y435826D01*
X366017Y436969D01*
X367159D01*
Y432398D01*
X369445Y439254D02*
Y442682D01*
X368302Y443825D01*
X367159Y442682D01*
Y440397D01*
X366017Y439254D01*
X364874Y440397D01*
Y443825D01*
X366017Y446110D02*
Y450681D01*
X364874Y452966D02*
X369445D01*
X367159D01*
X366017Y454108D01*
X364874Y455251D01*
Y456394D01*
X369445Y463249D02*
Y460964D01*
X368302Y459822D01*
X366017D01*
X364874Y460964D01*
Y463249D01*
X366017Y464392D01*
X367159D01*
Y459822D01*
X364874Y471248D02*
Y467820D01*
X366017Y466677D01*
X368302D01*
X369445Y467820D01*
Y471248D01*
X363732Y474676D02*
X364874D01*
Y473533D01*
Y475818D01*
Y474676D01*
X368302D01*
X369445Y475818D01*
X364874Y480389D02*
Y482674D01*
X366017Y483817D01*
X369445D01*
Y480389D01*
X368302Y479246D01*
X367159Y480389D01*
Y483817D01*
X369445Y486102D02*
X364874D01*
Y489530D01*
X366017Y490673D01*
X369445D01*
X371730Y495243D02*
Y496386D01*
X370587Y497528D01*
X364874D01*
Y494100D01*
X366017Y492958D01*
X368302D01*
X369445Y494100D01*
Y497528D01*
Y499814D02*
Y502099D01*
Y500956D01*
X362589D01*
Y499814D01*
X369445Y508955D02*
Y506669D01*
X368302Y505527D01*
X366017D01*
X364874Y506669D01*
Y508955D01*
X366017Y510097D01*
X367159D01*
Y505527D01*
X369445Y512383D02*
Y514668D01*
Y513525D01*
X362589D01*
X363732Y512383D01*
X369445Y518096D02*
Y520381D01*
Y519238D01*
X362589D01*
X363732Y518096D01*
D13*
X172295Y641988D02*
X170602Y643681D01*
X167217D01*
X165524Y641988D01*
Y635217D01*
X167217Y633524D01*
X170602D01*
X172295Y635217D01*
X180759Y643681D02*
X177374D01*
X175681Y641988D01*
Y635217D01*
X177374Y633524D01*
X180759D01*
X182452Y635217D01*
Y641988D01*
X180759Y643681D01*
X185837Y633524D02*
Y643681D01*
X189223Y640295D01*
X192609Y643681D01*
Y633524D01*
X205524Y635217D02*
X207217Y633524D01*
X210602D01*
X212295Y635217D01*
Y641988D01*
X210602Y643681D01*
X207217D01*
X205524Y641988D01*
Y640295D01*
X207217Y638602D01*
X212295D01*
X231524Y641988D02*
X233217Y643681D01*
X236602D01*
X238295Y641988D01*
Y640295D01*
X236602Y638602D01*
X238295Y636910D01*
Y635217D01*
X236602Y633524D01*
X233217D01*
X231524Y635217D01*
Y636910D01*
X233217Y638602D01*
X231524Y640295D01*
Y641988D01*
X233217Y638602D02*
X236602D01*
X258288Y643561D02*
X265059D01*
Y641868D01*
X258288Y635097D01*
Y633404D01*
X426056Y213364D02*
X422671Y211671D01*
X419285Y208286D01*
Y204900D01*
X420978Y203207D01*
X424363D01*
X426056Y204900D01*
Y206593D01*
X424363Y208286D01*
X419285D01*
X426442Y238436D02*
X419671D01*
Y233358D01*
X423056Y235050D01*
X424749D01*
X426442Y233358D01*
Y229972D01*
X424749Y228279D01*
X421363D01*
X419671Y229972D01*
X425376Y254266D02*
Y264423D01*
X420297Y259344D01*
X427068D01*
X420012Y168295D02*
X418319Y166602D01*
Y163217D01*
X420012Y161524D01*
X426783D01*
X428476Y163217D01*
Y166602D01*
X426783Y168295D01*
X418319Y176759D02*
Y173374D01*
X420012Y171681D01*
X426783D01*
X428476Y173374D01*
Y176759D01*
X426783Y178452D01*
X420012D01*
X418319Y176759D01*
X428476Y181838D02*
X418319D01*
X421705Y185223D01*
X418319Y188609D01*
X428476D01*
X229524Y69988D02*
X231217Y71681D01*
X234602D01*
X236295Y69988D01*
Y68295D01*
X234602Y66602D01*
X232910D01*
X234602D01*
X236295Y64910D01*
Y63217D01*
X234602Y61524D01*
X231217D01*
X229524Y63217D01*
X211295Y61524D02*
X204524D01*
X211295Y68295D01*
Y69988D01*
X209602Y71681D01*
X206217D01*
X204524Y69988D01*
X180524Y61524D02*
X183910D01*
X182217D01*
Y71681D01*
X180524Y69988D01*
X254295D02*
X252602Y71681D01*
X249217D01*
X247524Y69988D01*
Y63217D01*
X249217Y61524D01*
X252602D01*
X254295Y63217D01*
X262759Y71681D02*
X259373D01*
X257681Y69988D01*
Y63217D01*
X259373Y61524D01*
X262759D01*
X264452Y63217D01*
Y69988D01*
X262759Y71681D01*
X267837Y61524D02*
Y71681D01*
X271223Y68295D01*
X274609Y71681D01*
Y61524D01*
X63451Y482576D02*
Y474112D01*
X65144Y472420D01*
X68529D01*
X70222Y474112D01*
Y482576D01*
X73608Y472420D02*
X76993D01*
X75300D01*
Y482576D01*
X73608Y480883D01*
X62451Y456576D02*
Y448112D01*
X64144Y446419D01*
X67529D01*
X69222Y448112D01*
Y456576D01*
X79379Y446419D02*
X72608D01*
X79379Y453191D01*
Y454883D01*
X77686Y456576D01*
X74300D01*
X72608Y454883D01*
X62827Y431150D02*
Y422686D01*
X64520Y420993D01*
X67905D01*
X69598Y422686D01*
Y431150D01*
X72984Y429457D02*
X74676Y431150D01*
X78062D01*
X79755Y429457D01*
Y427765D01*
X78062Y426072D01*
X76369D01*
X78062D01*
X79755Y424379D01*
Y422686D01*
X78062Y420993D01*
X74676D01*
X72984Y422686D01*
X65012Y390295D02*
X63319Y388602D01*
Y385217D01*
X65012Y383524D01*
X71783D01*
X73476Y385217D01*
Y388602D01*
X71783Y390295D01*
X63319Y398759D02*
Y395373D01*
X65012Y393681D01*
X71783D01*
X73476Y395373D01*
Y398759D01*
X71783Y400452D01*
X65012D01*
X63319Y398759D01*
X73476Y403838D02*
X63319D01*
X66705Y407223D01*
X63319Y410609D01*
X73476D01*
X95730Y341754D02*
X92524Y344961D01*
X91669Y345388D01*
X90814D01*
X89958Y344961D01*
X89531Y344533D01*
X89103Y343678D01*
Y342823D01*
X89531Y341968D01*
X92738Y338762D01*
X89360Y335384D02*
X88505Y340514D01*
X85298Y337308D01*
X89360Y335384D02*
X84871Y339873D01*
X98246Y535730D02*
X95039Y532524D01*
X94612Y531669D01*
Y530813D01*
X95039Y529958D01*
X95467Y529531D01*
X96322Y529103D01*
X97177D01*
X98032Y529531D01*
X101238Y532737D01*
X102906Y531070D02*
X105257Y528719D01*
X102265Y528291D01*
X102906Y527650D01*
X103120Y527008D01*
Y526581D01*
X102692Y525726D01*
X102265Y525298D01*
X101410Y524871D01*
X100554D01*
X99699Y525298D01*
X99058Y525940D01*
X98631Y526795D01*
Y527222D01*
X98844Y527864D01*
X315730Y341754D02*
X312524Y344961D01*
X311669Y345388D01*
X310814D01*
X309958Y344961D01*
X309531Y344533D01*
X309103Y343678D01*
Y342823D01*
X309531Y341968D01*
X312737Y338762D01*
X310215Y338377D02*
X310429Y338163D01*
X310643Y337522D01*
X310643Y337094D01*
X310429Y336453D01*
X309574Y335598D01*
X308932Y335384D01*
X308505Y335384D01*
X307864Y335598D01*
X307436Y336025D01*
X307222Y336667D01*
X307008Y337735D01*
Y342011D01*
X304016Y339018D01*
X121754Y124270D02*
X124961Y127476D01*
X125388Y128331D01*
Y129186D01*
X124961Y130042D01*
X124533Y130469D01*
X123678Y130897D01*
X122823D01*
X121968Y130469D01*
X118762Y127263D01*
X118377Y129358D02*
X117735Y129571D01*
X116453Y129571D01*
X120942Y134060D01*
X12627Y460524D02*
X21090D01*
X22783Y462217D01*
Y465602D01*
X21090Y467295D01*
X12627D01*
X22783Y475759D02*
X12627D01*
X17705Y470681D01*
Y477452D01*
X24476Y480837D02*
Y487608D01*
X22783Y490994D02*
Y494380D01*
Y492687D01*
X12627D01*
X14319Y490994D01*
X12026Y388874D02*
X20490D01*
X22183Y390567D01*
Y393952D01*
X20490Y395645D01*
X12026D01*
X22183Y404109D02*
X12026D01*
X17105Y399031D01*
Y405802D01*
X23876Y409187D02*
Y415959D01*
X22183Y424422D02*
X12026D01*
X17105Y419344D01*
Y426115D01*
X172974Y597574D02*
Y589110D01*
X174667Y587417D01*
X178052D01*
X179745Y589110D01*
Y597574D01*
X183131Y595881D02*
X184823Y597574D01*
X188209D01*
X189902Y595881D01*
Y594188D01*
X188209Y592495D01*
X186516D01*
X188209D01*
X189902Y590802D01*
Y589110D01*
X188209Y587417D01*
X184823D01*
X183131Y589110D01*
X193287Y585724D02*
X200059D01*
X208522Y587417D02*
Y597574D01*
X203444Y592495D01*
X210215D01*
X249174Y597574D02*
Y589110D01*
X250867Y587417D01*
X254252D01*
X255945Y589110D01*
Y597574D01*
X259331Y595881D02*
X261024Y597574D01*
X264409D01*
X266102Y595881D01*
Y594188D01*
X264409Y592495D01*
X262716D01*
X264409D01*
X266102Y590802D01*
Y589110D01*
X264409Y587417D01*
X261024D01*
X259331Y589110D01*
X269487Y585724D02*
X276259D01*
X279644Y587417D02*
X283030D01*
X281337D01*
Y597574D01*
X279644Y595881D01*
X369627Y151524D02*
X378090D01*
X379783Y153217D01*
Y156602D01*
X378090Y158295D01*
X369627D01*
X379783Y168452D02*
Y161681D01*
X373012Y168452D01*
X371319D01*
X369627Y166759D01*
Y163374D01*
X371319Y161681D01*
X381476Y171837D02*
Y178609D01*
X379783Y187073D02*
X369627D01*
X374705Y181994D01*
Y188765D01*
X369627Y247524D02*
X378090D01*
X379783Y249217D01*
Y252602D01*
X378090Y254295D01*
X369627D01*
X379783Y264452D02*
Y257681D01*
X373012Y264452D01*
X371319D01*
X369627Y262759D01*
Y259373D01*
X371319Y257681D01*
X381476Y267837D02*
Y274608D01*
X379783Y277994D02*
Y281380D01*
Y279687D01*
X369627D01*
X371319Y277994D01*
X163524Y24374D02*
Y15910D01*
X165217Y14217D01*
X168602D01*
X170295Y15910D01*
Y24374D01*
X173681Y14217D02*
X177066D01*
X175373D01*
Y24374D01*
X173681Y22681D01*
X182145Y12524D02*
X188916D01*
X192301Y14217D02*
X195687D01*
X193994D01*
Y24374D01*
X192301Y22681D01*
X242524Y24374D02*
Y15910D01*
X244217Y14217D01*
X247602D01*
X249295Y15910D01*
Y24374D01*
X252681Y14217D02*
X256066D01*
X254373D01*
Y24374D01*
X252681Y22681D01*
X261145Y12524D02*
X267916D01*
X276380Y14217D02*
Y24374D01*
X271301Y19295D01*
X278072D01*
M02*
