G04*
G04 #@! TF.GenerationSoftware,Altium Limited,Altium Designer,24.0.1 (36)*
G04*
G04 Layer_Physical_Order=1*
G04 Layer_Color=255*
%FSLAX44Y44*%
%MOMM*%
G71*
G04*
G04 #@! TF.SameCoordinates,8E3682EF-1996-423B-9767-EFD2347B91C7*
G04*
G04*
G04 #@! TF.FilePolarity,Positive*
G04*
G01*
G75*
%ADD12C,0.1270*%
%ADD13C,0.1524*%
%ADD14R,0.2500X0.3000*%
%ADD15R,0.3000X0.2500*%
%ADD16C,0.1500*%
%ADD17R,1.1500X0.4000*%
%ADD18R,0.4000X1.1500*%
%ADD32C,0.4953*%
%ADD33C,0.1500*%
%ADD34C,1.2700*%
%ADD35C,1.3700*%
%ADD36R,1.3700X1.3700*%
%ADD37R,1.3700X1.3700*%
%ADD38C,0.7000*%
%ADD39C,1.5240*%
%ADD40C,0.7620*%
%ADD41C,0.6350*%
G36*
X355000Y594873D02*
X355238Y577029D01*
X355000Y576788D01*
Y575000D01*
X374875D01*
Y575000D01*
X435000D01*
Y525000D01*
X374873D01*
X355000Y524735D01*
Y355000D01*
X374875D01*
Y355000D01*
X435000D01*
Y305000D01*
X374873D01*
X360864Y304813D01*
X355000Y310678D01*
Y312277D01*
X353827Y311791D01*
X339650Y325968D01*
X339502Y326103D01*
X339344Y326224D01*
X339176Y326331D01*
X338999Y326424D01*
X338814Y326500D01*
X338624Y326560D01*
X338429Y326603D01*
X338231Y326629D01*
X338032Y326638D01*
X336598D01*
X335967Y327269D01*
X335820Y327404D01*
X335661Y327526D01*
X335493Y327633D01*
X335316Y327725D01*
X335131Y327802D01*
X334941Y327862D01*
X334746Y327905D01*
X334548Y327931D01*
X334349Y327939D01*
X334149Y327931D01*
X333951Y327905D01*
X333756Y327862D01*
X333566Y327802D01*
X333382Y327725D01*
X333205Y327633D01*
X333036Y327526D01*
X332878Y327404D01*
X332731Y327269D01*
X332596Y327122D01*
X332474Y326964D01*
X332367Y326795D01*
X332275Y326618D01*
X332198Y326434D01*
X332138Y326244D01*
X332095Y326049D01*
X332069Y325851D01*
X332061Y325651D01*
X332069Y325452D01*
X332095Y325254D01*
X332138Y325059D01*
X332198Y324869D01*
X332275Y324684D01*
X332367Y324507D01*
X332474Y324339D01*
X332596Y324180D01*
X332731Y324033D01*
X334032Y322732D01*
X334179Y322597D01*
X334338Y322476D01*
X334506Y322368D01*
X334683Y322276D01*
X334739Y322253D01*
X334733Y322223D01*
X334707Y322025D01*
X334698Y321826D01*
X334707Y321626D01*
X334733Y321428D01*
X334776Y321234D01*
X334836Y321043D01*
X334912Y320859D01*
X335005Y320682D01*
X335112Y320513D01*
X335233Y320355D01*
X335368Y320208D01*
X355000Y300576D01*
Y135000D01*
X374500D01*
Y135000D01*
X435000D01*
Y85000D01*
X374750D01*
Y85000D01*
X355904Y84749D01*
X355000Y85641D01*
Y85000D01*
Y65500D01*
Y5000D01*
X305000D01*
Y65500D01*
X304740Y85000D01*
X135000D01*
Y65125D01*
X135000D01*
Y5000D01*
X85000D01*
Y65127D01*
X84834Y77538D01*
X93427Y86131D01*
X93409Y86173D01*
X103618Y96382D01*
X103753Y96529D01*
X103874Y96688D01*
X103982Y96856D01*
X104074Y97033D01*
X104150Y97217D01*
X104210Y97408D01*
X104253Y97603D01*
X104279Y97801D01*
X104288Y98000D01*
Y98648D01*
X105984Y100344D01*
X106119Y100491D01*
X106240Y100649D01*
X106348Y100818D01*
X106440Y100995D01*
X106516Y101179D01*
X106576Y101369D01*
X106619Y101564D01*
X106645Y101762D01*
X106654Y101962D01*
Y103418D01*
X107269Y104033D01*
X107404Y104180D01*
X107526Y104339D01*
X107633Y104507D01*
X107725Y104684D01*
X107802Y104869D01*
X107861Y105059D01*
X107905Y105254D01*
X107931Y105452D01*
X107940Y105651D01*
X107931Y105851D01*
X107905Y106049D01*
X107861Y106243D01*
X107802Y106434D01*
X107725Y106618D01*
X107633Y106795D01*
X107526Y106964D01*
X107404Y107122D01*
X107269Y107269D01*
X107122Y107404D01*
X106964Y107526D01*
X106795Y107633D01*
X106618Y107725D01*
X106434Y107802D01*
X106243Y107861D01*
X106049Y107905D01*
X105851Y107931D01*
X105651Y107940D01*
X105452Y107931D01*
X105254Y107905D01*
X105059Y107861D01*
X104869Y107802D01*
X104684Y107725D01*
X104507Y107633D01*
X104339Y107526D01*
X104180Y107404D01*
X104033Y107269D01*
X102748Y105984D01*
X102613Y105837D01*
X102492Y105678D01*
X102384Y105510D01*
X102292Y105333D01*
X102261Y105259D01*
X102223Y105267D01*
X102025Y105293D01*
X101826Y105302D01*
X97014D01*
X96814Y105293D01*
X96616Y105267D01*
X96422Y105224D01*
X96231Y105164D01*
X96047Y105088D01*
X95870Y104995D01*
X95701Y104888D01*
X95543Y104767D01*
X95396Y104632D01*
X86173Y95409D01*
X86131Y95427D01*
X75704Y85000D01*
X65125D01*
Y85000D01*
X5000D01*
Y135000D01*
X65127D01*
X85000Y135265D01*
Y305000D01*
X65125D01*
Y305000D01*
X5000D01*
Y355000D01*
X65500D01*
Y355000D01*
X80516D01*
X86131Y349385D01*
X86173Y349403D01*
X100208Y335368D01*
X100355Y335233D01*
X100513Y335112D01*
X100682Y335005D01*
X100859Y334912D01*
X101043Y334836D01*
X101234Y334776D01*
X101428Y334733D01*
X101626Y334707D01*
X101826Y334698D01*
X102025Y334707D01*
X102093Y334716D01*
X102437Y334645D01*
X102624Y334546D01*
X103034Y334265D01*
X103227Y334105D01*
X103337Y333970D01*
X103429Y333812D01*
X103441Y333756D01*
X103501Y333566D01*
X103577Y333382D01*
X103670Y333205D01*
X103777Y333036D01*
X103898Y332878D01*
X104033Y332731D01*
X104180Y332596D01*
X104339Y332474D01*
X104507Y332367D01*
X104684Y332275D01*
X104869Y332198D01*
X105059Y332138D01*
X105254Y332095D01*
X105452Y332069D01*
X105651Y332061D01*
X105851Y332069D01*
X106049Y332095D01*
X106243Y332138D01*
X106434Y332198D01*
X106618Y332275D01*
X106795Y332367D01*
X106964Y332474D01*
X107122Y332596D01*
X107269Y332731D01*
X107404Y332878D01*
X107526Y333036D01*
X107633Y333205D01*
X107725Y333382D01*
X107802Y333566D01*
X107861Y333756D01*
X107905Y333951D01*
X107931Y334149D01*
X107940Y334349D01*
Y336396D01*
X107931Y336596D01*
X107905Y336794D01*
X107861Y336989D01*
X107802Y337179D01*
X107725Y337364D01*
X107633Y337541D01*
X107526Y337709D01*
X107404Y337867D01*
X107269Y338014D01*
X106583Y338700D01*
X106560Y338806D01*
X106500Y338996D01*
X106424Y339181D01*
X106332Y339358D01*
X106224Y339526D01*
X106103Y339684D01*
X105968Y339832D01*
X85000Y360799D01*
Y515264D01*
X104632Y534896D01*
X104767Y535043D01*
X104888Y535201D01*
X104995Y535370D01*
X105088Y535547D01*
X105164Y535731D01*
X105224Y535922D01*
X105267Y536116D01*
X105293Y536314D01*
X105302Y536514D01*
Y541826D01*
X105293Y542025D01*
X105267Y542223D01*
X105261Y542253D01*
X105317Y542276D01*
X105494Y542368D01*
X105662Y542476D01*
X105821Y542597D01*
X105968Y542732D01*
X107269Y544033D01*
X107404Y544180D01*
X107526Y544339D01*
X107633Y544507D01*
X107725Y544684D01*
X107802Y544869D01*
X107861Y545059D01*
X107905Y545254D01*
X107931Y545452D01*
X107939Y545651D01*
X107931Y545851D01*
X107905Y546049D01*
X107861Y546244D01*
X107802Y546434D01*
X107725Y546618D01*
X107633Y546795D01*
X107526Y546964D01*
X107404Y547122D01*
X107269Y547269D01*
X107122Y547404D01*
X106964Y547526D01*
X106795Y547633D01*
X106618Y547725D01*
X106434Y547802D01*
X106243Y547862D01*
X106049Y547905D01*
X105851Y547931D01*
X105651Y547939D01*
X105452Y547931D01*
X105254Y547905D01*
X105059Y547862D01*
X104869Y547802D01*
X104684Y547725D01*
X104507Y547633D01*
X104339Y547526D01*
X104180Y547404D01*
X104033Y547269D01*
X103402Y546638D01*
X101968D01*
X101769Y546629D01*
X101571Y546603D01*
X101376Y546560D01*
X101186Y546500D01*
X101001Y546424D01*
X100824Y546331D01*
X100656Y546224D01*
X100498Y546103D01*
X100350Y545968D01*
X98872Y544489D01*
X98737Y544342D01*
X98615Y544184D01*
X98508Y544015D01*
X98416Y543838D01*
X98340Y543654D01*
X98279Y543464D01*
X98236Y543269D01*
X98210Y543071D01*
X98202Y542871D01*
Y541438D01*
X86173Y529409D01*
X86131Y529427D01*
X81704Y525000D01*
X5000D01*
Y575000D01*
X65125D01*
X85000Y575265D01*
Y576125D01*
X85000D01*
Y594875D01*
X85000D01*
Y655000D01*
X135000D01*
Y594873D01*
X135232Y577500D01*
X135605D01*
X136091Y576327D01*
X125434Y565670D01*
X121000D01*
X120801Y565661D01*
X120603Y565635D01*
X120408Y565592D01*
X120217Y565532D01*
X120033Y565455D01*
X119856Y565363D01*
X119688Y565256D01*
X119529Y565134D01*
X119382Y565000D01*
X114032Y559650D01*
X113897Y559502D01*
X113776Y559344D01*
X113668Y559176D01*
X113576Y558999D01*
X113500Y558814D01*
X113440Y558624D01*
X113397Y558429D01*
X113371Y558231D01*
X113362Y558032D01*
Y556598D01*
X112731Y555967D01*
X112596Y555820D01*
X112474Y555661D01*
X112367Y555493D01*
X112275Y555316D01*
X112198Y555131D01*
X112139Y554941D01*
X112095Y554746D01*
X112069Y554548D01*
X112061Y554349D01*
X112069Y554149D01*
X112095Y553951D01*
X112139Y553756D01*
X112198Y553566D01*
X112275Y553382D01*
X112367Y553205D01*
X112474Y553036D01*
X112596Y552878D01*
X112731Y552731D01*
X112878Y552596D01*
X113036Y552474D01*
X113205Y552367D01*
X113382Y552275D01*
X113566Y552198D01*
X113757Y552138D01*
X113951Y552095D01*
X114149Y552069D01*
X114349Y552061D01*
X114548Y552069D01*
X114746Y552095D01*
X114941Y552138D01*
X115131Y552198D01*
X115316Y552275D01*
X115493Y552367D01*
X115661Y552474D01*
X115820Y552596D01*
X115967Y552731D01*
X117268Y554032D01*
X117403Y554179D01*
X117524Y554338D01*
X117632Y554506D01*
X117724Y554683D01*
X117747Y554739D01*
X117777Y554733D01*
X117975Y554707D01*
X118174Y554698D01*
X119986D01*
X120186Y554707D01*
X120384Y554733D01*
X120578Y554776D01*
X120769Y554836D01*
X120953Y554912D01*
X121130Y555005D01*
X121299Y555112D01*
X121457Y555233D01*
X121604Y555368D01*
X122948Y556712D01*
X127150D01*
X127350Y556721D01*
X127547Y556747D01*
X127742Y556790D01*
X127933Y556850D01*
X128117Y556926D01*
X128294Y557018D01*
X128462Y557126D01*
X128621Y557247D01*
X128768Y557382D01*
X148886Y577500D01*
X305000D01*
Y594875D01*
X305000D01*
Y655000D01*
X355000D01*
Y594873D01*
D02*
G37*
%LPC*%
G36*
X120000Y617000D02*
X100000D01*
Y594875D01*
X105921Y583944D01*
Y577500D01*
X105997D01*
Y567750D01*
X106006Y567488D01*
X106032Y567228D01*
X106074Y566969D01*
X106134Y566714D01*
X106210Y566463D01*
X106302Y566218D01*
X106410Y565980D01*
X106534Y565749D01*
X106672Y565526D01*
X106742Y565428D01*
X107718Y560976D01*
X107720Y560916D01*
X107747Y560718D01*
X107790Y560523D01*
X107850Y560333D01*
X107926Y560149D01*
X108018Y559972D01*
X108126Y559803D01*
X108247Y559645D01*
X108382Y559498D01*
X108529Y559363D01*
X108687Y559241D01*
X108856Y559134D01*
X109033Y559042D01*
X109217Y558965D01*
X109408Y558905D01*
X109603Y558862D01*
X109801Y558836D01*
X110000Y558828D01*
X110199Y558836D01*
X110397Y558862D01*
X110592Y558905D01*
X110783Y558965D01*
X110967Y559042D01*
X111144Y559134D01*
X111313Y559241D01*
X111471Y559363D01*
X111618Y559498D01*
X111753Y559645D01*
X111874Y559803D01*
X111982Y559972D01*
X112074Y560149D01*
X112150Y560333D01*
X112210Y560523D01*
X112253Y560718D01*
X112280Y560916D01*
X112282Y560976D01*
X113258Y565428D01*
X113328Y565526D01*
X113466Y565749D01*
X113590Y565980D01*
X113698Y566218D01*
X113790Y566463D01*
X113866Y566714D01*
X113926Y566969D01*
X113968Y567228D01*
X113994Y567488D01*
X114003Y567750D01*
Y577500D01*
X114079D01*
Y583507D01*
X120000Y594875D01*
X120000D01*
Y617000D01*
D02*
G37*
G36*
X340000D02*
X320000D01*
Y594875D01*
X325921Y583944D01*
Y579250D01*
Y579143D01*
Y577750D01*
Y577500D01*
X325997D01*
Y574000D01*
X325999Y573957D01*
X325989Y573372D01*
X325960Y572744D01*
X325911Y572118D01*
X325842Y571493D01*
X325753Y570871D01*
X325645Y570252D01*
X325518Y569637D01*
X325371Y569026D01*
X325205Y568420D01*
X325021Y567820D01*
X324817Y567225D01*
X324595Y566638D01*
X324355Y566057D01*
X324096Y565485D01*
X323820Y564920D01*
X323526Y564365D01*
X323214Y563819D01*
X322886Y563284D01*
X322541Y562759D01*
X322180Y562245D01*
X321803Y561742D01*
X321410Y561252D01*
X321002Y560774D01*
X320579Y560309D01*
X320142Y559858D01*
X319690Y559421D01*
X319226Y558998D01*
X318748Y558590D01*
X318258Y558197D01*
X317755Y557820D01*
X317241Y557459D01*
X316716Y557114D01*
X316180Y556786D01*
X315635Y556474D01*
X315080Y556180D01*
X314515Y555904D01*
X313943Y555645D01*
X313362Y555405D01*
X312775Y555183D01*
X312180Y554979D01*
X311580Y554795D01*
X310974Y554629D01*
X310363Y554482D01*
X309748Y554355D01*
X309129Y554247D01*
X308507Y554158D01*
X307882Y554089D01*
X307256Y554040D01*
X306628Y554010D01*
X306042Y554001D01*
X306000Y554003D01*
X275500D01*
X275499Y554003D01*
X129250D01*
X128988Y553994D01*
X128728Y553968D01*
X128469Y553926D01*
X128214Y553866D01*
X127963Y553790D01*
X127718Y553698D01*
X127480Y553590D01*
X127249Y553466D01*
X127026Y553328D01*
X126821Y553181D01*
X121799Y552276D01*
X121116D01*
X121066Y552274D01*
X121016D01*
X120967Y552270D01*
X120917Y552267D01*
X120868Y552261D01*
X120819Y552257D01*
X120770Y552248D01*
X120721Y552242D01*
X120671Y552231D01*
X120623Y552222D01*
X120576Y552210D01*
X120527Y552199D01*
X120479Y552183D01*
X120431Y552171D01*
X120385Y552154D01*
X120337Y552139D01*
X120291Y552120D01*
X120245Y552103D01*
X120200Y552082D01*
X120154Y552063D01*
X120110Y552040D01*
X120065Y552019D01*
X120022Y551994D01*
X119978Y551971D01*
X119936Y551945D01*
X119893Y551920D01*
X119852Y551891D01*
X119810Y551865D01*
X119771Y551834D01*
X119730Y551806D01*
X119692Y551774D01*
X119653Y551744D01*
X119616Y551710D01*
X119578Y551678D01*
X119543Y551643D01*
X119506Y551609D01*
X119473Y551573D01*
X119438Y551538D01*
X119406Y551500D01*
X119372Y551463D01*
X119342Y551424D01*
X119310Y551386D01*
X119282Y551345D01*
X119251Y551306D01*
X119225Y551264D01*
X119196Y551223D01*
X119171Y551180D01*
X119144Y551138D01*
X119122Y551094D01*
X119097Y551051D01*
X119076Y551006D01*
X119053Y550962D01*
X119034Y550916D01*
X119013Y550871D01*
X118996Y550824D01*
X118977Y550779D01*
X118962Y550731D01*
X118945Y550684D01*
X118932Y550637D01*
X118917Y550589D01*
X118906Y550540D01*
X118894Y550493D01*
X118885Y550444D01*
X118874Y550395D01*
X118868Y550346D01*
X118859Y550297D01*
X118855Y550248D01*
X118848Y550198D01*
X118846Y550149D01*
X118842Y550099D01*
Y550049D01*
X118840Y550000D01*
X118842Y549950D01*
Y549901D01*
X118846Y549851D01*
X118848Y549802D01*
X118855Y549752D01*
X118859Y549703D01*
X118868Y549654D01*
X118874Y549605D01*
X118885Y549556D01*
X118894Y549507D01*
X118906Y549460D01*
X118917Y549411D01*
X118932Y549363D01*
X118945Y549315D01*
X118962Y549269D01*
X118977Y549221D01*
X118996Y549176D01*
X119013Y549129D01*
X119034Y549084D01*
X119053Y549038D01*
X119076Y548994D01*
X119097Y548949D01*
X119122Y548906D01*
X119144Y548862D01*
X119171Y548820D01*
X119196Y548777D01*
X119225Y548736D01*
X119251Y548694D01*
X119282Y548655D01*
X119310Y548614D01*
X119342Y548576D01*
X119372Y548537D01*
X119406Y548500D01*
X119438Y548462D01*
X119473Y548427D01*
X119506Y548391D01*
X119543Y548357D01*
X119578Y548322D01*
X119616Y548290D01*
X119653Y548256D01*
X119692Y548226D01*
X119730Y548194D01*
X119771Y548166D01*
X119810Y548135D01*
X119852Y548109D01*
X119893Y548080D01*
X119936Y548055D01*
X119978Y548029D01*
X120022Y548006D01*
X120065Y547981D01*
X120110Y547960D01*
X120154Y547937D01*
X120200Y547918D01*
X120245Y547897D01*
X120291Y547880D01*
X120337Y547861D01*
X120385Y547846D01*
X120431Y547829D01*
X120479Y547817D01*
X120527Y547801D01*
X120576Y547790D01*
X120623Y547778D01*
X120671Y547769D01*
X120721Y547758D01*
X120770Y547752D01*
X120819Y547743D01*
X120868Y547739D01*
X120917Y547733D01*
X120967Y547730D01*
X121016Y547726D01*
X121066D01*
X121116Y547724D01*
X121799D01*
X126821Y546819D01*
X127026Y546672D01*
X127249Y546534D01*
X127480Y546410D01*
X127718Y546302D01*
X127963Y546210D01*
X128214Y546134D01*
X128469Y546074D01*
X128728Y546032D01*
X128988Y546006D01*
X129250Y545997D01*
X275500D01*
X275501Y545997D01*
X306000D01*
Y545997D01*
X306733Y546007D01*
X307466Y546035D01*
X308197Y546083D01*
X308927Y546151D01*
X309655Y546237D01*
X310381Y546342D01*
X311103Y546466D01*
X311822Y546609D01*
X312537Y546771D01*
X313248Y546951D01*
X313953Y547150D01*
X314653Y547368D01*
X315348Y547603D01*
X316035Y547857D01*
X316716Y548129D01*
X317390Y548418D01*
X318055Y548725D01*
X318713Y549049D01*
X319362Y549391D01*
X320001Y549749D01*
X320631Y550124D01*
X321251Y550515D01*
X321861Y550922D01*
X322460Y551345D01*
X323047Y551784D01*
X323623Y552238D01*
X324186Y552706D01*
X324738Y553190D01*
X325276Y553687D01*
X325801Y554199D01*
X326313Y554724D01*
X326810Y555262D01*
X327294Y555814D01*
X327762Y556377D01*
X328216Y556953D01*
X328655Y557540D01*
X329078Y558139D01*
X329485Y558749D01*
X329876Y559369D01*
X330251Y559999D01*
X330609Y560638D01*
X330951Y561287D01*
X331275Y561944D01*
X331582Y562610D01*
X331871Y563284D01*
X332143Y563965D01*
X332397Y564652D01*
X332632Y565347D01*
X332850Y566047D01*
X333049Y566752D01*
X333229Y567463D01*
X333391Y568178D01*
X333534Y568897D01*
X333658Y569619D01*
X333763Y570345D01*
X333849Y571073D01*
X333917Y571803D01*
X333965Y572534D01*
X333993Y573267D01*
X334003Y574000D01*
X334003D01*
Y577500D01*
X334079D01*
Y583507D01*
X340000Y594875D01*
X340000D01*
Y617000D01*
D02*
G37*
G36*
X110099Y552274D02*
X109901D01*
X109703Y552257D01*
X109507Y552222D01*
X109316Y552171D01*
X109129Y552103D01*
X108949Y552019D01*
X108777Y551920D01*
X108614Y551806D01*
X108462Y551678D01*
X108322Y551538D01*
X108194Y551386D01*
X108080Y551223D01*
X107981Y551051D01*
X107897Y550871D01*
X107829Y550684D01*
X107778Y550493D01*
X107743Y550297D01*
X107726Y550099D01*
Y549901D01*
X107743Y549703D01*
X107778Y549507D01*
X107829Y549315D01*
X107897Y549129D01*
X107981Y548949D01*
X108080Y548777D01*
X108194Y548614D01*
X108322Y548462D01*
X108462Y548322D01*
X108614Y548194D01*
X108777Y548080D01*
X108949Y547981D01*
X109129Y547897D01*
X109316Y547829D01*
X109507Y547778D01*
X109703Y547743D01*
X109901Y547726D01*
X110099D01*
X110297Y547743D01*
X110493Y547778D01*
X110684Y547829D01*
X110871Y547897D01*
X111051Y547981D01*
X111223Y548080D01*
X111386Y548194D01*
X111538Y548322D01*
X111678Y548462D01*
X111806Y548614D01*
X111920Y548777D01*
X112019Y548949D01*
X112103Y549129D01*
X112171Y549315D01*
X112222Y549507D01*
X112257Y549703D01*
X112274Y549901D01*
Y550099D01*
X112257Y550297D01*
X112222Y550493D01*
X112171Y550684D01*
X112103Y550871D01*
X112019Y551051D01*
X111920Y551223D01*
X111806Y551386D01*
X111678Y551538D01*
X111538Y551678D01*
X111386Y551806D01*
X111223Y551920D01*
X111051Y552019D01*
X110871Y552103D01*
X110684Y552171D01*
X110493Y552222D01*
X110297Y552257D01*
X110099Y552274D01*
D02*
G37*
G36*
X397000Y560000D02*
X374875D01*
X363944Y554079D01*
X354117D01*
X354000Y554003D01*
X353267Y553993D01*
X352534Y553965D01*
X351984Y553928D01*
X351622Y553900D01*
X351073Y553849D01*
X350345Y553763D01*
X349619Y553658D01*
X348897Y553534D01*
X348178Y553391D01*
X347463Y553229D01*
X346752Y553049D01*
X346047Y552850D01*
X345347Y552632D01*
X344652Y552397D01*
X343965Y552143D01*
X343284Y551871D01*
X342610Y551582D01*
X341945Y551275D01*
X341287Y550951D01*
X340638Y550609D01*
X339999Y550251D01*
X339369Y549876D01*
X338749Y549485D01*
X338139Y549078D01*
X337540Y548655D01*
X336953Y548216D01*
X336377Y547762D01*
X335814Y547294D01*
X335262Y546810D01*
X334724Y546313D01*
X334199Y545801D01*
X333687Y545276D01*
X333190Y544738D01*
X332706Y544186D01*
X332238Y543623D01*
X331784Y543047D01*
X331345Y542460D01*
X330922Y541861D01*
X330515Y541251D01*
X330124Y540631D01*
X329749Y540001D01*
X329391Y539362D01*
X329049Y538713D01*
X328725Y538055D01*
X328418Y537390D01*
X328129Y536716D01*
X327857Y536035D01*
X327603Y535348D01*
X327368Y534653D01*
X327150Y533953D01*
X326951Y533248D01*
X326771Y532537D01*
X326609Y531822D01*
X326466Y531103D01*
X326342Y530381D01*
X326237Y529655D01*
X326151Y528927D01*
X326083Y528197D01*
X326035Y527466D01*
X326007Y526733D01*
X325997Y526000D01*
X325997D01*
Y349750D01*
X326006Y349488D01*
X326032Y349227D01*
X326074Y348969D01*
X326134Y348714D01*
X326210Y348463D01*
X326302Y348218D01*
X326410Y347980D01*
X326534Y347749D01*
X326672Y347526D01*
X326818Y347322D01*
X327712Y342304D01*
Y341116D01*
X327720Y340916D01*
X327747Y340718D01*
X327790Y340523D01*
X327850Y340333D01*
X327926Y340149D01*
X328018Y339972D01*
X328126Y339803D01*
X328247Y339645D01*
X328382Y339498D01*
X328529Y339363D01*
X328688Y339241D01*
X328856Y339134D01*
X329033Y339042D01*
X329217Y338965D01*
X329408Y338905D01*
X329603Y338862D01*
X329801Y338836D01*
X330000Y338828D01*
X330199Y338836D01*
X330397Y338862D01*
X330592Y338905D01*
X330783Y338965D01*
X330967Y339042D01*
X331144Y339134D01*
X331312Y339241D01*
X331471Y339363D01*
X331618Y339498D01*
X331753Y339645D01*
X331874Y339803D01*
X331982Y339972D01*
X332074Y340149D01*
X332150Y340333D01*
X332210Y340523D01*
X332253Y340718D01*
X332280Y340916D01*
X332288Y341116D01*
Y342304D01*
X333182Y347322D01*
X333328Y347526D01*
X333466Y347749D01*
X333590Y347980D01*
X333698Y348218D01*
X333790Y348463D01*
X333866Y348714D01*
X333926Y348969D01*
X333968Y349227D01*
X333994Y349488D01*
X334003Y349750D01*
Y526000D01*
X334001Y526043D01*
X334011Y526628D01*
X334040Y527256D01*
X334089Y527882D01*
X334158Y528507D01*
X334247Y529129D01*
X334355Y529748D01*
X334482Y530363D01*
X334629Y530974D01*
X334795Y531580D01*
X334979Y532180D01*
X335183Y532775D01*
X335405Y533362D01*
X335645Y533943D01*
X335904Y534515D01*
X336180Y535079D01*
X336474Y535635D01*
X336786Y536180D01*
X337114Y536716D01*
X337459Y537241D01*
X337820Y537755D01*
X338197Y538258D01*
X338590Y538748D01*
X338998Y539226D01*
X339421Y539691D01*
X339858Y540142D01*
X340309Y540579D01*
X340774Y541002D01*
X341252Y541410D01*
X341742Y541803D01*
X342245Y542180D01*
X342759Y542541D01*
X343284Y542886D01*
X343820Y543214D01*
X344365Y543526D01*
X344920Y543820D01*
X345485Y544096D01*
X346057Y544355D01*
X346638Y544595D01*
X347225Y544817D01*
X347820Y545021D01*
X348420Y545205D01*
X349026Y545371D01*
X349637Y545518D01*
X350252Y545645D01*
X350871Y545753D01*
X351493Y545842D01*
X352118Y545911D01*
X352744Y545960D01*
X353372Y545989D01*
X353730Y545995D01*
X353830Y545952D01*
X353840Y545953D01*
X354000Y545921D01*
X363507D01*
X374875Y540000D01*
Y540000D01*
X397000D01*
Y560000D01*
D02*
G37*
G36*
X65125D02*
X43000D01*
Y540000D01*
X65125D01*
X76056Y545921D01*
X85000D01*
Y545997D01*
X92250D01*
X92512Y546006D01*
X92773Y546032D01*
X93031Y546074D01*
X93286Y546134D01*
X93537Y546210D01*
X93782Y546302D01*
X94020Y546410D01*
X94251Y546534D01*
X94474Y546672D01*
X94572Y546742D01*
X99102Y547735D01*
X99132Y547739D01*
X99181Y547743D01*
X99230Y547752D01*
X99279Y547758D01*
X99329Y547769D01*
X99377Y547778D01*
X99424Y547790D01*
X99473Y547801D01*
X99521Y547817D01*
X99569Y547829D01*
X99615Y547846D01*
X99663Y547861D01*
X99709Y547880D01*
X99755Y547897D01*
X99800Y547918D01*
X99846Y547937D01*
X99890Y547960D01*
X99935Y547981D01*
X99978Y548006D01*
X100022Y548029D01*
X100064Y548055D01*
X100107Y548080D01*
X100148Y548109D01*
X100190Y548135D01*
X100229Y548166D01*
X100270Y548194D01*
X100308Y548226D01*
X100347Y548256D01*
X100384Y548290D01*
X100422Y548322D01*
X100457Y548357D01*
X100494Y548391D01*
X100527Y548427D01*
X100562Y548462D01*
X100594Y548500D01*
X100628Y548537D01*
X100658Y548576D01*
X100690Y548614D01*
X100718Y548655D01*
X100749Y548694D01*
X100775Y548736D01*
X100804Y548777D01*
X100829Y548820D01*
X100856Y548862D01*
X100878Y548906D01*
X100903Y548949D01*
X100924Y548994D01*
X100947Y549038D01*
X100966Y549084D01*
X100987Y549129D01*
X101004Y549176D01*
X101023Y549221D01*
X101038Y549269D01*
X101055Y549315D01*
X101068Y549363D01*
X101083Y549411D01*
X101094Y549460D01*
X101107Y549507D01*
X101115Y549556D01*
X101126Y549605D01*
X101132Y549654D01*
X101141Y549703D01*
X101145Y549752D01*
X101152Y549802D01*
X101154Y549851D01*
X101158Y549901D01*
Y549950D01*
X101160Y550000D01*
X101158Y550049D01*
Y550099D01*
X101154Y550149D01*
X101152Y550198D01*
X101145Y550248D01*
X101141Y550297D01*
X101132Y550346D01*
X101126Y550395D01*
X101115Y550444D01*
X101107Y550493D01*
X101094Y550540D01*
X101083Y550589D01*
X101068Y550637D01*
X101055Y550684D01*
X101038Y550731D01*
X101023Y550779D01*
X101004Y550824D01*
X100987Y550871D01*
X100966Y550916D01*
X100947Y550962D01*
X100924Y551006D01*
X100903Y551051D01*
X100878Y551094D01*
X100856Y551138D01*
X100829Y551180D01*
X100804Y551223D01*
X100775Y551264D01*
X100749Y551306D01*
X100718Y551345D01*
X100690Y551386D01*
X100658Y551424D01*
X100628Y551463D01*
X100594Y551500D01*
X100562Y551538D01*
X100527Y551573D01*
X100494Y551609D01*
X100457Y551643D01*
X100422Y551678D01*
X100384Y551710D01*
X100347Y551744D01*
X100308Y551774D01*
X100270Y551806D01*
X100229Y551834D01*
X100190Y551865D01*
X100148Y551891D01*
X100107Y551920D01*
X100064Y551945D01*
X100022Y551971D01*
X99978Y551994D01*
X99935Y552019D01*
X99890Y552040D01*
X99846Y552063D01*
X99800Y552082D01*
X99755Y552103D01*
X99709Y552120D01*
X99663Y552139D01*
X99615Y552154D01*
X99569Y552171D01*
X99521Y552183D01*
X99473Y552199D01*
X99424Y552210D01*
X99377Y552222D01*
X99329Y552231D01*
X99279Y552242D01*
X99230Y552248D01*
X99181Y552257D01*
X99132Y552261D01*
X99102Y552265D01*
X94572Y553258D01*
X94474Y553328D01*
X94251Y553466D01*
X94020Y553590D01*
X93782Y553698D01*
X93537Y553790D01*
X93286Y553866D01*
X93031Y553926D01*
X92773Y553968D01*
X92512Y553994D01*
X92250Y554003D01*
X85000D01*
Y554079D01*
X76494D01*
X65125Y560000D01*
D02*
G37*
G36*
X300154Y368236D02*
X299846D01*
X299539Y368216D01*
X299234Y368176D01*
X298932Y368116D01*
X298635Y368036D01*
X298344Y367937D01*
X298060Y367820D01*
X297784Y367683D01*
X297517Y367530D01*
X297262Y367359D01*
X297017Y367171D01*
X296786Y366968D01*
X296569Y366751D01*
X296366Y366520D01*
X296178Y366276D01*
X296007Y366020D01*
X295854Y365753D01*
X295718Y365477D01*
X295600Y365193D01*
X295501Y364902D01*
X295421Y364605D01*
X295361Y364303D01*
X295321Y363998D01*
X295301Y363691D01*
Y363383D01*
X295321Y363076D01*
X295361Y362771D01*
X295421Y362469D01*
X295501Y362172D01*
X295600Y361881D01*
X295718Y361597D01*
X295854Y361321D01*
X295919Y361207D01*
X295859Y361068D01*
X294940Y360282D01*
X294656Y360400D01*
X294365Y360499D01*
X294068Y360579D01*
X293766Y360639D01*
X293461Y360679D01*
X293154Y360699D01*
X292846D01*
X292539Y360679D01*
X292234Y360639D01*
X291932Y360579D01*
X291635Y360499D01*
X291344Y360400D01*
X291060Y360282D01*
X290784Y360146D01*
X290517Y359992D01*
X290261Y359822D01*
X290017Y359634D01*
X289786Y359431D01*
X289569Y359214D01*
X289366Y358983D01*
X289178Y358739D01*
X289007Y358483D01*
X288854Y358216D01*
X288718Y357940D01*
X288600Y357656D01*
X288501Y357365D01*
X288421Y357068D01*
X288361Y356766D01*
X288321Y356461D01*
X288301Y356154D01*
Y355846D01*
X288321Y355539D01*
X288361Y355234D01*
X288421Y354932D01*
X288501Y354635D01*
X288600Y354344D01*
X288718Y354060D01*
X288854Y353784D01*
X289007Y353517D01*
X289178Y353261D01*
X289366Y353017D01*
X289569Y352786D01*
X289786Y352569D01*
X290017Y352366D01*
X290261Y352178D01*
X290517Y352007D01*
X290784Y351854D01*
X291060Y351718D01*
X291344Y351600D01*
X291635Y351501D01*
X291932Y351421D01*
X292234Y351361D01*
X292539Y351321D01*
X292846Y351301D01*
X293154D01*
X293461Y351321D01*
X293766Y351361D01*
X294068Y351421D01*
X294365Y351501D01*
X294656Y351600D01*
X294940Y351718D01*
X295216Y351854D01*
X295483Y352007D01*
X295739Y352178D01*
X295983Y352366D01*
X296214Y352569D01*
X296307Y352661D01*
X296588Y352801D01*
X297538Y352893D01*
X297753Y352864D01*
X298010Y352754D01*
X315396Y335368D01*
X315543Y335233D01*
X315701Y335112D01*
X315870Y335005D01*
X316047Y334912D01*
X316231Y334836D01*
X316422Y334776D01*
X316616Y334733D01*
X316814Y334707D01*
X317014Y334698D01*
X321826D01*
X322025Y334707D01*
X322124Y334720D01*
X322140Y334649D01*
X322200Y334459D01*
X322276Y334274D01*
X322368Y334097D01*
X322476Y333929D01*
X322597Y333771D01*
X322732Y333624D01*
X323625Y332731D01*
X323772Y332596D01*
X323930Y332474D01*
X324099Y332367D01*
X324276Y332275D01*
X324460Y332198D01*
X324650Y332138D01*
X324845Y332095D01*
X325043Y332069D01*
X325243Y332061D01*
X325651D01*
X325851Y332069D01*
X326049Y332095D01*
X326244Y332138D01*
X326434Y332198D01*
X326618Y332275D01*
X326795Y332367D01*
X326964Y332474D01*
X327122Y332596D01*
X327269Y332731D01*
X327404Y332878D01*
X327526Y333036D01*
X327633Y333205D01*
X327725Y333382D01*
X327802Y333566D01*
X327862Y333756D01*
X327905Y333951D01*
X327931Y334149D01*
X327939Y334349D01*
X327931Y334548D01*
X327905Y334746D01*
X327862Y334941D01*
X327802Y335131D01*
X327725Y335316D01*
X327633Y335493D01*
X327526Y335661D01*
X327404Y335820D01*
X327269Y335967D01*
X327122Y336102D01*
X326964Y336223D01*
X326795Y336330D01*
X326638Y336412D01*
Y338032D01*
X326629Y338231D01*
X326603Y338429D01*
X326560Y338624D01*
X326500Y338814D01*
X326424Y338999D01*
X326331Y339176D01*
X326224Y339344D01*
X326103Y339502D01*
X325968Y339650D01*
X324489Y341128D01*
X324342Y341263D01*
X324184Y341385D01*
X324015Y341492D01*
X323838Y341584D01*
X323654Y341660D01*
X323464Y341720D01*
X323269Y341764D01*
X323071Y341790D01*
X322871Y341798D01*
X320438D01*
X303521Y358715D01*
X303393Y358997D01*
X303363Y359182D01*
X303431Y360323D01*
X303634Y360554D01*
X303822Y360798D01*
X303993Y361054D01*
X304146Y361321D01*
X304282Y361597D01*
X304400Y361881D01*
X304499Y362172D01*
X304579Y362469D01*
X304639Y362771D01*
X304679Y363076D01*
X304699Y363383D01*
Y363691D01*
X304679Y363998D01*
X304639Y364303D01*
X304579Y364605D01*
X304499Y364902D01*
X304400Y365193D01*
X304282Y365477D01*
X304146Y365753D01*
X303993Y366020D01*
X303822Y366276D01*
X303634Y366520D01*
X303431Y366751D01*
X303214Y366968D01*
X302983Y367171D01*
X302738Y367359D01*
X302483Y367530D01*
X302216Y367683D01*
X301940Y367820D01*
X301656Y367937D01*
X301365Y368036D01*
X301068Y368116D01*
X300766Y368176D01*
X300461Y368216D01*
X300154Y368236D01*
D02*
G37*
G36*
X110000Y541160D02*
X109951Y541158D01*
X109901D01*
X109851Y541154D01*
X109802Y541152D01*
X109752Y541145D01*
X109703Y541141D01*
X109654Y541132D01*
X109605Y541126D01*
X109556Y541115D01*
X109507Y541106D01*
X109460Y541094D01*
X109411Y541083D01*
X109363Y541068D01*
X109316Y541055D01*
X109269Y541038D01*
X109221Y541023D01*
X109176Y541004D01*
X109129Y540987D01*
X109084Y540966D01*
X109038Y540947D01*
X108994Y540924D01*
X108949Y540903D01*
X108906Y540878D01*
X108862Y540855D01*
X108820Y540829D01*
X108777Y540804D01*
X108736Y540775D01*
X108694Y540749D01*
X108655Y540718D01*
X108614Y540690D01*
X108576Y540658D01*
X108537Y540628D01*
X108500Y540594D01*
X108462Y540562D01*
X108427Y540527D01*
X108391Y540494D01*
X108357Y540457D01*
X108322Y540422D01*
X108290Y540384D01*
X108256Y540347D01*
X108226Y540308D01*
X108194Y540270D01*
X108166Y540229D01*
X108135Y540190D01*
X108109Y540148D01*
X108080Y540107D01*
X108055Y540064D01*
X108029Y540022D01*
X108006Y539978D01*
X107981Y539935D01*
X107960Y539890D01*
X107937Y539846D01*
X107918Y539800D01*
X107897Y539755D01*
X107880Y539709D01*
X107861Y539663D01*
X107846Y539615D01*
X107829Y539569D01*
X107816Y539521D01*
X107801Y539473D01*
X107790Y539424D01*
X107778Y539377D01*
X107769Y539329D01*
X107758Y539280D01*
X107752Y539230D01*
X107743Y539181D01*
X107739Y539132D01*
X107737Y539120D01*
X106723Y534796D01*
X106672Y534724D01*
X106534Y534501D01*
X106410Y534270D01*
X106302Y534032D01*
X106210Y533787D01*
X106134Y533536D01*
X106074Y533281D01*
X106032Y533022D01*
X106006Y532762D01*
X105997Y532500D01*
Y346500D01*
X106006Y346238D01*
X106032Y345978D01*
X106074Y345719D01*
X106134Y345464D01*
X106210Y345213D01*
X106302Y344968D01*
X106410Y344730D01*
X106534Y344499D01*
X106672Y344276D01*
X106674Y344274D01*
X107734Y340814D01*
X107747Y340718D01*
X107790Y340523D01*
X107850Y340333D01*
X107926Y340149D01*
X108018Y339972D01*
X108126Y339803D01*
X108247Y339645D01*
X108382Y339498D01*
X108529Y339363D01*
X108688Y339241D01*
X108856Y339134D01*
X109033Y339042D01*
X109217Y338965D01*
X109408Y338905D01*
X109603Y338862D01*
X109801Y338836D01*
X110000Y338828D01*
X110199Y338836D01*
X110397Y338862D01*
X110592Y338905D01*
X110783Y338965D01*
X110967Y339042D01*
X111144Y339134D01*
X111313Y339241D01*
X111471Y339363D01*
X111618Y339498D01*
X111753Y339645D01*
X111874Y339803D01*
X111982Y339972D01*
X112074Y340149D01*
X112150Y340333D01*
X112210Y340523D01*
X112253Y340718D01*
X112266Y340814D01*
X113326Y344274D01*
X113328Y344276D01*
X113466Y344499D01*
X113590Y344730D01*
X113698Y344968D01*
X113790Y345213D01*
X113866Y345464D01*
X113926Y345719D01*
X113968Y345978D01*
X113994Y346238D01*
X114003Y346500D01*
Y532500D01*
X113994Y532762D01*
X113968Y533022D01*
X113926Y533281D01*
X113866Y533536D01*
X113790Y533787D01*
X113698Y534032D01*
X113590Y534270D01*
X113466Y534501D01*
X113328Y534724D01*
X113277Y534796D01*
X112263Y539120D01*
X112261Y539132D01*
X112257Y539181D01*
X112248Y539230D01*
X112242Y539280D01*
X112231Y539329D01*
X112222Y539377D01*
X112210Y539424D01*
X112199Y539473D01*
X112184Y539521D01*
X112171Y539569D01*
X112154Y539615D01*
X112139Y539663D01*
X112120Y539709D01*
X112103Y539755D01*
X112082Y539800D01*
X112063Y539846D01*
X112040Y539890D01*
X112019Y539935D01*
X111994Y539978D01*
X111971Y540022D01*
X111945Y540064D01*
X111920Y540107D01*
X111891Y540148D01*
X111865Y540190D01*
X111834Y540229D01*
X111806Y540270D01*
X111774Y540308D01*
X111744Y540347D01*
X111710Y540384D01*
X111678Y540422D01*
X111643Y540457D01*
X111609Y540494D01*
X111573Y540527D01*
X111538Y540562D01*
X111500Y540594D01*
X111463Y540628D01*
X111424Y540658D01*
X111386Y540690D01*
X111345Y540718D01*
X111306Y540749D01*
X111264Y540775D01*
X111223Y540804D01*
X111180Y540829D01*
X111138Y540855D01*
X111094Y540878D01*
X111051Y540903D01*
X111006Y540924D01*
X110962Y540947D01*
X110916Y540966D01*
X110871Y540987D01*
X110824Y541004D01*
X110779Y541023D01*
X110731Y541038D01*
X110684Y541055D01*
X110637Y541068D01*
X110589Y541083D01*
X110540Y541094D01*
X110493Y541106D01*
X110444Y541115D01*
X110395Y541126D01*
X110346Y541132D01*
X110297Y541141D01*
X110248Y541145D01*
X110198Y541152D01*
X110149Y541154D01*
X110099Y541158D01*
X110049D01*
X110000Y541160D01*
D02*
G37*
G36*
X330099Y332274D02*
X329901D01*
X329703Y332257D01*
X329507Y332222D01*
X329315Y332171D01*
X329129Y332103D01*
X328949Y332019D01*
X328777Y331920D01*
X328614Y331806D01*
X328462Y331678D01*
X328322Y331538D01*
X328194Y331386D01*
X328080Y331223D01*
X327981Y331051D01*
X327897Y330871D01*
X327829Y330685D01*
X327778Y330493D01*
X327743Y330297D01*
X327726Y330099D01*
Y329901D01*
X327743Y329703D01*
X327778Y329507D01*
X327829Y329315D01*
X327897Y329129D01*
X327981Y328949D01*
X328080Y328777D01*
X328194Y328614D01*
X328322Y328462D01*
X328462Y328322D01*
X328614Y328194D01*
X328777Y328080D01*
X328949Y327981D01*
X329129Y327897D01*
X329315Y327829D01*
X329507Y327778D01*
X329703Y327743D01*
X329901Y327726D01*
X330099D01*
X330297Y327743D01*
X330493Y327778D01*
X330685Y327829D01*
X330871Y327897D01*
X331051Y327981D01*
X331223Y328080D01*
X331386Y328194D01*
X331538Y328322D01*
X331678Y328462D01*
X331806Y328614D01*
X331920Y328777D01*
X332019Y328949D01*
X332103Y329129D01*
X332171Y329315D01*
X332222Y329507D01*
X332257Y329703D01*
X332274Y329901D01*
Y330099D01*
X332257Y330297D01*
X332222Y330493D01*
X332171Y330685D01*
X332103Y330871D01*
X332019Y331051D01*
X331920Y331223D01*
X331806Y331386D01*
X331678Y331538D01*
X331538Y331678D01*
X331386Y331806D01*
X331223Y331920D01*
X331051Y332019D01*
X330871Y332103D01*
X330685Y332171D01*
X330493Y332222D01*
X330297Y332257D01*
X330099Y332274D01*
D02*
G37*
G36*
X110099D02*
X109901D01*
X109703Y332257D01*
X109507Y332222D01*
X109316Y332171D01*
X109129Y332103D01*
X108949Y332019D01*
X108777Y331920D01*
X108614Y331806D01*
X108462Y331678D01*
X108322Y331538D01*
X108194Y331386D01*
X108080Y331223D01*
X107981Y331051D01*
X107897Y330871D01*
X107829Y330685D01*
X107778Y330493D01*
X107743Y330297D01*
X107726Y330099D01*
Y329901D01*
X107743Y329703D01*
X107778Y329507D01*
X107829Y329315D01*
X107897Y329129D01*
X107981Y328949D01*
X108080Y328777D01*
X108194Y328614D01*
X108322Y328462D01*
X108462Y328322D01*
X108614Y328194D01*
X108777Y328080D01*
X108949Y327981D01*
X109129Y327897D01*
X109316Y327829D01*
X109507Y327778D01*
X109703Y327743D01*
X109901Y327726D01*
X110099D01*
X110297Y327743D01*
X110493Y327778D01*
X110684Y327829D01*
X110871Y327897D01*
X111051Y327981D01*
X111223Y328080D01*
X111386Y328194D01*
X111538Y328322D01*
X111678Y328462D01*
X111806Y328614D01*
X111920Y328777D01*
X112019Y328949D01*
X112103Y329129D01*
X112171Y329315D01*
X112222Y329507D01*
X112257Y329703D01*
X112274Y329901D01*
Y330099D01*
X112257Y330297D01*
X112222Y330493D01*
X112171Y330685D01*
X112103Y330871D01*
X112019Y331051D01*
X111920Y331223D01*
X111806Y331386D01*
X111678Y331538D01*
X111538Y331678D01*
X111386Y331806D01*
X111223Y331920D01*
X111051Y332019D01*
X110871Y332103D01*
X110684Y332171D01*
X110493Y332222D01*
X110297Y332257D01*
X110099Y332274D01*
D02*
G37*
G36*
X311000Y334003D02*
X127250D01*
X126988Y333994D01*
X126728Y333968D01*
X126469Y333926D01*
X126214Y333866D01*
X125963Y333790D01*
X125718Y333698D01*
X125480Y333590D01*
X125249Y333466D01*
X125026Y333328D01*
X124977Y333293D01*
X120864Y332261D01*
X120819Y332257D01*
X120770Y332248D01*
X120721Y332242D01*
X120671Y332231D01*
X120623Y332222D01*
X120576Y332210D01*
X120527Y332199D01*
X120479Y332183D01*
X120431Y332171D01*
X120385Y332154D01*
X120337Y332139D01*
X120291Y332120D01*
X120245Y332103D01*
X120200Y332082D01*
X120154Y332063D01*
X120110Y332040D01*
X120065Y332019D01*
X120022Y331994D01*
X119978Y331971D01*
X119936Y331945D01*
X119893Y331920D01*
X119852Y331891D01*
X119810Y331865D01*
X119771Y331834D01*
X119730Y331806D01*
X119692Y331774D01*
X119653Y331744D01*
X119616Y331710D01*
X119578Y331678D01*
X119543Y331643D01*
X119506Y331609D01*
X119473Y331573D01*
X119438Y331538D01*
X119406Y331500D01*
X119372Y331463D01*
X119342Y331424D01*
X119310Y331386D01*
X119282Y331345D01*
X119251Y331306D01*
X119225Y331264D01*
X119196Y331223D01*
X119171Y331180D01*
X119144Y331138D01*
X119122Y331094D01*
X119097Y331051D01*
X119076Y331006D01*
X119053Y330962D01*
X119034Y330916D01*
X119013Y330871D01*
X118996Y330824D01*
X118977Y330779D01*
X118962Y330731D01*
X118945Y330685D01*
X118932Y330637D01*
X118917Y330589D01*
X118906Y330540D01*
X118894Y330493D01*
X118885Y330444D01*
X118874Y330395D01*
X118868Y330346D01*
X118859Y330297D01*
X118855Y330248D01*
X118848Y330198D01*
X118846Y330149D01*
X118842Y330099D01*
Y330050D01*
X118840Y330000D01*
X118842Y329950D01*
Y329901D01*
X118846Y329851D01*
X118848Y329802D01*
X118855Y329752D01*
X118859Y329703D01*
X118868Y329654D01*
X118874Y329605D01*
X118885Y329556D01*
X118894Y329507D01*
X118906Y329460D01*
X118917Y329411D01*
X118932Y329363D01*
X118945Y329315D01*
X118962Y329269D01*
X118977Y329221D01*
X118996Y329176D01*
X119013Y329129D01*
X119034Y329084D01*
X119053Y329038D01*
X119076Y328994D01*
X119097Y328949D01*
X119122Y328906D01*
X119144Y328862D01*
X119171Y328820D01*
X119196Y328777D01*
X119225Y328736D01*
X119251Y328694D01*
X119282Y328655D01*
X119310Y328614D01*
X119342Y328576D01*
X119372Y328537D01*
X119406Y328500D01*
X119438Y328462D01*
X119473Y328427D01*
X119506Y328391D01*
X119543Y328357D01*
X119578Y328322D01*
X119616Y328290D01*
X119653Y328256D01*
X119692Y328226D01*
X119730Y328194D01*
X119771Y328166D01*
X119810Y328135D01*
X119852Y328109D01*
X119893Y328080D01*
X119936Y328055D01*
X119978Y328029D01*
X120022Y328006D01*
X120065Y327981D01*
X120110Y327960D01*
X120154Y327937D01*
X120200Y327918D01*
X120245Y327897D01*
X120291Y327880D01*
X120337Y327861D01*
X120385Y327846D01*
X120431Y327829D01*
X120479Y327817D01*
X120527Y327801D01*
X120576Y327790D01*
X120623Y327778D01*
X120671Y327769D01*
X120721Y327758D01*
X120770Y327752D01*
X120819Y327743D01*
X120864Y327739D01*
X124977Y326707D01*
X125026Y326672D01*
X125249Y326534D01*
X125480Y326410D01*
X125718Y326302D01*
X125963Y326210D01*
X126214Y326134D01*
X126469Y326074D01*
X126728Y326032D01*
X126988Y326006D01*
X127250Y325997D01*
X311000D01*
X311262Y326006D01*
X311522Y326032D01*
X311781Y326074D01*
X312036Y326134D01*
X312287Y326210D01*
X312532Y326302D01*
X312770Y326410D01*
X313001Y326534D01*
X313224Y326672D01*
X313428Y326818D01*
X318445Y327712D01*
X318884D01*
X319084Y327720D01*
X319282Y327747D01*
X319477Y327790D01*
X319667Y327850D01*
X319851Y327926D01*
X320028Y328018D01*
X320197Y328126D01*
X320355Y328247D01*
X320502Y328382D01*
X320637Y328529D01*
X320759Y328688D01*
X320866Y328856D01*
X320958Y329033D01*
X321035Y329217D01*
X321095Y329408D01*
X321138Y329603D01*
X321164Y329801D01*
X321172Y330000D01*
X321164Y330199D01*
X321138Y330397D01*
X321095Y330592D01*
X321035Y330783D01*
X320958Y330967D01*
X320866Y331144D01*
X320759Y331312D01*
X320637Y331471D01*
X320502Y331618D01*
X320355Y331753D01*
X320197Y331874D01*
X320028Y331982D01*
X319851Y332074D01*
X319667Y332150D01*
X319477Y332210D01*
X319282Y332253D01*
X319084Y332280D01*
X318884Y332288D01*
X318445D01*
X313427Y333182D01*
X313224Y333328D01*
X313001Y333466D01*
X312770Y333590D01*
X312532Y333698D01*
X312287Y333790D01*
X312036Y333866D01*
X311781Y333926D01*
X311522Y333968D01*
X311262Y333994D01*
X311000Y334003D01*
D02*
G37*
G36*
X397000Y340000D02*
X374875D01*
X363944Y334079D01*
X355000D01*
Y334003D01*
X348500D01*
X348238Y333994D01*
X347977Y333968D01*
X347719Y333926D01*
X347464Y333866D01*
X347213Y333790D01*
X346968Y333698D01*
X346730Y333590D01*
X346499Y333466D01*
X346276Y333328D01*
X346080Y333188D01*
X341034Y332285D01*
X340916Y332280D01*
X340718Y332253D01*
X340523Y332210D01*
X340333Y332150D01*
X340149Y332074D01*
X339972Y331982D01*
X339803Y331874D01*
X339645Y331753D01*
X339498Y331618D01*
X339363Y331471D01*
X339241Y331312D01*
X339134Y331144D01*
X339042Y330967D01*
X338965Y330783D01*
X338905Y330592D01*
X338862Y330397D01*
X338836Y330199D01*
X338828Y330000D01*
X338836Y329801D01*
X338862Y329603D01*
X338905Y329408D01*
X338965Y329217D01*
X339042Y329033D01*
X339134Y328856D01*
X339241Y328688D01*
X339363Y328529D01*
X339498Y328382D01*
X339645Y328247D01*
X339803Y328126D01*
X339972Y328018D01*
X340149Y327926D01*
X340333Y327850D01*
X340523Y327790D01*
X340718Y327747D01*
X340916Y327720D01*
X341034Y327715D01*
X346080Y326812D01*
X346276Y326672D01*
X346499Y326534D01*
X346730Y326410D01*
X346968Y326302D01*
X347213Y326210D01*
X347464Y326134D01*
X347719Y326074D01*
X347977Y326032D01*
X348238Y326006D01*
X348500Y325997D01*
X355000D01*
Y325921D01*
X363507D01*
X374875Y320000D01*
Y320000D01*
X397000D01*
Y340000D01*
D02*
G37*
G36*
X65125D02*
X43000D01*
Y320000D01*
X65125D01*
X76081Y325934D01*
X85000D01*
Y326011D01*
X93035D01*
X93297Y326019D01*
X93558Y326045D01*
X93816Y326088D01*
X94071Y326147D01*
X94322Y326223D01*
X94567Y326315D01*
X94806Y326423D01*
X95037Y326547D01*
X95259Y326685D01*
X95285Y326703D01*
X99122Y327738D01*
X99181Y327743D01*
X99377Y327778D01*
X99569Y327829D01*
X99755Y327897D01*
X99935Y327981D01*
X100107Y328080D01*
X100270Y328194D01*
X100422Y328322D01*
X100562Y328462D01*
X100690Y328614D01*
X100804Y328777D01*
X100903Y328949D01*
X100987Y329129D01*
X101055Y329315D01*
X101107Y329507D01*
X101141Y329703D01*
X101158Y329901D01*
Y329993D01*
X101159Y330013D01*
X101158Y330034D01*
Y330099D01*
X101153Y330165D01*
X101150Y330213D01*
X101144Y330261D01*
X101141Y330297D01*
X101135Y330333D01*
X101124Y330411D01*
X101107Y330487D01*
X101107Y330493D01*
X101105Y330498D01*
X101081Y330606D01*
X101021Y330796D01*
X100945Y330980D01*
X100853Y331157D01*
X100745Y331326D01*
X100624Y331484D01*
X100489Y331631D01*
X100342Y331766D01*
X100183Y331888D01*
X100015Y331995D01*
X99838Y332087D01*
X99654Y332164D01*
X99463Y332224D01*
X99268Y332267D01*
X99141Y332284D01*
X95285Y333323D01*
X95259Y333341D01*
X95037Y333480D01*
X94806Y333603D01*
X94567Y333711D01*
X94322Y333803D01*
X94071Y333880D01*
X93816Y333939D01*
X93558Y333982D01*
X93297Y334007D01*
X93035Y334016D01*
X85000D01*
Y334092D01*
X76468D01*
X65125Y340000D01*
Y340000D01*
D02*
G37*
G36*
X115349Y327939D02*
X114349D01*
X114149Y327931D01*
X113951Y327905D01*
X113757Y327862D01*
X113566Y327802D01*
X113382Y327725D01*
X113205Y327633D01*
X113036Y327526D01*
X112878Y327404D01*
X112731Y327269D01*
X112596Y327122D01*
X112474Y326964D01*
X112367Y326795D01*
X112275Y326618D01*
X112198Y326434D01*
X112139Y326244D01*
X112095Y326049D01*
X112069Y325851D01*
X112060Y325651D01*
X112069Y325452D01*
X112095Y325254D01*
X112139Y325059D01*
X112198Y324869D01*
X112275Y324684D01*
X112367Y324507D01*
X112474Y324339D01*
X112596Y324180D01*
X112731Y324033D01*
X112878Y323898D01*
X113036Y323777D01*
X113205Y323670D01*
X113382Y323577D01*
X113566Y323501D01*
X113757Y323441D01*
X113818Y323428D01*
X113963Y323344D01*
X114105Y323228D01*
X114265Y323034D01*
X114546Y322623D01*
X114700Y322333D01*
X114735Y322231D01*
X114733Y322223D01*
X114707Y322025D01*
X114698Y321826D01*
X114707Y321626D01*
X114733Y321428D01*
X114776Y321234D01*
X114836Y321043D01*
X114912Y320859D01*
X115005Y320682D01*
X115112Y320513D01*
X115233Y320355D01*
X115368Y320208D01*
X133337Y302239D01*
X133382Y301926D01*
X133277Y300958D01*
X133227Y300795D01*
X133017Y300634D01*
X132786Y300431D01*
X132569Y300214D01*
X132366Y299983D01*
X132178Y299739D01*
X132008Y299483D01*
X131854Y299216D01*
X131718Y298940D01*
X131600Y298656D01*
X131501Y298365D01*
X131421Y298068D01*
X131361Y297766D01*
X131321Y297461D01*
X131301Y297154D01*
Y296846D01*
X131321Y296539D01*
X131361Y296234D01*
X131421Y295932D01*
X131501Y295635D01*
X131600Y295344D01*
X131718Y295060D01*
X131854Y294784D01*
X132008Y294517D01*
X132178Y294261D01*
X132366Y294017D01*
X132569Y293786D01*
X132786Y293568D01*
X133017Y293366D01*
X133261Y293178D01*
X133517Y293008D01*
X133784Y292854D01*
X134060Y292718D01*
X134344Y292600D01*
X134635Y292501D01*
X134932Y292421D01*
X135234Y292361D01*
X135539Y292321D01*
X135846Y292301D01*
X136154D01*
X136461Y292321D01*
X136766Y292361D01*
X137068Y292421D01*
X137365Y292501D01*
X137656Y292600D01*
X137940Y292718D01*
X138216Y292854D01*
X138483Y293008D01*
X138738Y293178D01*
X138983Y293366D01*
X139214Y293568D01*
X139431Y293786D01*
X139634Y294017D01*
X139822Y294261D01*
X139993Y294517D01*
X140146Y294784D01*
X140282Y295060D01*
X140400Y295344D01*
X140499Y295635D01*
X140579Y295932D01*
X140639Y296234D01*
X140679Y296539D01*
X140699Y296846D01*
Y297154D01*
X140679Y297461D01*
X140639Y297766D01*
X140579Y298068D01*
X140499Y298365D01*
X140400Y298656D01*
X140282Y298940D01*
X140146Y299216D01*
X139993Y299483D01*
X139822Y299739D01*
X140784Y300571D01*
X140786Y300569D01*
X141017Y300366D01*
X141262Y300178D01*
X141517Y300007D01*
X141784Y299854D01*
X142060Y299718D01*
X142344Y299600D01*
X142635Y299501D01*
X142932Y299421D01*
X143234Y299361D01*
X143539Y299321D01*
X143846Y299301D01*
X144154D01*
X144461Y299321D01*
X144766Y299361D01*
X145068Y299421D01*
X145365Y299501D01*
X145656Y299600D01*
X145940Y299718D01*
X146216Y299854D01*
X146483Y300007D01*
X146739Y300178D01*
X146983Y300366D01*
X147214Y300569D01*
X147431Y300786D01*
X147634Y301017D01*
X147822Y301262D01*
X147992Y301517D01*
X148146Y301784D01*
X148282Y302060D01*
X148400Y302344D01*
X148499Y302635D01*
X148579Y302932D01*
X148639Y303234D01*
X148679Y303539D01*
X148699Y303846D01*
Y304154D01*
X148679Y304461D01*
X148639Y304766D01*
X148579Y305068D01*
X148499Y305365D01*
X148400Y305656D01*
X148282Y305940D01*
X148146Y306216D01*
X147992Y306483D01*
X147822Y306738D01*
X147634Y306983D01*
X147431Y307214D01*
X147214Y307432D01*
X146983Y307634D01*
X146739Y307822D01*
X146483Y307992D01*
X146216Y308146D01*
X145940Y308282D01*
X145656Y308400D01*
X145365Y308499D01*
X145068Y308579D01*
X144766Y308639D01*
X144461Y308679D01*
X144154Y308699D01*
X143846D01*
X143539Y308679D01*
X143234Y308639D01*
X142932Y308579D01*
X142635Y308499D01*
X142344Y308400D01*
X142060Y308282D01*
X141784Y308146D01*
X141517Y307992D01*
X141262Y307822D01*
X141017Y307634D01*
X140786Y307432D01*
X140569Y307214D01*
X140366Y306983D01*
X140331Y306937D01*
X139342Y306747D01*
X139075Y306750D01*
X138784Y306834D01*
X119650Y325968D01*
X119502Y326103D01*
X119344Y326224D01*
X119176Y326331D01*
X118999Y326424D01*
X118814Y326500D01*
X118624Y326560D01*
X118429Y326603D01*
X118231Y326629D01*
X118032Y326638D01*
X117598D01*
X116967Y327269D01*
X116819Y327404D01*
X116661Y327526D01*
X116493Y327633D01*
X116316Y327725D01*
X116131Y327802D01*
X115941Y327862D01*
X115746Y327905D01*
X115548Y327931D01*
X115349Y327939D01*
D02*
G37*
G36*
X152654Y157199D02*
X152346D01*
X152039Y157179D01*
X151734Y157139D01*
X151432Y157079D01*
X151135Y156999D01*
X150844Y156900D01*
X150560Y156782D01*
X150284Y156646D01*
X150017Y156493D01*
X149761Y156322D01*
X149517Y156134D01*
X149286Y155932D01*
X149068Y155714D01*
X148866Y155483D01*
X148678Y155239D01*
X148507Y154983D01*
X148354Y154716D01*
X148218Y154440D01*
X148100Y154156D01*
X148001Y153865D01*
X147921Y153568D01*
X147861Y153266D01*
X147821Y152961D01*
X147801Y152654D01*
Y152346D01*
X147809Y152225D01*
X147413Y151606D01*
X147084Y151257D01*
X146798Y151081D01*
X146725Y151058D01*
X144610D01*
X144410Y151049D01*
X144212Y151023D01*
X144017Y150980D01*
X143827Y150920D01*
X143643Y150843D01*
X143465Y150751D01*
X143297Y150644D01*
X143139Y150522D01*
X142992Y150387D01*
X138154Y145549D01*
X138019Y145402D01*
X137897Y145244D01*
X137790Y145076D01*
X137698Y144899D01*
X137664Y144818D01*
X133808Y139544D01*
X133041Y138777D01*
X133040Y138776D01*
X115368Y121104D01*
X115233Y120957D01*
X115112Y120799D01*
X115005Y120630D01*
X114912Y120453D01*
X114836Y120269D01*
X114776Y120078D01*
X114733Y119884D01*
X114707Y119686D01*
X114698Y119486D01*
Y118174D01*
X114707Y117975D01*
X114733Y117777D01*
X114776Y117582D01*
X114836Y117392D01*
X113904Y116639D01*
X113805Y116583D01*
X113586Y116506D01*
X113401Y116432D01*
X113223Y116341D01*
X113054Y116235D01*
X112894Y116115D01*
X112746Y115982D01*
X112610Y115836D01*
X112487Y115679D01*
X112378Y115511D01*
X112284Y115335D01*
X112206Y115152D01*
X112144Y114962D01*
X112099Y114767D01*
X112071Y114570D01*
X112061Y114370D01*
X112067Y114171D01*
X112092Y113973D01*
X112133Y113777D01*
X112191Y113586D01*
X112266Y113401D01*
X112356Y113223D01*
X112462Y113054D01*
X112582Y112894D01*
X112716Y112746D01*
X112861Y112610D01*
X113019Y112487D01*
X113186Y112378D01*
X113362Y112284D01*
X113546Y112206D01*
X113736Y112144D01*
X113930Y112099D01*
X114128Y112071D01*
X114327Y112061D01*
X114527Y112067D01*
X114725Y112092D01*
X114920Y112133D01*
X115111Y112191D01*
X118794Y113493D01*
X118843Y113512D01*
X118892Y113530D01*
X118935Y113549D01*
X118979Y113567D01*
X119026Y113591D01*
X119073Y113613D01*
X119115Y113636D01*
X119157Y113658D01*
X119201Y113686D01*
X119247Y113711D01*
X119286Y113738D01*
X119326Y113764D01*
X119368Y113795D01*
X119411Y113825D01*
X119448Y113855D01*
X119486Y113884D01*
X119525Y113918D01*
X119565Y113952D01*
X143487Y135551D01*
X143635Y135501D01*
X143932Y135421D01*
X144234Y135361D01*
X144539Y135321D01*
X144846Y135301D01*
X145154D01*
X145461Y135321D01*
X145766Y135361D01*
X146068Y135421D01*
X146365Y135501D01*
X146656Y135600D01*
X146940Y135718D01*
X147216Y135854D01*
X147483Y136007D01*
X147739Y136178D01*
X147983Y136366D01*
X148214Y136568D01*
X148432Y136786D01*
X148634Y137017D01*
X148822Y137261D01*
X148993Y137517D01*
X149146Y137784D01*
X149282Y138060D01*
X149400Y138344D01*
X149499Y138635D01*
X149579Y138932D01*
X149639Y139234D01*
X149679Y139539D01*
X149699Y139846D01*
Y140154D01*
X149679Y140461D01*
X149639Y140766D01*
X149579Y141068D01*
X149499Y141365D01*
X149400Y141656D01*
X149282Y141940D01*
X149146Y142216D01*
X148993Y142483D01*
X148822Y142739D01*
X148634Y142983D01*
X148432Y143214D01*
X148214Y143432D01*
X147983Y143634D01*
X147739Y143822D01*
X147483Y143993D01*
X147216Y144146D01*
X146940Y144282D01*
X146656Y144400D01*
X146365Y144499D01*
X146068Y144579D01*
X146049Y144582D01*
X145538Y145480D01*
X145436Y145855D01*
X145459Y145895D01*
X146101Y146481D01*
X148507D01*
X148707Y146490D01*
X148905Y146516D01*
X149100Y146559D01*
X149290Y146619D01*
X149474Y146696D01*
X149652Y146788D01*
X149820Y146895D01*
X149978Y147017D01*
X150126Y147151D01*
X151016Y148042D01*
X151135Y148001D01*
X151432Y147921D01*
X151734Y147861D01*
X152039Y147821D01*
X152346Y147801D01*
X152654D01*
X152961Y147821D01*
X153266Y147861D01*
X153568Y147921D01*
X153865Y148001D01*
X154156Y148100D01*
X154440Y148218D01*
X154716Y148354D01*
X154983Y148507D01*
X155239Y148678D01*
X155483Y148866D01*
X155714Y149068D01*
X155932Y149286D01*
X156134Y149517D01*
X156322Y149761D01*
X156493Y150017D01*
X156646Y150284D01*
X156782Y150560D01*
X156900Y150844D01*
X156999Y151135D01*
X157079Y151432D01*
X157139Y151734D01*
X157179Y152039D01*
X157199Y152346D01*
Y152654D01*
X157179Y152961D01*
X157139Y153266D01*
X157079Y153568D01*
X156999Y153865D01*
X156900Y154156D01*
X156782Y154440D01*
X156646Y154716D01*
X156493Y154983D01*
X156322Y155239D01*
X156134Y155483D01*
X155932Y155714D01*
X155714Y155932D01*
X155483Y156134D01*
X155239Y156322D01*
X154983Y156493D01*
X154716Y156646D01*
X154440Y156782D01*
X154156Y156900D01*
X153865Y156999D01*
X153568Y157079D01*
X153266Y157139D01*
X152961Y157179D01*
X152654Y157199D01*
D02*
G37*
G36*
X110000Y321160D02*
X109951Y321158D01*
X109901D01*
X109851Y321154D01*
X109802Y321152D01*
X109752Y321145D01*
X109703Y321141D01*
X109654Y321132D01*
X109605Y321126D01*
X109556Y321115D01*
X109507Y321106D01*
X109460Y321094D01*
X109411Y321083D01*
X109363Y321068D01*
X109316Y321055D01*
X109269Y321038D01*
X109221Y321023D01*
X109176Y321004D01*
X109129Y320987D01*
X109084Y320966D01*
X109038Y320947D01*
X108994Y320924D01*
X108949Y320903D01*
X108906Y320878D01*
X108862Y320855D01*
X108820Y320829D01*
X108777Y320804D01*
X108736Y320775D01*
X108694Y320749D01*
X108655Y320718D01*
X108614Y320690D01*
X108576Y320658D01*
X108537Y320628D01*
X108500Y320594D01*
X108462Y320562D01*
X108427Y320527D01*
X108391Y320494D01*
X108357Y320457D01*
X108322Y320422D01*
X108290Y320384D01*
X108256Y320347D01*
X108226Y320308D01*
X108194Y320270D01*
X108166Y320229D01*
X108135Y320190D01*
X108109Y320148D01*
X108080Y320107D01*
X108055Y320064D01*
X108029Y320022D01*
X108006Y319978D01*
X107981Y319935D01*
X107960Y319890D01*
X107937Y319846D01*
X107918Y319800D01*
X107897Y319755D01*
X107880Y319709D01*
X107861Y319663D01*
X107846Y319615D01*
X107829Y319569D01*
X107816Y319521D01*
X107801Y319473D01*
X107790Y319424D01*
X107778Y319377D01*
X107769Y319329D01*
X107758Y319279D01*
X107752Y319230D01*
X107752Y319228D01*
X106669Y316218D01*
X106534Y316001D01*
X106410Y315770D01*
X106302Y315532D01*
X106210Y315287D01*
X106134Y315036D01*
X106074Y314781D01*
X106032Y314522D01*
X106006Y314262D01*
X105997Y314000D01*
Y127750D01*
X106006Y127488D01*
X106032Y127228D01*
X106074Y126969D01*
X106134Y126714D01*
X106210Y126463D01*
X106302Y126218D01*
X106410Y125980D01*
X106534Y125749D01*
X106672Y125526D01*
X106753Y125413D01*
X107738Y121350D01*
X107726Y121215D01*
Y121016D01*
X107743Y120819D01*
X107778Y120623D01*
X107829Y120431D01*
X107897Y120245D01*
X107981Y120065D01*
X108080Y119893D01*
X108194Y119730D01*
X108322Y119578D01*
X108462Y119438D01*
X108614Y119310D01*
X108777Y119196D01*
X108949Y119097D01*
X109129Y119013D01*
X109316Y118945D01*
X109507Y118894D01*
X109703Y118859D01*
X109901Y118842D01*
X110099D01*
X110297Y118859D01*
X110493Y118894D01*
X110684Y118945D01*
X110871Y119013D01*
X111051Y119097D01*
X111223Y119196D01*
X111386Y119310D01*
X111538Y119438D01*
X111678Y119578D01*
X111806Y119730D01*
X111920Y119893D01*
X112019Y120065D01*
X112103Y120245D01*
X112171Y120431D01*
X112222Y120623D01*
X112257Y120819D01*
X112274Y121016D01*
Y121215D01*
X112262Y121349D01*
X113247Y125413D01*
X113328Y125526D01*
X113466Y125749D01*
X113590Y125980D01*
X113698Y126218D01*
X113790Y126463D01*
X113866Y126714D01*
X113926Y126969D01*
X113968Y127228D01*
X113994Y127488D01*
X114003Y127750D01*
Y314000D01*
X113994Y314262D01*
X113968Y314522D01*
X113926Y314781D01*
X113866Y315036D01*
X113790Y315287D01*
X113698Y315532D01*
X113590Y315770D01*
X113466Y316001D01*
X113331Y316218D01*
X112248Y319228D01*
X112248Y319230D01*
X112242Y319279D01*
X112231Y319329D01*
X112222Y319377D01*
X112210Y319424D01*
X112199Y319473D01*
X112184Y319521D01*
X112171Y319569D01*
X112154Y319615D01*
X112139Y319663D01*
X112120Y319709D01*
X112103Y319755D01*
X112082Y319800D01*
X112063Y319846D01*
X112040Y319890D01*
X112019Y319935D01*
X111994Y319978D01*
X111971Y320022D01*
X111945Y320064D01*
X111920Y320107D01*
X111891Y320148D01*
X111865Y320190D01*
X111834Y320229D01*
X111806Y320270D01*
X111774Y320308D01*
X111744Y320347D01*
X111710Y320384D01*
X111678Y320422D01*
X111643Y320457D01*
X111609Y320494D01*
X111573Y320527D01*
X111538Y320562D01*
X111500Y320594D01*
X111463Y320628D01*
X111424Y320658D01*
X111386Y320690D01*
X111345Y320718D01*
X111306Y320749D01*
X111264Y320775D01*
X111223Y320804D01*
X111180Y320829D01*
X111138Y320855D01*
X111094Y320878D01*
X111051Y320903D01*
X111006Y320924D01*
X110962Y320947D01*
X110916Y320966D01*
X110871Y320987D01*
X110824Y321004D01*
X110779Y321023D01*
X110731Y321038D01*
X110684Y321055D01*
X110637Y321068D01*
X110589Y321083D01*
X110540Y321094D01*
X110493Y321106D01*
X110444Y321115D01*
X110395Y321126D01*
X110346Y321132D01*
X110297Y321141D01*
X110248Y321145D01*
X110198Y321152D01*
X110149Y321154D01*
X110099Y321158D01*
X110049D01*
X110000Y321160D01*
D02*
G37*
G36*
X110099Y112274D02*
X109901D01*
X109703Y112257D01*
X109507Y112222D01*
X109316Y112171D01*
X109129Y112103D01*
X108949Y112019D01*
X108777Y111920D01*
X108614Y111806D01*
X108462Y111678D01*
X108322Y111538D01*
X108194Y111386D01*
X108080Y111223D01*
X107981Y111051D01*
X107897Y110871D01*
X107829Y110684D01*
X107778Y110493D01*
X107743Y110297D01*
X107726Y110099D01*
Y109901D01*
X107743Y109703D01*
X107778Y109507D01*
X107829Y109316D01*
X107897Y109129D01*
X107981Y108949D01*
X108080Y108777D01*
X108194Y108614D01*
X108322Y108462D01*
X108462Y108322D01*
X108614Y108194D01*
X108777Y108080D01*
X108949Y107981D01*
X109129Y107897D01*
X109316Y107829D01*
X109507Y107778D01*
X109703Y107743D01*
X109901Y107726D01*
X110099D01*
X110297Y107743D01*
X110493Y107778D01*
X110684Y107829D01*
X110871Y107897D01*
X111051Y107981D01*
X111223Y108080D01*
X111386Y108194D01*
X111538Y108322D01*
X111678Y108462D01*
X111806Y108614D01*
X111920Y108777D01*
X112019Y108949D01*
X112103Y109129D01*
X112171Y109316D01*
X112222Y109507D01*
X112257Y109703D01*
X112274Y109901D01*
Y110099D01*
X112257Y110297D01*
X112222Y110493D01*
X112171Y110684D01*
X112103Y110871D01*
X112019Y111051D01*
X111920Y111223D01*
X111806Y111386D01*
X111678Y111538D01*
X111538Y111678D01*
X111386Y111806D01*
X111223Y111920D01*
X111051Y112019D01*
X110871Y112103D01*
X110684Y112171D01*
X110493Y112222D01*
X110297Y112257D01*
X110099Y112274D01*
D02*
G37*
G36*
X65125Y120000D02*
X43000D01*
Y100000D01*
X65125D01*
X76056Y105921D01*
X85000D01*
Y105997D01*
X91500D01*
X91762Y106006D01*
X92022Y106032D01*
X92281Y106074D01*
X92536Y106134D01*
X92787Y106210D01*
X93032Y106302D01*
X93270Y106410D01*
X93501Y106534D01*
X93724Y106672D01*
X93936Y106824D01*
X98553Y107749D01*
X98587Y107743D01*
X98785Y107726D01*
X98983D01*
X99181Y107743D01*
X99377Y107778D01*
X99569Y107829D01*
X99755Y107897D01*
X99935Y107981D01*
X100107Y108080D01*
X100270Y108194D01*
X100422Y108322D01*
X100562Y108462D01*
X100690Y108614D01*
X100804Y108777D01*
X100903Y108949D01*
X100987Y109129D01*
X101055Y109316D01*
X101106Y109507D01*
X101141Y109703D01*
X101158Y109901D01*
Y110099D01*
X101141Y110297D01*
X101106Y110493D01*
X101055Y110684D01*
X100987Y110871D01*
X100903Y111051D01*
X100804Y111223D01*
X100690Y111386D01*
X100562Y111538D01*
X100422Y111678D01*
X100270Y111806D01*
X100107Y111920D01*
X99935Y112019D01*
X99755Y112103D01*
X99569Y112171D01*
X99377Y112222D01*
X99181Y112257D01*
X98983Y112274D01*
X98785D01*
X98587Y112257D01*
X98553Y112251D01*
X93936Y113176D01*
X93724Y113328D01*
X93501Y113466D01*
X93270Y113590D01*
X93032Y113698D01*
X92787Y113790D01*
X92536Y113866D01*
X92281Y113926D01*
X92022Y113968D01*
X91762Y113994D01*
X91500Y114003D01*
X85000D01*
Y114079D01*
X76494D01*
X65125Y120000D01*
Y120000D01*
D02*
G37*
G36*
X330000Y321172D02*
X329801Y321164D01*
X329603Y321138D01*
X329408Y321095D01*
X329217Y321035D01*
X329033Y320958D01*
X328856Y320866D01*
X328688Y320759D01*
X328529Y320637D01*
X328382Y320502D01*
X328247Y320355D01*
X328126Y320197D01*
X328018Y320028D01*
X327926Y319851D01*
X327850Y319667D01*
X327790Y319477D01*
X327747Y319282D01*
X327720Y319084D01*
X327712Y318884D01*
Y318196D01*
X326818Y313178D01*
X326672Y312974D01*
X326534Y312751D01*
X326410Y312520D01*
X326302Y312282D01*
X326210Y312037D01*
X326134Y311786D01*
X326074Y311531D01*
X326032Y311273D01*
X326006Y311012D01*
X325997Y310750D01*
Y133750D01*
X325997D01*
X326007Y133017D01*
X326035Y132284D01*
X326083Y131553D01*
X326151Y130823D01*
X326237Y130095D01*
X326342Y129369D01*
X326466Y128647D01*
X326609Y127928D01*
X326771Y127213D01*
X326951Y126502D01*
X327150Y125797D01*
X327368Y125097D01*
X327603Y124402D01*
X327857Y123715D01*
X328129Y123034D01*
X328418Y122360D01*
X328725Y121694D01*
X329049Y121037D01*
X329391Y120388D01*
X329749Y119748D01*
X330124Y119118D01*
X330515Y118498D01*
X330922Y117889D01*
X331345Y117290D01*
X331784Y116703D01*
X332238Y116127D01*
X332706Y115563D01*
X333190Y115012D01*
X333687Y114474D01*
X334199Y113949D01*
X334724Y113437D01*
X335262Y112940D01*
X335814Y112456D01*
X336377Y111988D01*
X336953Y111534D01*
X337540Y111095D01*
X338139Y110672D01*
X338749Y110265D01*
X339369Y109874D01*
X339999Y109499D01*
X340638Y109141D01*
X341287Y108799D01*
X341945Y108475D01*
X342610Y108168D01*
X343284Y107879D01*
X343965Y107607D01*
X344652Y107353D01*
X345347Y107118D01*
X346047Y106900D01*
X346752Y106701D01*
X347463Y106521D01*
X348178Y106359D01*
X348897Y106216D01*
X349619Y106092D01*
X350345Y105987D01*
X351073Y105900D01*
X351803Y105833D01*
X352534Y105785D01*
X353267Y105757D01*
X353702Y105751D01*
X353784Y105748D01*
X355000D01*
Y105672D01*
X363860D01*
X374750Y100000D01*
X397000D01*
Y120000D01*
X374750D01*
Y120000D01*
X363359Y113830D01*
X355000D01*
Y113927D01*
X353730Y113755D01*
X353372Y113760D01*
X352744Y113790D01*
X352118Y113839D01*
X351493Y113908D01*
X350871Y113997D01*
X350252Y114105D01*
X349637Y114232D01*
X349026Y114379D01*
X348420Y114545D01*
X347820Y114729D01*
X347225Y114933D01*
X346638Y115155D01*
X346057Y115395D01*
X345485Y115654D01*
X344920Y115930D01*
X344365Y116224D01*
X343820Y116536D01*
X343284Y116864D01*
X342759Y117209D01*
X342245Y117570D01*
X341742Y117947D01*
X341252Y118340D01*
X340774Y118748D01*
X340309Y119171D01*
X339858Y119608D01*
X339421Y120059D01*
X338998Y120524D01*
X338590Y121002D01*
X338197Y121492D01*
X337820Y121995D01*
X337459Y122509D01*
X337114Y123034D01*
X336786Y123569D01*
X336474Y124115D01*
X336180Y124670D01*
X335904Y125235D01*
X335645Y125807D01*
X335405Y126388D01*
X335183Y126975D01*
X334979Y127570D01*
X334795Y128170D01*
X334629Y128776D01*
X334482Y129387D01*
X334355Y130002D01*
X334247Y130621D01*
X334158Y131243D01*
X334089Y131868D01*
X334040Y132494D01*
X334011Y133122D01*
X334001Y133708D01*
X334003Y133750D01*
Y310750D01*
X333994Y311012D01*
X333968Y311273D01*
X333926Y311531D01*
X333866Y311786D01*
X333790Y312037D01*
X333698Y312282D01*
X333590Y312520D01*
X333466Y312751D01*
X333328Y312974D01*
X333182Y313178D01*
X332288Y318196D01*
Y318884D01*
X332280Y319084D01*
X332253Y319282D01*
X332210Y319477D01*
X332150Y319667D01*
X332074Y319851D01*
X331982Y320028D01*
X331874Y320197D01*
X331753Y320355D01*
X331618Y320502D01*
X331471Y320637D01*
X331312Y320759D01*
X331144Y320866D01*
X330967Y320958D01*
X330783Y321035D01*
X330592Y321095D01*
X330397Y321138D01*
X330199Y321164D01*
X330000Y321172D01*
D02*
G37*
G36*
X306000Y114003D02*
Y114003D01*
X128500D01*
X128238Y113994D01*
X127978Y113968D01*
X127719Y113926D01*
X127464Y113866D01*
X127213Y113790D01*
X126968Y113698D01*
X126730Y113590D01*
X126499Y113466D01*
X126276Y113328D01*
X126080Y113188D01*
X121034Y112285D01*
X120916Y112280D01*
X120718Y112253D01*
X120524Y112210D01*
X120333Y112150D01*
X120149Y112074D01*
X119972Y111982D01*
X119803Y111874D01*
X119645Y111753D01*
X119498Y111618D01*
X119363Y111471D01*
X119241Y111313D01*
X119134Y111144D01*
X119042Y110967D01*
X118966Y110783D01*
X118905Y110592D01*
X118862Y110397D01*
X118836Y110199D01*
X118827Y110000D01*
X118836Y109801D01*
X118862Y109603D01*
X118905Y109408D01*
X118966Y109217D01*
X119042Y109033D01*
X119134Y108856D01*
X119241Y108688D01*
X119363Y108529D01*
X119498Y108382D01*
X119645Y108247D01*
X119803Y108126D01*
X119972Y108018D01*
X120149Y107926D01*
X120333Y107850D01*
X120524Y107790D01*
X120718Y107747D01*
X120916Y107720D01*
X121034Y107715D01*
X126080Y106812D01*
X126276Y106672D01*
X126499Y106534D01*
X126730Y106410D01*
X126968Y106302D01*
X127213Y106210D01*
X127464Y106134D01*
X127719Y106074D01*
X127978Y106032D01*
X128238Y106006D01*
X128500Y105997D01*
X306000D01*
X306042Y105999D01*
X306628Y105990D01*
X307256Y105960D01*
X307882Y105911D01*
X308507Y105842D01*
X309129Y105753D01*
X309748Y105645D01*
X310363Y105518D01*
X310974Y105371D01*
X311580Y105205D01*
X312180Y105021D01*
X312775Y104817D01*
X313362Y104595D01*
X313943Y104355D01*
X314515Y104096D01*
X315080Y103820D01*
X315635Y103526D01*
X316180Y103214D01*
X316716Y102886D01*
X317241Y102541D01*
X317755Y102180D01*
X318258Y101803D01*
X318748Y101410D01*
X319226Y101002D01*
X319690Y100579D01*
X320142Y100142D01*
X320579Y99691D01*
X321002Y99226D01*
X321410Y98748D01*
X321803Y98258D01*
X322180Y97755D01*
X322541Y97241D01*
X322886Y96716D01*
X323214Y96181D01*
X323526Y95635D01*
X323820Y95080D01*
X324096Y94515D01*
X324355Y93943D01*
X324595Y93362D01*
X324817Y92775D01*
X325021Y92180D01*
X325205Y91580D01*
X325371Y90974D01*
X325518Y90363D01*
X325645Y89747D01*
X325753Y89129D01*
X325842Y88507D01*
X325911Y87882D01*
X325960Y87256D01*
X325989Y86628D01*
X325995Y86270D01*
X325878Y86000D01*
X325921D01*
Y76869D01*
X320000Y65500D01*
Y43000D01*
X340000D01*
Y65500D01*
X334079Y76431D01*
Y84000D01*
Y85884D01*
X334003Y86000D01*
X333993Y86733D01*
X333965Y87466D01*
X333917Y88197D01*
X333849Y88927D01*
X333763Y89655D01*
X333658Y90381D01*
X333534Y91103D01*
X333391Y91822D01*
X333229Y92537D01*
X333049Y93248D01*
X332850Y93953D01*
X332632Y94653D01*
X332397Y95348D01*
X332143Y96035D01*
X331871Y96716D01*
X331582Y97390D01*
X331275Y98056D01*
X330951Y98713D01*
X330609Y99362D01*
X330251Y100001D01*
X329876Y100632D01*
X329485Y101251D01*
X329078Y101861D01*
X328655Y102460D01*
X328216Y103047D01*
X327762Y103623D01*
X327294Y104186D01*
X326810Y104738D01*
X326313Y105276D01*
X325801Y105801D01*
X325276Y106313D01*
X324738Y106810D01*
X324186Y107294D01*
X323623Y107762D01*
X323047Y108216D01*
X322460Y108655D01*
X321861Y109078D01*
X321251Y109485D01*
X320631Y109876D01*
X320001Y110251D01*
X319362Y110609D01*
X318713Y110951D01*
X318055Y111275D01*
X317390Y111582D01*
X316716Y111871D01*
X316035Y112143D01*
X315348Y112397D01*
X314653Y112632D01*
X313953Y112850D01*
X313248Y113049D01*
X312537Y113229D01*
X311822Y113391D01*
X311103Y113534D01*
X310381Y113658D01*
X309655Y113763D01*
X308927Y113849D01*
X308197Y113917D01*
X307466Y113965D01*
X306733Y113993D01*
X306000Y114003D01*
D02*
G37*
G36*
X110000Y101172D02*
X109801Y101164D01*
X109603Y101138D01*
X109408Y101095D01*
X109217Y101034D01*
X109033Y100958D01*
X108856Y100866D01*
X108688Y100759D01*
X108529Y100637D01*
X108382Y100502D01*
X108247Y100355D01*
X108126Y100197D01*
X108018Y100028D01*
X107926Y99851D01*
X107850Y99667D01*
X107790Y99476D01*
X107747Y99282D01*
X107720Y99084D01*
X107720Y99072D01*
X106785Y94132D01*
X106672Y93974D01*
X106534Y93751D01*
X106410Y93520D01*
X106302Y93282D01*
X106210Y93037D01*
X106134Y92786D01*
X106074Y92531D01*
X106032Y92273D01*
X106006Y92012D01*
X105997Y91750D01*
Y85000D01*
X105921D01*
Y83000D01*
Y76494D01*
X100000Y65125D01*
X100000D01*
Y43000D01*
X120000D01*
Y65125D01*
X114079Y76056D01*
Y83000D01*
Y85000D01*
X114003D01*
Y91750D01*
X113994Y92012D01*
X113968Y92273D01*
X113926Y92531D01*
X113866Y92786D01*
X113790Y93037D01*
X113698Y93282D01*
X113590Y93520D01*
X113466Y93751D01*
X113328Y93974D01*
X113215Y94132D01*
X112280Y99072D01*
X112280Y99084D01*
X112253Y99282D01*
X112210Y99476D01*
X112150Y99667D01*
X112074Y99851D01*
X111982Y100028D01*
X111874Y100197D01*
X111753Y100355D01*
X111618Y100502D01*
X111471Y100637D01*
X111313Y100759D01*
X111144Y100866D01*
X110967Y100958D01*
X110783Y101034D01*
X110592Y101095D01*
X110397Y101138D01*
X110199Y101164D01*
X110000Y101172D01*
D02*
G37*
%LPD*%
G36*
X110750Y561116D02*
X109250D01*
X108159Y566094D01*
X111841D01*
X110750Y561116D01*
D02*
G37*
G36*
X127500Y548248D02*
X121937Y549250D01*
Y550750D01*
X127500Y551752D01*
Y548248D01*
D02*
G37*
G36*
X330762Y342441D02*
X329238D01*
X328248Y348000D01*
X331752D01*
X330762Y342441D01*
D02*
G37*
G36*
X98884Y550750D02*
Y549250D01*
X93906Y548159D01*
Y551841D01*
X98884Y550750D01*
D02*
G37*
G36*
X111865Y534129D02*
X108135D01*
X109250Y538884D01*
X110750D01*
X111865Y534129D01*
D02*
G37*
G36*
X110762Y341116D02*
X109238D01*
X108060Y344961D01*
X111940D01*
X110762Y341116D01*
D02*
G37*
G36*
X318309Y330762D02*
Y329238D01*
X312750Y328248D01*
Y331752D01*
X318309Y330762D01*
D02*
G37*
G36*
X125646Y328113D02*
X121116Y329250D01*
Y330750D01*
X125646Y331887D01*
Y328113D01*
D02*
G37*
G36*
X346755Y328242D02*
X341191Y329238D01*
Y330762D01*
X346755Y331758D01*
Y328242D01*
D02*
G37*
G36*
X98871Y330775D02*
Y329251D01*
X94611Y328103D01*
Y331924D01*
X98871Y330775D01*
D02*
G37*
G36*
X111965Y315507D02*
X108035D01*
X109250Y318884D01*
X110750D01*
X111965Y315507D01*
D02*
G37*
G36*
X110635Y121116D02*
X109365D01*
X108159Y126094D01*
X111841D01*
X110635Y121116D01*
D02*
G37*
G36*
X98847Y110635D02*
Y109365D01*
X93244Y108242D01*
Y111758D01*
X98847Y110635D01*
D02*
G37*
G36*
X331752Y312500D02*
X328248D01*
X329238Y318059D01*
X330762D01*
X331752Y312500D01*
D02*
G37*
G36*
X126756Y108242D02*
X121191Y109238D01*
Y110762D01*
X126756Y111758D01*
Y108242D01*
D02*
G37*
G36*
X111788Y93464D02*
X108212D01*
X109238Y98884D01*
X110762D01*
X111788Y93464D01*
D02*
G37*
D12*
X91500Y110000D02*
X98884D01*
X110000Y121116D02*
Y127750D01*
D13*
X260350Y615950D02*
X260400Y616000D01*
X260350Y596900D02*
Y615950D01*
X158700Y590550D02*
X254000D01*
X260350Y596900D01*
X127150Y559000D02*
X158700Y590550D01*
X126382Y563382D02*
X159900Y596900D01*
X215900D01*
X235000Y616000D01*
X419100Y241300D02*
Y260350D01*
X400000Y232000D02*
X409800D01*
X419100Y241300D01*
X393912Y263488D02*
X400885Y256515D01*
X338032Y324350D02*
X394829Y267552D01*
X411898D01*
X400885Y256515D02*
X402297D01*
X393912Y263488D02*
Y264900D01*
X336986Y321826D02*
X393912Y264900D01*
X411898Y267552D02*
X419100Y260350D01*
X335650Y324350D02*
X338032D01*
X44450Y425450D02*
X76827Y393073D01*
Y365737D02*
Y393073D01*
Y365737D02*
X104350Y338214D01*
Y337698D02*
Y338214D01*
Y337698D02*
X105651Y336396D01*
Y334349D02*
Y336396D01*
X74303Y364509D02*
Y370197D01*
X44450Y400050D02*
X74303Y370197D01*
Y364509D02*
X101826Y336986D01*
X97014Y103014D02*
X101826D01*
X138382Y304000D02*
X144000D01*
X136000Y297000D02*
Y302812D01*
X116986Y321826D02*
X136000Y302812D01*
X118032Y324350D02*
X138382Y304000D01*
X115349Y325651D02*
X116650Y324350D01*
X118032D01*
X114349Y325651D02*
X115349D01*
X300000Y359000D02*
X319490Y339510D01*
X300000Y359000D02*
Y363537D01*
X298000Y356000D02*
X317014Y336986D01*
X293000Y356000D02*
X298000D01*
X319490Y339510D02*
X322871D01*
X324350Y335242D02*
X325243Y334349D01*
X322871Y339510D02*
X324350Y338032D01*
X325243Y334349D02*
X325651D01*
X324350Y335242D02*
Y338032D01*
X317014Y336986D02*
X321826D01*
X334349Y325651D02*
X335650Y324350D01*
X121000Y563382D02*
X126382D01*
X122000Y559000D02*
X127150D01*
X115650Y555650D02*
Y558032D01*
X114349Y554349D02*
X115650Y555650D01*
Y558032D02*
X121000Y563382D01*
X64000Y504000D02*
X100490Y540490D01*
X63000Y504000D02*
X64000D01*
X71000Y504500D02*
X103014Y536514D01*
X100490Y540490D02*
Y542871D01*
X71000Y498000D02*
Y504500D01*
X103014Y536514D02*
Y541826D01*
X119986Y556986D02*
X122000Y559000D01*
X118174Y556986D02*
X119986D01*
X110000Y341116D02*
Y346500D01*
X330000Y341116D02*
Y349750D01*
Y310750D02*
Y318884D01*
X341116Y330000D02*
X348500D01*
X311000D02*
X318884D01*
X110000Y91750D02*
Y98884D01*
X121116Y110000D02*
X128500D01*
X93035Y330013D02*
X98871D01*
X104350Y544350D02*
X105651Y545651D01*
X100490Y542871D02*
X101968Y544350D01*
X104350D01*
X79188Y66812D02*
Y75188D01*
X102000Y98000D01*
Y99596D01*
X152238Y152500D02*
X152500D01*
X148507Y148770D02*
X152238Y152500D01*
X144610Y148770D02*
X148507D01*
X116986Y119486D02*
X134658Y137158D01*
X134658D01*
X135551Y138051D01*
X139772Y143823D02*
Y143932D01*
X116986Y118174D02*
Y119486D01*
X135551Y138051D02*
X139772Y143823D01*
Y143932D02*
X144610Y148770D01*
X114349Y114349D02*
X118032Y115650D01*
X145000Y140000D01*
X63000Y69000D02*
X97014Y103014D01*
X58000Y69000D02*
X63000D01*
X110000Y561116D02*
X110000D01*
X104366Y101962D02*
Y104366D01*
X102000Y99596D02*
X104366Y101962D01*
Y104366D02*
X105651Y105651D01*
D14*
X103922Y576990D02*
D03*
X109922D02*
D03*
X329732Y577118D02*
D03*
X323732D02*
D03*
X116207Y440000D02*
D03*
X110207D02*
D03*
X110300Y220000D02*
D03*
X116300D02*
D03*
X330250Y82750D02*
D03*
X336250D02*
D03*
X116300Y83000D02*
D03*
X110300D02*
D03*
D15*
X83179Y543900D02*
D03*
Y549900D02*
D03*
X220000Y336200D02*
D03*
Y330200D02*
D03*
X357990Y556123D02*
D03*
Y550123D02*
D03*
X357000Y330250D02*
D03*
Y336250D02*
D03*
X358000Y110000D02*
D03*
Y116000D02*
D03*
X83000Y103750D02*
D03*
Y109750D02*
D03*
D16*
X110000Y538884D02*
D03*
Y341116D02*
D03*
X101826Y336986D02*
D03*
X110000Y318884D02*
D03*
Y330000D02*
D03*
X109965Y334137D02*
D03*
X112015Y337616D02*
D03*
X114045Y341116D02*
D03*
X105955D02*
D03*
X105651Y334349D02*
D03*
X105863Y330035D02*
D03*
X98884Y334045D02*
D03*
X98884Y330000D02*
D03*
X102385Y327985D02*
D03*
X98884Y325955D02*
D03*
X107985Y322384D02*
D03*
X110035Y325863D02*
D03*
X114045Y318884D02*
D03*
X105955D02*
D03*
X116986Y321826D02*
D03*
X114349Y325651D02*
D03*
X121116Y325955D02*
D03*
X114137Y329965D02*
D03*
X117616Y332015D02*
D03*
X121116Y334045D02*
D03*
X121116Y330000D02*
D03*
X102385Y332015D02*
D03*
X112015Y322384D02*
D03*
X117616Y327985D02*
D03*
X107985Y337616D02*
D03*
X102385Y547985D02*
D03*
X112015Y557616D02*
D03*
X117616Y552015D02*
D03*
X107985Y542384D02*
D03*
X110000Y561116D02*
D03*
X105955Y561116D02*
D03*
X107985Y557616D02*
D03*
X110035Y554137D02*
D03*
X114045Y561116D02*
D03*
X114349Y554349D02*
D03*
X118174Y556986D02*
D03*
X121116Y545955D02*
D03*
Y554045D02*
D03*
X114137Y550035D02*
D03*
X117616Y547985D02*
D03*
X114045Y538884D02*
D03*
X112015Y542384D02*
D03*
X105955Y538884D02*
D03*
X109965Y545863D02*
D03*
X105651Y545651D02*
D03*
X98884Y545955D02*
D03*
X98884Y550000D02*
D03*
X98884Y554045D02*
D03*
X102385Y552015D02*
D03*
X105863Y549965D02*
D03*
X110000Y550000D02*
D03*
X121116D02*
D03*
X103014Y541826D02*
D03*
X321826Y336986D02*
D03*
X330000Y318884D02*
D03*
Y330000D02*
D03*
X329965Y334137D02*
D03*
X332015Y337616D02*
D03*
X334045Y341116D02*
D03*
X330000Y341116D02*
D03*
X325955Y341116D02*
D03*
X325651Y334349D02*
D03*
X325863Y330035D02*
D03*
X318884Y334045D02*
D03*
X318884Y330000D02*
D03*
X322384Y327985D02*
D03*
X318884Y325955D02*
D03*
X327985Y322384D02*
D03*
X330035Y325863D02*
D03*
X334045Y318884D02*
D03*
X325955D02*
D03*
X336986Y321826D02*
D03*
X334349Y325651D02*
D03*
X341116Y325955D02*
D03*
X334137Y329965D02*
D03*
X337616Y332015D02*
D03*
X341116Y334045D02*
D03*
X341116Y330000D02*
D03*
X322384Y332015D02*
D03*
X332015Y322384D02*
D03*
X337616Y327985D02*
D03*
X327985Y337616D02*
D03*
X116986Y118174D02*
D03*
X98884Y110000D02*
D03*
X110000D02*
D03*
X114137Y110035D02*
D03*
X117615Y107985D02*
D03*
X121116Y105955D02*
D03*
X121116Y110000D02*
D03*
X121116Y114045D02*
D03*
X114349Y114349D02*
D03*
X110035Y114137D02*
D03*
X114045Y121116D02*
D03*
X110000Y121116D02*
D03*
X107985Y117616D02*
D03*
X105955Y121116D02*
D03*
X102384Y112015D02*
D03*
X105863Y109965D02*
D03*
X98884Y105955D02*
D03*
Y114045D02*
D03*
X101826Y103014D02*
D03*
X105651Y105651D02*
D03*
X105955Y98884D02*
D03*
X109965Y105863D02*
D03*
X112015Y102385D02*
D03*
X114045Y98884D02*
D03*
X110000Y98884D02*
D03*
X112015Y117616D02*
D03*
X102384Y107985D02*
D03*
X107985Y102385D02*
D03*
X117615Y112015D02*
D03*
D17*
X383000Y330000D02*
D03*
X57000D02*
D03*
Y550000D02*
D03*
X383000D02*
D03*
Y110000D02*
D03*
X57000D02*
D03*
D18*
X110000Y603000D02*
D03*
X330000D02*
D03*
Y57000D02*
D03*
X110000D02*
D03*
D32*
X306000Y550000D02*
G03*
X330000Y574000I0J24000D01*
G01*
X354000Y550000D02*
G03*
X330000Y526000I0J-24000D01*
G01*
Y133750D02*
G03*
X353784Y109751I24000J0D01*
G01*
X330000Y86000D02*
G03*
X306000Y110000I-24000J0D01*
G01*
X110000Y346500D02*
Y532500D01*
X83245Y550000D02*
X92250D01*
X110000Y576842D02*
Y603000D01*
X330000Y579250D02*
Y603000D01*
Y579143D02*
Y579250D01*
Y577750D02*
Y579143D01*
X357500Y550000D02*
X383000D01*
X357000Y330000D02*
X383000D01*
X275500Y550000D02*
X306000D01*
X275500Y550000D02*
Y550000D01*
X330000Y574000D02*
Y577750D01*
Y349750D02*
Y526000D01*
X354000Y550000D02*
X357500D01*
X353784Y109751D02*
X382995D01*
X330000Y133750D02*
Y310750D01*
Y84000D02*
Y86000D01*
Y63750D02*
Y84000D01*
X110000Y83000D02*
Y85500D01*
Y91750D01*
X57000Y550000D02*
X83245D01*
X348500Y330000D02*
X357000D01*
X127250Y330000D02*
X311000D01*
X110000Y57000D02*
Y83000D01*
X128500Y110000D02*
X306000D01*
X57000D02*
X91500D01*
X110000Y127750D02*
Y314000D01*
X60273Y330013D02*
X93035D01*
X110000Y567750D02*
Y576842D01*
X129250Y550000D02*
X275500D01*
D33*
X110000Y532500D02*
Y538884D01*
X92250Y550000D02*
X98884D01*
X121116Y330000D02*
X127250D01*
X110000Y561116D02*
Y567750D01*
X121116Y550000D02*
X129250D01*
X110000Y314000D02*
Y318884D01*
D34*
X30000Y630000D02*
D03*
X410000D02*
D03*
X30000Y30000D02*
D03*
D35*
X400000Y181200D02*
D03*
Y206600D02*
D03*
Y232000D02*
D03*
X44450Y400050D02*
D03*
Y425450D02*
D03*
Y450850D02*
D03*
X184200Y616000D02*
D03*
X209600D02*
D03*
X235000D02*
D03*
X258400Y43000D02*
D03*
X233000D02*
D03*
X207600D02*
D03*
D36*
X400000Y257400D02*
D03*
X44450Y476250D02*
D03*
D37*
X260400Y616000D02*
D03*
X182200Y43000D02*
D03*
D38*
X405000Y347000D02*
D03*
X413000Y313000D02*
D03*
Y347000D02*
D03*
X405500Y330000D02*
D03*
X405000Y313000D02*
D03*
X389000D02*
D03*
Y347000D02*
D03*
X35000Y313000D02*
D03*
X27000Y347000D02*
D03*
Y313000D02*
D03*
X34500Y330000D02*
D03*
X35000Y347000D02*
D03*
X51000D02*
D03*
Y313000D02*
D03*
X35000Y533000D02*
D03*
X27000Y567000D02*
D03*
Y533000D02*
D03*
X34500Y550000D02*
D03*
X35000Y567000D02*
D03*
X51000D02*
D03*
Y533000D02*
D03*
X93000Y625000D02*
D03*
X127000Y633000D02*
D03*
X93000D02*
D03*
X110000Y625500D02*
D03*
X127000Y625000D02*
D03*
Y609000D02*
D03*
X93000D02*
D03*
X313000Y625000D02*
D03*
X347000Y633000D02*
D03*
X313000D02*
D03*
X330000Y625500D02*
D03*
X347000Y625000D02*
D03*
Y609000D02*
D03*
X313000D02*
D03*
X405000Y567000D02*
D03*
X413000Y533000D02*
D03*
Y567000D02*
D03*
X405500Y550000D02*
D03*
X405000Y533000D02*
D03*
X389000D02*
D03*
Y567000D02*
D03*
X405000Y127000D02*
D03*
X413000Y93000D02*
D03*
Y127000D02*
D03*
X405500Y110000D02*
D03*
X405000Y93000D02*
D03*
X389000D02*
D03*
Y127000D02*
D03*
X347000Y35000D02*
D03*
X313000Y27000D02*
D03*
X347000D02*
D03*
X330000Y34500D02*
D03*
X313000Y35000D02*
D03*
Y51000D02*
D03*
X347000D02*
D03*
X127000Y35000D02*
D03*
X93000Y27000D02*
D03*
X127000D02*
D03*
X110000Y34500D02*
D03*
X93000Y35000D02*
D03*
Y51000D02*
D03*
X127000D02*
D03*
X35000Y93000D02*
D03*
X27000Y127000D02*
D03*
Y93000D02*
D03*
X34500Y110000D02*
D03*
X35000Y127000D02*
D03*
X51000D02*
D03*
Y93000D02*
D03*
D39*
X220000Y220000D02*
D03*
Y440000D02*
D03*
D40*
X227500Y565000D02*
D03*
X360404Y316404D02*
D03*
X82252Y346502D02*
D03*
X343000Y300224D02*
D03*
X295000Y345000D02*
D03*
X267950Y95000D02*
D03*
X253726D02*
D03*
X269224Y125000D02*
D03*
X255000D02*
D03*
X228888D02*
D03*
X243112D02*
D03*
X228888Y95000D02*
D03*
X243112D02*
D03*
X217500Y125000D02*
D03*
X205000D02*
D03*
X217500Y95000D02*
D03*
X180000Y125000D02*
D03*
X167500D02*
D03*
X97000Y519750D02*
D03*
X97280Y232716D02*
D03*
X97250Y203500D02*
D03*
X97500Y444250D02*
D03*
X349833Y130742D02*
D03*
X316929Y147611D02*
D03*
X342500Y135000D02*
D03*
X361500Y124000D02*
D03*
X328341Y111027D02*
D03*
X340000Y102500D02*
D03*
X320000Y122500D02*
D03*
X350000Y97500D02*
D03*
X317500Y135000D02*
D03*
X364000Y562750D02*
D03*
Y537750D02*
D03*
X378750Y532750D02*
D03*
Y567750D02*
D03*
X180000Y430000D02*
D03*
Y450000D02*
D03*
Y470000D02*
D03*
Y490000D02*
D03*
Y510000D02*
D03*
X280000Y410000D02*
D03*
Y430000D02*
D03*
Y450000D02*
D03*
Y510000D02*
D03*
Y490000D02*
D03*
Y470000D02*
D03*
X200000D02*
D03*
Y490000D02*
D03*
Y510000D02*
D03*
X220000D02*
D03*
Y490000D02*
D03*
Y470000D02*
D03*
X240000D02*
D03*
Y490000D02*
D03*
Y510000D02*
D03*
X260000D02*
D03*
Y490000D02*
D03*
Y470000D02*
D03*
Y450000D02*
D03*
Y430000D02*
D03*
Y410000D02*
D03*
X240000D02*
D03*
Y390000D02*
D03*
Y370000D02*
D03*
X140000D02*
D03*
Y390000D02*
D03*
X160000D02*
D03*
Y370000D02*
D03*
X180000D02*
D03*
Y390000D02*
D03*
Y410000D02*
D03*
X200000D02*
D03*
Y390000D02*
D03*
Y370000D02*
D03*
X220000D02*
D03*
Y390000D02*
D03*
Y410000D02*
D03*
X287500Y255000D02*
D03*
Y232500D02*
D03*
X265000Y255000D02*
D03*
Y232500D02*
D03*
X245000Y255000D02*
D03*
Y232500D02*
D03*
X287500Y210000D02*
D03*
X245000D02*
D03*
X265000D02*
D03*
X287500Y162500D02*
D03*
Y187500D02*
D03*
X265000D02*
D03*
Y162500D02*
D03*
X245000Y187500D02*
D03*
Y162500D02*
D03*
X222500Y187500D02*
D03*
X200000D02*
D03*
X222500Y162500D02*
D03*
X200000D02*
D03*
X180000D02*
D03*
Y187500D02*
D03*
Y210000D02*
D03*
Y232500D02*
D03*
Y255000D02*
D03*
X200000D02*
D03*
X220000D02*
D03*
X314750Y356500D02*
D03*
X311750Y315000D02*
D03*
X317250Y300000D02*
D03*
X295000Y315000D02*
D03*
X68250Y313000D02*
D03*
X146622Y316936D02*
D03*
X123500Y295836D02*
D03*
X97500Y370000D02*
D03*
X157507Y315321D02*
D03*
X122500Y357500D02*
D03*
X97292Y384684D02*
D03*
X132500Y345000D02*
D03*
X68000Y347250D02*
D03*
X83000Y312750D02*
D03*
X373443Y313127D02*
D03*
X358000Y348000D02*
D03*
X342500Y271776D02*
D03*
X317500Y271526D02*
D03*
Y285750D02*
D03*
X342750Y286000D02*
D03*
X97500Y249166D02*
D03*
X123000D02*
D03*
X123500Y263390D02*
D03*
X97500D02*
D03*
X123619Y280138D02*
D03*
X97500D02*
D03*
Y295836D02*
D03*
X92500Y65500D02*
D03*
X127500D02*
D03*
X156000Y564750D02*
D03*
X82146Y534554D02*
D03*
X97250Y428000D02*
D03*
X122000Y428062D02*
D03*
X97500Y469500D02*
D03*
Y456750D02*
D03*
X156000Y535000D02*
D03*
X138000D02*
D03*
X93280Y125971D02*
D03*
X94280Y141971D02*
D03*
Y154971D02*
D03*
X94000Y168000D02*
D03*
Y180000D02*
D03*
X97280Y218112D02*
D03*
X124250Y215000D02*
D03*
X95922Y79078D02*
D03*
X123000Y231000D02*
D03*
X347568Y68627D02*
D03*
X312568Y67627D02*
D03*
X374443Y348127D02*
D03*
X345568Y356627D02*
D03*
X347500Y592500D02*
D03*
X312500D02*
D03*
X72500Y125000D02*
D03*
Y95000D02*
D03*
X125000Y80000D02*
D03*
X128742Y94811D02*
D03*
X97500Y307250D02*
D03*
X122500Y205000D02*
D03*
Y192500D02*
D03*
Y180000D02*
D03*
Y167500D02*
D03*
Y155000D02*
D03*
Y142500D02*
D03*
X142500Y125000D02*
D03*
X129792Y587184D02*
D03*
X122500Y575000D02*
D03*
X92292Y587184D02*
D03*
X95189Y574882D02*
D03*
X87292Y564684D02*
D03*
X74792D02*
D03*
X72292Y534684D02*
D03*
X97500Y482000D02*
D03*
X97292Y507184D02*
D03*
Y494684D02*
D03*
X122292Y534684D02*
D03*
X122500Y520000D02*
D03*
X122292Y507184D02*
D03*
X122500Y495000D02*
D03*
Y482500D02*
D03*
Y470000D02*
D03*
X122292Y457184D02*
D03*
X123654Y445683D02*
D03*
X97292Y409684D02*
D03*
Y397184D02*
D03*
X122292Y409684D02*
D03*
Y397184D02*
D03*
Y384684D02*
D03*
X122500Y370000D02*
D03*
X312500Y575000D02*
D03*
X345000Y577500D02*
D03*
X355000Y567500D02*
D03*
X340000Y562500D02*
D03*
X330000Y550000D02*
D03*
X317500Y537500D02*
D03*
X302500Y535000D02*
D03*
Y565000D02*
D03*
X290000Y535000D02*
D03*
Y565000D02*
D03*
X277500Y535000D02*
D03*
Y565000D02*
D03*
X215000D02*
D03*
X240000D02*
D03*
X252500D02*
D03*
X265000D02*
D03*
Y535000D02*
D03*
X252500D02*
D03*
X240000D02*
D03*
X227500D02*
D03*
X215000D02*
D03*
X177500Y565000D02*
D03*
X190000D02*
D03*
X202500D02*
D03*
Y535000D02*
D03*
X190000D02*
D03*
X177500D02*
D03*
X345000Y370000D02*
D03*
X315000D02*
D03*
X345000Y382500D02*
D03*
X315000D02*
D03*
X345000Y395000D02*
D03*
X315000D02*
D03*
X345000Y407500D02*
D03*
X315000D02*
D03*
Y520000D02*
D03*
Y507500D02*
D03*
Y495000D02*
D03*
Y482500D02*
D03*
Y470000D02*
D03*
Y457500D02*
D03*
Y445000D02*
D03*
Y432500D02*
D03*
Y420000D02*
D03*
X345000D02*
D03*
Y432500D02*
D03*
Y445000D02*
D03*
Y457500D02*
D03*
Y470000D02*
D03*
Y482500D02*
D03*
Y495000D02*
D03*
Y507500D02*
D03*
Y520000D02*
D03*
X317500Y260000D02*
D03*
Y247500D02*
D03*
Y235000D02*
D03*
Y222500D02*
D03*
Y210000D02*
D03*
Y197500D02*
D03*
Y185000D02*
D03*
Y172500D02*
D03*
Y160000D02*
D03*
X342500D02*
D03*
Y172500D02*
D03*
Y185000D02*
D03*
Y197500D02*
D03*
Y210000D02*
D03*
Y222500D02*
D03*
Y235000D02*
D03*
Y247500D02*
D03*
Y260000D02*
D03*
X232500Y345000D02*
D03*
X282884Y315201D02*
D03*
X270000Y315000D02*
D03*
X257500D02*
D03*
X282507Y345321D02*
D03*
X195000Y315000D02*
D03*
X207500D02*
D03*
X220000D02*
D03*
X232500D02*
D03*
X245000D02*
D03*
X270007Y345321D02*
D03*
X257507D02*
D03*
X245007D02*
D03*
X220007D02*
D03*
X207507D02*
D03*
X195007D02*
D03*
X182507D02*
D03*
X170007D02*
D03*
X157507D02*
D03*
X145007D02*
D03*
X170007Y315321D02*
D03*
X182500Y315000D02*
D03*
X342500Y147500D02*
D03*
X374750Y127500D02*
D03*
Y92500D02*
D03*
X345000Y82500D02*
D03*
X315000D02*
D03*
X307500Y95000D02*
D03*
X292500D02*
D03*
X280000D02*
D03*
X205000D02*
D03*
X192500D02*
D03*
X180000D02*
D03*
X167500D02*
D03*
X155000D02*
D03*
X142500D02*
D03*
X155000Y125000D02*
D03*
X192500D02*
D03*
X280000D02*
D03*
X292500D02*
D03*
X307500D02*
D03*
X360000Y97500D02*
D03*
D41*
X144000Y304000D02*
D03*
X136000Y297000D02*
D03*
X300000Y363537D02*
D03*
X293000Y356000D02*
D03*
X63000Y504000D02*
D03*
X71000Y498000D02*
D03*
X79188Y66812D02*
D03*
X145000Y140000D02*
D03*
X152500Y152500D02*
D03*
X58000Y69000D02*
D03*
M02*
