G04*
G04 #@! TF.GenerationSoftware,Altium Limited,Altium Designer,24.0.1 (36)*
G04*
G04 Layer_Color=8388736*
%FSLAX44Y44*%
%MOMM*%
G71*
G04*
G04 #@! TF.SameCoordinates,8E3682EF-1996-423B-9767-EFD2347B91C7*
G04*
G04*
G04 #@! TF.FilePolarity,Negative*
G04*
G01*
G75*
%ADD19R,22.0000X17.7750*%
%ADD20R,0.4532X0.5032*%
%ADD21R,0.5032X0.4532*%
%ADD22C,0.2000*%
%ADD23R,1.3532X0.6032*%
%ADD24R,0.6032X1.3532*%
%ADD25C,3.8100*%
%ADD26C,1.5732*%
%ADD27R,1.5732X1.5732*%
%ADD28R,1.5732X1.5732*%
%ADD29C,1.7272*%
%ADD30C,0.9652*%
%ADD31C,0.8382*%
G36*
X350750Y644000D02*
X342500D01*
Y630000D01*
X317500D01*
Y644000D01*
X309250D01*
Y650000D01*
X350750D01*
Y644000D01*
D02*
G37*
G36*
X130750D02*
X122500D01*
Y630000D01*
X97500D01*
Y644000D01*
X89250D01*
Y650000D01*
X130750D01*
Y644000D01*
D02*
G37*
G36*
X350750Y614000D02*
X340750D01*
Y617000D01*
X319250D01*
Y614000D01*
X309250D01*
Y621000D01*
X350750D01*
Y614000D01*
D02*
G37*
G36*
X130750D02*
X120750D01*
Y617000D01*
X99250D01*
Y614000D01*
X89250D01*
Y621000D01*
X130750D01*
Y614000D01*
D02*
G37*
G36*
X340035Y612500D02*
X355250D01*
Y575000D01*
X392250D01*
Y554000D01*
X375000D01*
Y546000D01*
X392250D01*
Y540001D01*
X392268Y539983D01*
X392250Y539965D01*
Y524750D01*
X353250D01*
X353000Y525000D01*
X349250D01*
Y529250D01*
X135000D01*
Y357000D01*
X310000D01*
Y356000D01*
X330000D01*
Y355619D01*
X357758D01*
Y355000D01*
X392500D01*
Y334000D01*
X375250D01*
Y326000D01*
X392500D01*
Y320001D01*
X392518Y319983D01*
X392500Y319965D01*
Y304750D01*
X356889D01*
X355758Y303619D01*
X355000D01*
Y257250D01*
X354900D01*
Y135000D01*
X392375D01*
Y114000D01*
X375125D01*
Y106000D01*
X392375D01*
Y100001D01*
X392393Y99983D01*
X392375Y99965D01*
Y84750D01*
X355000D01*
Y47500D01*
X334000D01*
Y64750D01*
X326000D01*
Y47500D01*
X320001D01*
X319983Y47482D01*
X319965Y47500D01*
X304750D01*
Y85000D01*
X135000D01*
Y47500D01*
X114000D01*
Y64750D01*
X106000D01*
Y47500D01*
X100001D01*
X99983Y47482D01*
X99965Y47500D01*
X84750D01*
Y85000D01*
X47750D01*
Y106000D01*
X65000D01*
Y114000D01*
X47750D01*
Y119999D01*
X47732Y120017D01*
X47750Y120035D01*
Y135250D01*
X85000D01*
Y305000D01*
X47750D01*
Y326000D01*
X65000D01*
Y334000D01*
X47750D01*
Y339999D01*
X47732Y340017D01*
X47750Y340035D01*
Y355250D01*
X85000D01*
Y525000D01*
X47500D01*
Y546000D01*
X64750D01*
Y554000D01*
X47500D01*
Y559999D01*
X47482Y560017D01*
X47500Y560035D01*
Y575250D01*
X85000D01*
Y612250D01*
X106000D01*
Y595000D01*
X114000D01*
Y612250D01*
X119999D01*
X120017Y612268D01*
X120035Y612250D01*
X135250D01*
Y577500D01*
X305000D01*
Y612500D01*
X326000D01*
Y595250D01*
X334000D01*
Y612500D01*
X339999D01*
X340017Y612518D01*
X340035Y612500D01*
D02*
G37*
G36*
X430000Y529250D02*
X424000D01*
Y537500D01*
X410000D01*
Y562500D01*
X424000D01*
Y570750D01*
X430000D01*
Y529250D01*
D02*
G37*
G36*
X401000D02*
X394000D01*
Y539250D01*
X397000D01*
Y560750D01*
X394000D01*
Y570750D01*
X401000D01*
Y529250D01*
D02*
G37*
G36*
X46000Y560750D02*
X43000D01*
Y539250D01*
X46000D01*
Y529250D01*
X39000D01*
Y570750D01*
X46000D01*
Y560750D01*
D02*
G37*
G36*
X16000Y562500D02*
X30000D01*
Y537500D01*
X16000D01*
Y529250D01*
X10000D01*
Y570750D01*
X16000D01*
Y562500D01*
D02*
G37*
G36*
X430000Y309250D02*
X424000D01*
Y317500D01*
X410000D01*
Y342500D01*
X424000D01*
Y350750D01*
X430000D01*
Y309250D01*
D02*
G37*
G36*
X401000D02*
X394000D01*
Y319250D01*
X397000D01*
Y340750D01*
X394000D01*
Y350750D01*
X401000D01*
Y309250D01*
D02*
G37*
G36*
X46000Y340750D02*
X43000D01*
Y319250D01*
X46000D01*
Y309250D01*
X39000D01*
Y350750D01*
X46000D01*
Y340750D01*
D02*
G37*
G36*
X16000Y342500D02*
X30000D01*
Y317500D01*
X16000D01*
Y309250D01*
X10000D01*
Y350750D01*
X16000D01*
Y342500D01*
D02*
G37*
G36*
X430000Y89250D02*
X424000D01*
Y97500D01*
X410000D01*
Y122500D01*
X424000D01*
Y130750D01*
X430000D01*
Y89250D01*
D02*
G37*
G36*
X401000D02*
X394000D01*
Y99250D01*
X397000D01*
Y120750D01*
X394000D01*
Y130750D01*
X401000D01*
Y89250D01*
D02*
G37*
G36*
X46000Y120750D02*
X43000D01*
Y99250D01*
X46000D01*
Y89250D01*
X39000D01*
Y130750D01*
X46000D01*
Y120750D01*
D02*
G37*
G36*
X16000Y122500D02*
X30000D01*
Y97500D01*
X16000D01*
Y89250D01*
X10000D01*
Y130750D01*
X16000D01*
Y122500D01*
D02*
G37*
G36*
X350750Y39000D02*
X309250D01*
Y46000D01*
X319250D01*
Y43000D01*
X340750D01*
Y46000D01*
X350750D01*
Y39000D01*
D02*
G37*
G36*
X130750D02*
X89250D01*
Y46000D01*
X99250D01*
Y43000D01*
X120750D01*
Y46000D01*
X130750D01*
Y39000D01*
D02*
G37*
G36*
X342500Y16000D02*
X350750D01*
Y10000D01*
X309250D01*
Y16000D01*
X317500D01*
Y30000D01*
X342500D01*
Y16000D01*
D02*
G37*
G36*
X122500D02*
X130750D01*
Y10000D01*
X89250D01*
Y16000D01*
X97500D01*
Y30000D01*
X122500D01*
Y16000D01*
D02*
G37*
%LPC*%
G36*
X335280Y581660D02*
X318770D01*
Y577500D01*
D01*
Y572770D01*
X335280D01*
Y574020D01*
Y581660D01*
D02*
G37*
G36*
X114232Y581409D02*
X100262D01*
Y572520D01*
D01*
D01*
Y572519D01*
X111110D01*
X111118Y572500D01*
X114232D01*
X114232Y572519D01*
X114232D01*
Y581409D01*
D02*
G37*
G36*
X362279Y559811D02*
X353578D01*
Y545841D01*
X362279D01*
Y559811D01*
D02*
G37*
G36*
X87456Y554485D02*
X78566D01*
Y539245D01*
X87456D01*
Y554485D01*
D02*
G37*
G36*
X90250Y571250D02*
X90250D01*
Y548841D01*
X91423Y549327D01*
X109750Y531000D01*
X128077Y549327D01*
X129250Y548841D01*
X129250Y530000D01*
X129250D01*
Y550500D01*
X110000Y569750D01*
X91423Y551173D01*
X90250Y551659D01*
X90250Y571250D01*
D02*
G37*
G36*
X120650Y444500D02*
X106000D01*
Y435610D01*
X120650D01*
Y444500D01*
D02*
G37*
G36*
X111000Y350000D02*
X110401D01*
X110577Y349577D01*
X111000Y350000D01*
D02*
G37*
G36*
X224000Y340000D02*
X216000D01*
Y326000D01*
X224000D01*
Y340000D01*
D02*
G37*
G36*
X361586Y341137D02*
X352696D01*
Y325377D01*
X361586D01*
Y341137D01*
D02*
G37*
G36*
X90500Y350000D02*
X90500D01*
Y328341D01*
X91673Y328827D01*
X110000Y310500D01*
X129500Y330000D01*
X110250Y349250D01*
X91673Y330673D01*
X90500Y331159D01*
X90500Y350000D01*
D02*
G37*
G36*
X329758Y349758D02*
X310000Y330000D01*
X330000Y310000D01*
Y309861D01*
X349758Y329619D01*
X329758Y349619D01*
Y349758D01*
D02*
G37*
G36*
X120650Y224790D02*
X105410D01*
Y214630D01*
X120650D01*
Y224790D01*
D02*
G37*
G36*
X110750Y130000D02*
X110505D01*
X110577Y129827D01*
X110750Y130000D01*
D02*
G37*
G36*
X361950Y119380D02*
X354000D01*
Y105410D01*
X361950D01*
Y119380D01*
D02*
G37*
G36*
X87630Y114300D02*
X78740D01*
Y99060D01*
X87630D01*
Y114300D01*
D02*
G37*
G36*
X90500Y130000D02*
X90500D01*
Y108591D01*
X91673Y109077D01*
X110000Y90750D01*
X128327Y109077D01*
X129500Y108591D01*
X129500Y89000D01*
X129500D01*
Y110250D01*
X110250Y129500D01*
X91673Y110923D01*
X90500Y111409D01*
X90500Y130000D01*
D02*
G37*
G36*
X90500Y89000D02*
Y89000D01*
X109909D01*
D01*
X90500Y89000D01*
D02*
G37*
G36*
X325706Y87250D02*
X326390Y87250D01*
X326390Y85980D01*
Y78740D01*
X340360D01*
X340360Y87250D01*
X340908Y87250D01*
X325706Y87250D01*
D02*
G37*
G36*
X120650Y87630D02*
X105410D01*
Y78740D01*
X120650D01*
Y87630D01*
D02*
G37*
%LPD*%
D19*
X245000Y443625D02*
D03*
D20*
X103922Y576990D02*
D03*
X109922D02*
D03*
X329732Y577118D02*
D03*
X323732D02*
D03*
X116207Y440000D02*
D03*
X110207D02*
D03*
X110300Y220000D02*
D03*
X116300D02*
D03*
X330250Y82750D02*
D03*
X336250D02*
D03*
X116300Y83000D02*
D03*
X110300D02*
D03*
D21*
X83179Y543900D02*
D03*
Y549900D02*
D03*
X220000Y336200D02*
D03*
Y330200D02*
D03*
X357990Y556123D02*
D03*
Y550123D02*
D03*
X357000Y330250D02*
D03*
Y336250D02*
D03*
X358000Y110000D02*
D03*
Y116000D02*
D03*
X83000Y103750D02*
D03*
Y109750D02*
D03*
D22*
X110000Y538884D02*
D03*
Y341116D02*
D03*
X101826Y336986D02*
D03*
X110000Y318884D02*
D03*
Y330000D02*
D03*
X109965Y334137D02*
D03*
X112015Y337616D02*
D03*
X114045Y341116D02*
D03*
X105955D02*
D03*
X105651Y334349D02*
D03*
X105863Y330035D02*
D03*
X98884Y334045D02*
D03*
X98884Y330000D02*
D03*
X102385Y327985D02*
D03*
X98884Y325955D02*
D03*
X107985Y322384D02*
D03*
X110035Y325863D02*
D03*
X114045Y318884D02*
D03*
X105955D02*
D03*
X116986Y321826D02*
D03*
X114349Y325651D02*
D03*
X121116Y325955D02*
D03*
X114137Y329965D02*
D03*
X117616Y332015D02*
D03*
X121116Y334045D02*
D03*
X121116Y330000D02*
D03*
X102385Y332015D02*
D03*
X112015Y322384D02*
D03*
X117616Y327985D02*
D03*
X107985Y337616D02*
D03*
X102385Y547985D02*
D03*
X112015Y557616D02*
D03*
X117616Y552015D02*
D03*
X107985Y542384D02*
D03*
X110000Y561116D02*
D03*
X105955Y561116D02*
D03*
X107985Y557616D02*
D03*
X110035Y554137D02*
D03*
X114045Y561116D02*
D03*
X114349Y554349D02*
D03*
X118174Y556986D02*
D03*
X121116Y545955D02*
D03*
Y554045D02*
D03*
X114137Y550035D02*
D03*
X117616Y547985D02*
D03*
X114045Y538884D02*
D03*
X112015Y542384D02*
D03*
X105955Y538884D02*
D03*
X109965Y545863D02*
D03*
X105651Y545651D02*
D03*
X98884Y545955D02*
D03*
X98884Y550000D02*
D03*
X98884Y554045D02*
D03*
X102385Y552015D02*
D03*
X105863Y549965D02*
D03*
X110000Y550000D02*
D03*
X121116D02*
D03*
X103014Y541826D02*
D03*
X321826Y336986D02*
D03*
X330000Y318884D02*
D03*
Y330000D02*
D03*
X329965Y334137D02*
D03*
X332015Y337616D02*
D03*
X334045Y341116D02*
D03*
X330000Y341116D02*
D03*
X325955Y341116D02*
D03*
X325651Y334349D02*
D03*
X325863Y330035D02*
D03*
X318884Y334045D02*
D03*
X318884Y330000D02*
D03*
X322384Y327985D02*
D03*
X318884Y325955D02*
D03*
X327985Y322384D02*
D03*
X330035Y325863D02*
D03*
X334045Y318884D02*
D03*
X325955D02*
D03*
X336986Y321826D02*
D03*
X334349Y325651D02*
D03*
X341116Y325955D02*
D03*
X334137Y329965D02*
D03*
X337616Y332015D02*
D03*
X341116Y334045D02*
D03*
X341116Y330000D02*
D03*
X322384Y332015D02*
D03*
X332015Y322384D02*
D03*
X337616Y327985D02*
D03*
X327985Y337616D02*
D03*
X116986Y118174D02*
D03*
X98884Y110000D02*
D03*
X110000D02*
D03*
X114137Y110035D02*
D03*
X117615Y107985D02*
D03*
X121116Y105955D02*
D03*
X121116Y110000D02*
D03*
X121116Y114045D02*
D03*
X114349Y114349D02*
D03*
X110035Y114137D02*
D03*
X114045Y121116D02*
D03*
X110000Y121116D02*
D03*
X107985Y117616D02*
D03*
X105955Y121116D02*
D03*
X102384Y112015D02*
D03*
X105863Y109965D02*
D03*
X98884Y105955D02*
D03*
Y114045D02*
D03*
X101826Y103014D02*
D03*
X105651Y105651D02*
D03*
X105955Y98884D02*
D03*
X109965Y105863D02*
D03*
X112015Y102385D02*
D03*
X114045Y98884D02*
D03*
X110000Y98884D02*
D03*
X112015Y117616D02*
D03*
X102384Y107985D02*
D03*
X107985Y102385D02*
D03*
X117615Y112015D02*
D03*
D23*
X383000Y330000D02*
D03*
X57000D02*
D03*
Y550000D02*
D03*
X383000D02*
D03*
Y110000D02*
D03*
X57000D02*
D03*
D24*
X110000Y603000D02*
D03*
X330000D02*
D03*
Y57000D02*
D03*
X110000D02*
D03*
D25*
X30000Y630000D02*
D03*
X410000D02*
D03*
X30000Y30000D02*
D03*
D26*
X400000Y181200D02*
D03*
Y206600D02*
D03*
Y232000D02*
D03*
X44450Y400050D02*
D03*
Y425450D02*
D03*
Y450850D02*
D03*
X184200Y616000D02*
D03*
X209600D02*
D03*
X235000D02*
D03*
X258400Y43000D02*
D03*
X233000D02*
D03*
X207600D02*
D03*
D27*
X400000Y257400D02*
D03*
X44450Y476250D02*
D03*
D28*
X260400Y616000D02*
D03*
X182200Y43000D02*
D03*
D29*
X220000Y220000D02*
D03*
Y440000D02*
D03*
D30*
X227500Y565000D02*
D03*
X360404Y316404D02*
D03*
X82252Y346502D02*
D03*
X343000Y300224D02*
D03*
X295000Y345000D02*
D03*
X267950Y95000D02*
D03*
X253726D02*
D03*
X269224Y125000D02*
D03*
X255000D02*
D03*
X228888D02*
D03*
X243112D02*
D03*
X228888Y95000D02*
D03*
X243112D02*
D03*
X217500Y125000D02*
D03*
X205000D02*
D03*
X217500Y95000D02*
D03*
X180000Y125000D02*
D03*
X167500D02*
D03*
X97000Y519750D02*
D03*
X97280Y232716D02*
D03*
X97250Y203500D02*
D03*
X97500Y444250D02*
D03*
X349833Y130742D02*
D03*
X316929Y147611D02*
D03*
X342500Y135000D02*
D03*
X361500Y124000D02*
D03*
X328341Y111027D02*
D03*
X340000Y102500D02*
D03*
X320000Y122500D02*
D03*
X350000Y97500D02*
D03*
X317500Y135000D02*
D03*
X364000Y562750D02*
D03*
Y537750D02*
D03*
X378750Y532750D02*
D03*
Y567750D02*
D03*
X180000Y430000D02*
D03*
Y450000D02*
D03*
Y470000D02*
D03*
Y490000D02*
D03*
Y510000D02*
D03*
X280000Y410000D02*
D03*
Y430000D02*
D03*
Y450000D02*
D03*
Y510000D02*
D03*
Y490000D02*
D03*
Y470000D02*
D03*
X200000D02*
D03*
Y490000D02*
D03*
Y510000D02*
D03*
X220000D02*
D03*
Y490000D02*
D03*
Y470000D02*
D03*
X240000D02*
D03*
Y490000D02*
D03*
Y510000D02*
D03*
X260000D02*
D03*
Y490000D02*
D03*
Y470000D02*
D03*
Y450000D02*
D03*
Y430000D02*
D03*
Y410000D02*
D03*
X240000D02*
D03*
Y390000D02*
D03*
Y370000D02*
D03*
X140000D02*
D03*
Y390000D02*
D03*
X160000D02*
D03*
Y370000D02*
D03*
X180000D02*
D03*
Y390000D02*
D03*
Y410000D02*
D03*
X200000D02*
D03*
Y390000D02*
D03*
Y370000D02*
D03*
X220000D02*
D03*
Y390000D02*
D03*
Y410000D02*
D03*
X287500Y255000D02*
D03*
Y232500D02*
D03*
X265000Y255000D02*
D03*
Y232500D02*
D03*
X245000Y255000D02*
D03*
Y232500D02*
D03*
X287500Y210000D02*
D03*
X245000D02*
D03*
X265000D02*
D03*
X287500Y162500D02*
D03*
Y187500D02*
D03*
X265000D02*
D03*
Y162500D02*
D03*
X245000Y187500D02*
D03*
Y162500D02*
D03*
X222500Y187500D02*
D03*
X200000D02*
D03*
X222500Y162500D02*
D03*
X200000D02*
D03*
X180000D02*
D03*
Y187500D02*
D03*
Y210000D02*
D03*
Y232500D02*
D03*
Y255000D02*
D03*
X200000D02*
D03*
X220000D02*
D03*
X314750Y356500D02*
D03*
X311750Y315000D02*
D03*
X317250Y300000D02*
D03*
X295000Y315000D02*
D03*
X68250Y313000D02*
D03*
X146622Y316936D02*
D03*
X123500Y295836D02*
D03*
X97500Y370000D02*
D03*
X157507Y315321D02*
D03*
X122500Y357500D02*
D03*
X97292Y384684D02*
D03*
X132500Y345000D02*
D03*
X68000Y347250D02*
D03*
X83000Y312750D02*
D03*
X373443Y313127D02*
D03*
X358000Y348000D02*
D03*
X342500Y271776D02*
D03*
X317500Y271526D02*
D03*
Y285750D02*
D03*
X342750Y286000D02*
D03*
X97500Y249166D02*
D03*
X123000D02*
D03*
X123500Y263390D02*
D03*
X97500D02*
D03*
X123619Y280138D02*
D03*
X97500D02*
D03*
Y295836D02*
D03*
X92500Y65500D02*
D03*
X127500D02*
D03*
X156000Y564750D02*
D03*
X82146Y534554D02*
D03*
X97250Y428000D02*
D03*
X122000Y428062D02*
D03*
X97500Y469500D02*
D03*
Y456750D02*
D03*
X156000Y535000D02*
D03*
X138000D02*
D03*
X93280Y125971D02*
D03*
X94280Y141971D02*
D03*
Y154971D02*
D03*
X94000Y168000D02*
D03*
Y180000D02*
D03*
X97280Y218112D02*
D03*
X124250Y215000D02*
D03*
X95922Y79078D02*
D03*
X123000Y231000D02*
D03*
X347568Y68627D02*
D03*
X312568Y67627D02*
D03*
X374443Y348127D02*
D03*
X345568Y356627D02*
D03*
X347500Y592500D02*
D03*
X312500D02*
D03*
X72500Y125000D02*
D03*
Y95000D02*
D03*
X125000Y80000D02*
D03*
X128742Y94811D02*
D03*
X97500Y307250D02*
D03*
X122500Y205000D02*
D03*
Y192500D02*
D03*
Y180000D02*
D03*
Y167500D02*
D03*
Y155000D02*
D03*
Y142500D02*
D03*
X142500Y125000D02*
D03*
X129792Y587184D02*
D03*
X122500Y575000D02*
D03*
X92292Y587184D02*
D03*
X95189Y574882D02*
D03*
X87292Y564684D02*
D03*
X74792D02*
D03*
X72292Y534684D02*
D03*
X97500Y482000D02*
D03*
X97292Y507184D02*
D03*
Y494684D02*
D03*
X122292Y534684D02*
D03*
X122500Y520000D02*
D03*
X122292Y507184D02*
D03*
X122500Y495000D02*
D03*
Y482500D02*
D03*
Y470000D02*
D03*
X122292Y457184D02*
D03*
X123654Y445683D02*
D03*
X97292Y409684D02*
D03*
Y397184D02*
D03*
X122292Y409684D02*
D03*
Y397184D02*
D03*
Y384684D02*
D03*
X122500Y370000D02*
D03*
X312500Y575000D02*
D03*
X345000Y577500D02*
D03*
X355000Y567500D02*
D03*
X340000Y562500D02*
D03*
X330000Y550000D02*
D03*
X317500Y537500D02*
D03*
X302500Y535000D02*
D03*
Y565000D02*
D03*
X290000Y535000D02*
D03*
Y565000D02*
D03*
X277500Y535000D02*
D03*
Y565000D02*
D03*
X215000D02*
D03*
X240000D02*
D03*
X252500D02*
D03*
X265000D02*
D03*
Y535000D02*
D03*
X252500D02*
D03*
X240000D02*
D03*
X227500D02*
D03*
X215000D02*
D03*
X177500Y565000D02*
D03*
X190000D02*
D03*
X202500D02*
D03*
Y535000D02*
D03*
X190000D02*
D03*
X177500D02*
D03*
X345000Y370000D02*
D03*
X315000D02*
D03*
X345000Y382500D02*
D03*
X315000D02*
D03*
X345000Y395000D02*
D03*
X315000D02*
D03*
X345000Y407500D02*
D03*
X315000D02*
D03*
Y520000D02*
D03*
Y507500D02*
D03*
Y495000D02*
D03*
Y482500D02*
D03*
Y470000D02*
D03*
Y457500D02*
D03*
Y445000D02*
D03*
Y432500D02*
D03*
Y420000D02*
D03*
X345000D02*
D03*
Y432500D02*
D03*
Y445000D02*
D03*
Y457500D02*
D03*
Y470000D02*
D03*
Y482500D02*
D03*
Y495000D02*
D03*
Y507500D02*
D03*
Y520000D02*
D03*
X317500Y260000D02*
D03*
Y247500D02*
D03*
Y235000D02*
D03*
Y222500D02*
D03*
Y210000D02*
D03*
Y197500D02*
D03*
Y185000D02*
D03*
Y172500D02*
D03*
Y160000D02*
D03*
X342500D02*
D03*
Y172500D02*
D03*
Y185000D02*
D03*
Y197500D02*
D03*
Y210000D02*
D03*
Y222500D02*
D03*
Y235000D02*
D03*
Y247500D02*
D03*
Y260000D02*
D03*
X232500Y345000D02*
D03*
X282884Y315201D02*
D03*
X270000Y315000D02*
D03*
X257500D02*
D03*
X282507Y345321D02*
D03*
X195000Y315000D02*
D03*
X207500D02*
D03*
X220000D02*
D03*
X232500D02*
D03*
X245000D02*
D03*
X270007Y345321D02*
D03*
X257507D02*
D03*
X245007D02*
D03*
X220007D02*
D03*
X207507D02*
D03*
X195007D02*
D03*
X182507D02*
D03*
X170007D02*
D03*
X157507D02*
D03*
X145007D02*
D03*
X170007Y315321D02*
D03*
X182500Y315000D02*
D03*
X342500Y147500D02*
D03*
X374750Y127500D02*
D03*
Y92500D02*
D03*
X345000Y82500D02*
D03*
X315000D02*
D03*
X307500Y95000D02*
D03*
X292500D02*
D03*
X280000D02*
D03*
X205000D02*
D03*
X192500D02*
D03*
X180000D02*
D03*
X167500D02*
D03*
X155000D02*
D03*
X142500D02*
D03*
X155000Y125000D02*
D03*
X192500D02*
D03*
X280000D02*
D03*
X292500D02*
D03*
X307500D02*
D03*
X360000Y97500D02*
D03*
D31*
X144000Y304000D02*
D03*
X136000Y297000D02*
D03*
X300000Y363537D02*
D03*
X293000Y356000D02*
D03*
X63000Y504000D02*
D03*
X71000Y498000D02*
D03*
X79188Y66812D02*
D03*
X145000Y140000D02*
D03*
X152500Y152500D02*
D03*
X58000Y69000D02*
D03*
M02*
