M48
;Layer_Color=9474304
;FILE_FORMAT=4:4
METRIC,LZ
;TYPE=PLATED
T01F00S00C0.3810
T02F00S00C0.4000
T03F00S00C1.0200
T04F00S00C3.0000
%
T01
X00058Y00069
X00079188Y00066812
X000925Y000655
X00095922Y00079078
X00125Y0008
X001275Y000655
X00312568Y00067627
X00315Y000825
X00345
X00347568Y00068627
X0035Y000975
X0036
X0037475Y000925
Y001275
X003615Y00124
X00349833Y00130742
X003425Y00135
Y001475
Y0016
Y001725
Y00185
Y001975
Y0021
Y002225
Y00235
Y002475
Y0026
Y00271776
X0034275Y00286
X00343Y00300224
X0031725Y003
X003175Y0028575
Y00271526
Y0026
Y002475
Y00235
Y002225
Y0021
Y001975
Y00185
Y001725
Y0016
X00316929Y00147611
X003175Y00135
X0032Y001225
X003075Y00125
X002925
X0028
X00269224
X00255
X00243112
X00228888
X002175
X00205
X001925
X0018
X001675
X00155
X001425
X00145Y0014
X001525Y001525
X001225Y00155
Y001675
Y0018
Y001925
Y00205
X0012425Y00215
X00123Y00231
Y00249166
X001235Y0026339
X00123619Y00280138
X001235Y00295836
X00136Y00297
X00144Y00304
X00146622Y00316936
X00157507Y00315321
X00170007
X001825Y00315
X00195
X002075
X0022
X002325
X00245
X002575
X0027
X00282884Y00315201
X00295Y00315
X0031175
X0031475Y003565
X00315Y0037
Y003825
Y00395
Y004075
Y0042
Y004325
Y00445
Y004575
Y0047
Y004825
X00345
Y0047
Y004575
Y00445
Y004325
Y0042
Y004075
Y00395
Y003825
Y0037
X00345568Y00356627
X00358Y00348
X00374443Y00348127
X00373443Y00313127
X00360404Y00316404
X00295Y00345
X00282507Y00345321
X00270007
X00257507
X00245007
X002325Y00345
X00220007Y00345321
X00207507
X00195007
X00182507
X00170007
X00157507
X00145007
X001325Y00345
X001225Y003575
Y0037
X00122292Y00384684
Y00397184
Y00409684
X00122Y00428062
X00123654Y00445683
X00122292Y00457184
X001225Y0047
Y004825
X000975Y00482
Y004695
Y0045675
Y0044425
X0009725Y00428
X00097292Y00409684
Y00397184
Y00384684
X000975Y0037
X00082252Y00346502
X00068Y0034725
X0006825Y00313
X00083Y0031275
X000975Y0030725
Y00295836
Y00280138
Y0026339
Y00249166
X0009728Y00232716
Y00218112
X0009725Y002035
X00094Y0018
Y00168
X0009428Y00154971
Y00141971
X0009328Y00125971
X000725Y00125
Y00095
X00128742Y00094811
X001425Y00095
X00155
X001675
X0018
X001925
X00205
X002175
X00228888
X00243112
X00253726
X0026795
X0028
X002925
X003075
X00328341Y00111027
X0034Y001025
X002875Y001625
X00265
X00245
X002225
X002
X0018
Y001875
X002
X002225
X00245
X00265
Y0021
X00245
Y002325
X00265
X002875
Y0021
Y001875
Y00255
X00265
X00245
X0022
X002
X0018
Y002325
Y0021
X001225Y001425
X0014Y0037
Y0039
X0016
X0018
Y0041
Y0043
Y0045
Y0047
X002
X0022
X0024
X0026
X0028
Y0045
Y0043
Y0041
X0026
X0024
Y0039
Y0037
X0022
X002
X0018
X0016
X002Y0039
Y0041
X0022
Y0039
X0026Y0043
Y0045
X003Y00363537
X00293Y00356
X0028Y0049
Y0051
X0026
X0024
Y0049
X0026
X0022
X002
Y0051
X0022
X00215Y00535
X002275
X0024
X002525
X00265
X002775
X0029
X003025
X003175Y005375
X00315Y0052
Y005075
Y00495
X00345
Y005075
Y0052
X00364Y0053775
X0037875Y0053275
Y0056775
X00364Y0056275
X00355Y005675
X00345Y005775
X003475Y005925
X003125
Y00575
X003025Y00565
X0029
X002775
X00265
X002525
X0024
X002275
X00215
X002025
X0019
X001775
X00156Y0056475
Y00535
X00138
X00122292Y00534684
X001225Y0052
X00122292Y00507184
X001225Y00495
X00097292Y00494684
Y00507184
X00097Y0051975
X00082146Y00534554
X00072292Y00534684
X00074792Y00564684
X00087292
X00095189Y00574882
X00092292Y00587184
X00129792
X001225Y00575
X001775Y00535
X0019
X002025
X0018Y0051
Y0049
X00071Y00498
X00063Y00504
X0033Y0055
X0034Y005625
T02
X00093Y00027
Y00035
Y00051
X0011Y000345
X00127Y00035
Y00027
Y00051
X00313
Y00035
Y00027
X0033Y000345
X00347Y00035
Y00027
Y00051
X00389Y00093
X00405
X00413
X004055Y0011
X00405Y00127
X00413
X00389
Y00313
X00405
X00413
X004055Y0033
X00405Y00347
X00413
X00389
X00051
X00035
X00027
X000345Y0033
X00035Y00313
X00027
X00051
Y00127
X00035
X00027
X000345Y0011
X00035Y00093
X00027
X00051
Y00533
X00035
X00027
X000345Y0055
X00035Y00567
X00027
X00051
X00093Y00609
Y00625
Y00633
X0011Y006255
X00127Y00625
Y00633
Y00609
X00313
Y00625
Y00633
X0033Y006255
X00347Y00625
Y00633
Y00609
X00389Y00567
X00405
X00413
X004055Y0055
X00405Y00533
X00413
X00389
T03
X001822Y00043
X002076
X00233
X002584
X004Y001812
Y002066
Y00232
Y002574
X0004445Y0040005
Y0042545
Y0045085
Y0047625
X001842Y00616
X002096
X00235
X002604
T04
X0022Y0022
Y0044
M30
